<svg id="Layer_1" data-name="Layer 1" xmlns="http://www.w3.org/2000/svg" viewBox="0 0 296 296"><defs><style>.cls-1{fill:#0d1137;}</style></defs><rect class="cls-1" width="138" height="138" rx="14.87"/><rect class="cls-1" x="158" width="138" height="138" rx="14.87"/><rect class="cls-1" y="158" width="138" height="138" rx="14.87"/><path class="cls-1" d="M791,362a54,54,0,1,1-54,54,54.06,54.06,0,0,1,54-54m0-15h0a69,69,0,0,0-69,69h0a69,69,0,0,0,69,69h0a69,69,0,0,0,69-69h0a69,69,0,0,0-69-69Z" transform="translate(-564 -189)"/></svg>