<svg xmlns="http://www.w3.org/2000/svg" viewBox="0 0 704.72 412.68"><defs><style>.cls-1{fill:#ebebeb;}.cls-2{fill:#fafafa;}.cls-3{fill:#e0e0e0;}.cls-4{fill:#f5f5f5;}.cls-5{fill:#fff;}.cls-6{fill:#263238;}.cls-7{fill:#ffbe9d;}.cls-8{fill:#e8505b;}.cls-9{opacity:0.3;}.cls-10{fill:#455a64;}.cls-11{fill:#eb996e;}.cls-12{opacity:0.4;}.cls-13{fill:#c69481;}.cls-14{fill:#936457;}.cls-15{opacity:0.6;}</style></defs><g id="Layer_2" data-name="Layer 2"><g id="Background_Complete" data-name="Background Complete"><rect class="cls-1" x="41.54" y="6.13" width="125.06" height="224.66"/><rect class="cls-2" x="46.53" y="12.64" width="113.78" height="211.46"/><polygon class="cls-3" points="171.89 232.82 166.6 230.79 166.6 2.32 171.89 2.32 171.89 232.82"/><path class="cls-4" d="M74.43,149.23,104,121.77c3.74-3.48,8.63-7.23,13.45-5.51,2.32.82,4.06,2.8,6.33,3.74,4.54,1.89,9.72-.84,13.21-4.3s6.24-7.79,10.46-10.3,10.79-2.19,12.88,2.26v29.89l-42.94,18.39Z"/><path class="cls-3" d="M46.53,132.05c10.89-4.43,21.76-.66,29.55,8.14,1.64,1.85,3.14,4,5.39,5,3,1.38,6.58.35,9.91,0a24.92,24.92,0,0,1,23.44,11.36L78.46,174.42l-31.93-.23Z"/><path class="cls-1" d="M160.31,132.2c-7.17-3.46-13.48.73-20.1,5.16s-12.76,10.12-20.52,11.91c-5.19,1.19-10.75.53-15.76,2.31C93.72,155.22,87.81,168.19,77,168.81c-5.88.33-11.15-3.23-16.4-5.9s-9.38-5.21-14.06-1.64V224.1H160.31Z"/><rect class="cls-3" x="46.53" y="73.47" width="116.25" height="2.25"/><rect class="cls-3" x="46.53" y="123.83" width="116.25" height="2.25"/><rect class="cls-3" x="46.53" y="174.19" width="116.25" height="2.25"/><rect class="cls-3" x="25.68" y="149.47" width="155.5" height="5.75" transform="translate(-48.93 255.77) rotate(-90)"/><rect class="cls-3" x="68.44" y="12.64" width="2.6" height="61.96"/><rect class="cls-3" x="90.9" y="12.64" width="2.6" height="61.96"/><rect class="cls-3" x="113.36" y="12.64" width="2.6" height="61.96"/><rect class="cls-3" x="135.83" y="12.64" width="2.6" height="61.96"/><rect class="cls-3" x="36.25" y="2.32" width="5.29" height="229.87"/><rect class="cls-3" x="36.25" width="135.64" height="6.13"/><rect class="cls-3" x="32.49" y="233.58" width="142.97" height="5.71"/><polygon class="cls-1" points="166.6 230.79 175.47 233.57 32.49 233.57 41.54 230.79 166.6 230.79"/><rect class="cls-1" x="534.9" y="6.13" width="125.06" height="224.66"/><rect class="cls-2" x="539.9" y="12.64" width="113.78" height="211.46"/><polygon class="cls-3" points="665.25 232.82 659.97 230.79 659.97 2.32 665.25 2.32 665.25 232.82"/><path class="cls-4" d="M567.79,149.23l29.55-27.46c3.75-3.48,8.64-7.23,13.46-5.51,2.31.82,4.06,2.8,6.33,3.74,4.53,1.89,9.71-.84,13.2-4.3s6.24-7.79,10.47-10.3,10.79-2.19,12.88,2.26v29.89l-42.94,18.39Z"/><path class="cls-3" d="M539.9,132.05c10.89-4.43,21.76-.66,29.55,8.14,1.64,1.85,3.13,4,5.39,5,3,1.38,6.58.35,9.91,0a24.9,24.9,0,0,1,23.43,11.36l-36.35,17.88-31.93-.23Z"/><path class="cls-1" d="M653.68,132.2c-7.17-3.46-13.49.73-20.1,5.16s-12.77,10.12-20.53,11.91c-5.18,1.19-10.74.53-15.75,2.31-10.22,3.64-16.12,16.61-26.95,17.23-5.87.33-11.14-3.23-16.39-5.9s-9.38-5.21-14.06-1.64V224.1H653.68Z"/><rect class="cls-3" x="539.9" y="73.47" width="116.25" height="2.25"/><rect class="cls-3" x="539.9" y="123.83" width="116.25" height="2.25"/><rect class="cls-3" x="539.9" y="174.19" width="116.25" height="2.25"/><rect class="cls-3" x="519.04" y="149.47" width="155.5" height="5.75" transform="translate(444.44 749.14) rotate(-90)"/><rect class="cls-3" x="561.81" y="12.64" width="2.6" height="61.96"/><rect class="cls-3" x="584.27" y="12.64" width="2.6" height="61.96"/><rect class="cls-3" x="606.73" y="12.64" width="2.6" height="61.96"/><rect class="cls-3" x="629.19" y="12.64" width="2.6" height="61.96"/><rect class="cls-3" x="529.61" y="2.32" width="5.29" height="229.87"/><rect class="cls-3" x="529.61" width="135.64" height="6.13"/><rect class="cls-3" x="525.86" y="233.58" width="142.97" height="5.71"/><polygon class="cls-1" points="659.97 230.79 668.84 233.57 525.86 233.57 534.9 230.79 659.97 230.79"/><polygon class="cls-3" points="330.31 14.1 330.31 83.52 230.61 83.52 227.01 14.58 330.31 14.1"/><rect class="cls-5" x="242.47" y="-0.88" width="68.79" height="99.71" transform="translate(227.89 325.85) rotate(-90)"/><path class="cls-3" d="M327.2,83.85H226.54V14.11H327.2Zm-99.71-.95h98.76V15.06H227.49Z"/><rect class="cls-5" x="237.81" y="23.13" width="78.11" height="51.7"/><path class="cls-3" d="M315.92,23.13h-.38l-1.11,0-4.29,0-16.1.07-56.23.11.23-.23c0,15.8,0,33.3,0,51.69h0l-.25-.25,78.11,0-.19.2c0-15.73.08-28.63.1-37.62,0-4.49,0-8,.05-10.4,0-1.19,0-2.1,0-2.73s0-.95,0-.95,0,.3,0,.91,0,1.52,0,2.69c0,2.4,0,5.89,0,10.36,0,9,.06,21.95.1,37.74V75h-.2l-78.11,0h-.24v-.24h0c0-18.39,0-35.89,0-51.69V22.9h.22l56.38.12,16,.06,4.25,0,1.08,0Z"/><path class="cls-3" d="M227,14.39a8.61,8.61,0,0,1,1.72,1.11c1,.74,2.41,1.78,3.91,3s2.82,2.34,3.74,3.19a7.85,7.85,0,0,1,1.43,1.46,68.73,68.73,0,0,1-5.48-4.26A55.83,55.83,0,0,1,227,14.39Z"/><path class="cls-3" d="M326.72,14.58a46.79,46.79,0,0,1-5.24,4.47,47.76,47.76,0,0,1-5.56,4.08,48.7,48.7,0,0,1,5.25-4.47A49.69,49.69,0,0,1,326.72,14.58Z"/><path class="cls-5" d="M326.64,83.38l-11.11-9"/><path class="cls-3" d="M315.53,74.37a54.25,54.25,0,0,1,5.71,4.32,52.83,52.83,0,0,1,5.4,4.69,51.67,51.67,0,0,1-5.71-4.31A50.77,50.77,0,0,1,315.53,74.37Z"/><path class="cls-3" d="M227,83.37a49.15,49.15,0,0,1,5.2-4.42,47.77,47.77,0,0,1,5.49-4,45.81,45.81,0,0,1-5.19,4.42A46.37,46.37,0,0,1,227,83.37Z"/><rect class="cls-3" x="269.59" y="23.32" width="17.31" height="49.15" transform="translate(230.35 326.14) rotate(-90)"/><path class="cls-1" d="M669.29,345.32a18.7,18.7,0,0,1,11.58-1.41c2.1.35,4.29,1,5.72,2.56s1.7,4.35.06,5.7a5.5,5.5,0,0,1-3.61.92c-3.06,0-6.45-.58-8.9,1.27-1.39,1.05-2.32,2.79-4,3.31a4,4,0,0,1-4.34-1.93,6.77,6.77,0,0,1-.49-5A7.61,7.61,0,0,1,669.29,345.32Z"/><path class="cls-1" d="M661.23,329.75c2.15,3.07,6.34,2.05,8.28.18s2.76-4.6,3.5-7.19c1.71-5.93,3.43-12.15,2.16-18.18a10.19,10.19,0,0,0-2.32-4.95,5.28,5.28,0,0,0-5-1.66c-2.11.56-3.42,2.62-4.37,4.59a43.24,43.24,0,0,0-4.28,18.6c0,3,.34,6.13,2,8.61"/><path class="cls-1" d="M655.32,334.16a11.21,11.21,0,0,0,1.74-10.3A19.82,19.82,0,0,0,651,315,33.08,33.08,0,0,0,640,308.57a11.72,11.72,0,0,0-4.91-.83,5.14,5.14,0,0,0-4.12,2.49c-1.15,2.2,0,4.85,1.14,7a83.94,83.94,0,0,0,7.17,10.93c2.15,2.77,4.61,5.5,7.89,6.75s6.68,1.11,8.42-1.16"/><path class="cls-3" d="M661.08,376.13a6.49,6.49,0,0,0,.2-1.4c.1-1,.22-2.29.37-3.81a54.78,54.78,0,0,1,.86-5.59,42.82,42.82,0,0,1,2-6.6,24.15,24.15,0,0,1,3.37-6,12.64,12.64,0,0,1,4.26-3.54,12.23,12.23,0,0,1,3.59-1.12,6.62,6.62,0,0,0,1.39-.2,7,7,0,0,0-1.41,0,11,11,0,0,0-3.75,1,12.62,12.62,0,0,0-4.49,3.58,23.63,23.63,0,0,0-3.5,6.09,39.72,39.72,0,0,0-2,6.71,47,47,0,0,0-.75,5.66c-.12,1.62-.17,2.93-.19,3.84A6.43,6.43,0,0,0,661.08,376.13Z"/><path class="cls-3" d="M661.34,373.2a2.39,2.39,0,0,0,0-.65V370.7c0-1.61,0-3.94.08-6.82.14-5.75.64-11.94,1.59-20.66.91-8.21,2.12-17.75,3.41-24,.27-1.41.55-2.68.81-3.8s.46-2.07.67-2.85.32-1.33.43-1.8a2.84,2.84,0,0,0,.11-.64,2.71,2.71,0,0,0-.22.61l-.54,1.77c-.24.77-.48,1.73-.76,2.84s-.6,2.37-.9,3.78a211.53,211.53,0,0,0-3.58,22.24c-1,8.74-1.39,16.7-1.43,22.47,0,2.88,0,5.21.1,6.82.05.75.09,1.37.12,1.85A3,3,0,0,0,661.34,373.2Z"/><path class="cls-3" d="M661.38,357.84a11.43,11.43,0,0,0,0-1.93c-.07-1.25-.24-3.05-.59-5.25a69.75,69.75,0,0,0-1.71-7.64,61.14,61.14,0,0,0-3.2-9,48.3,48.3,0,0,0-9.38-14.62,26.33,26.33,0,0,0-2.21-2.05c-.34-.29-.64-.57-.95-.8l-.85-.59a13.74,13.74,0,0,0-1.63-1.05,59.42,59.42,0,0,1,5.34,4.77,50.79,50.79,0,0,1,9.15,14.57,71.72,71.72,0,0,1,3.22,9,76.77,76.77,0,0,1,1.81,7.57c.4,2.18.64,4,.78,5.2A12,12,0,0,0,661.38,357.84Z"/><polygon class="cls-3" points="646.54 384.93 648.08 406.01 675.16 406.01 676.7 384.93 646.54 384.93"/><rect class="cls-3" x="643.93" y="376.62" width="36" height="8.31"/><polygon class="cls-1" points="643.93 405.2 643.93 407.5 645.62 407.5 679.34 407.5 679.34 405.2 643.93 405.2"/><polygon class="cls-3" points="647.28 411.56 645.62 407.5 678.04 407.5 676.11 411.56 647.28 411.56"/><path class="cls-4" d="M676.2,391.82a2.07,2.07,0,0,1-.13.19l-.41.54-1.57,2-.07.09-.07-.1-3.88-5.36h.23l-3.82,5.41-.12.17-.13-.16-4.53-5.39H662l-.25.31-4,5.07-.14.17-.12-.17c-1.37-1.95-2.66-3.76-3.82-5.4h.22c-1.88,2.14-3.47,4-4.7,5.35l-.08.1-.07-.11-1.47-2.47-.38-.66c-.08-.15-.12-.23-.11-.24a1.37,1.37,0,0,1,.16.21c.11.17.24.38.42.64l1.54,2.42H649L653.6,389l.12-.14.1.15c1.17,1.64,2.47,3.44,3.85,5.38h-.26c1.29-1.61,2.64-3.32,4-5.08l.25-.31.13-.16.13.16,4.51,5.39h-.25l3.85-5.38.12-.15.11.15,3.79,5.42H674l1.64-2c.18-.21.33-.37.44-.51S676.19,391.81,676.2,391.82Z"/><path class="cls-4" d="M677.08,384.79c0,.09-6.79.17-15.16.17s-15.15-.08-15.15-.17,6.78-.17,15.15-.17S677.08,384.7,677.08,384.79Z"/><path class="cls-4" d="M678.44,407.73c0,.09-7.37.17-16.47.17s-16.47-.08-16.47-.17,7.38-.17,16.47-.17S678.44,407.64,678.44,407.73Z"/></g><g id="Floor"><path class="cls-6" d="M692.7,412.34c0,.14-155.08.26-346.33.26S0,412.48,0,412.34s155.05-.26,346.37-.26S692.7,412.19,692.7,412.34Z"/></g><g id="Character_3" data-name="Character 3"><path class="cls-7" d="M554.74,325.7l12.7,19.53,18.5-7.87,10.51-5.49,12.84,1.41-18.14,11.19h0l-17.71,16.62a10.89,10.89,0,0,1-17.78-1.73l-14.39-25.59Z"/><path class="cls-8" d="M674,384.43,688.2,394s13.43-11.89,16.23-10.38L687.94,412.5l-22.77-14Z"/><path class="cls-5" d="M681.55,402a1.35,1.35,0,0,0,.82,1.61,1.3,1.3,0,0,0,1.61-.8,1.43,1.43,0,0,0-.88-1.7,1.35,1.35,0,0,0-1.58,1"/><path class="cls-5" d="M687.94,412.5l-2.29-1.41,16.89-27.33a2.29,2.29,0,0,1,2.18-.16Z"/><path class="cls-5" d="M688.34,393.45c.13.09-.23.82-.21,1.77s.38,1.68.24,1.77-.8-.61-.8-1.76S688.23,393.34,688.34,393.45Z"/><path class="cls-5" d="M691.41,391.25c.15.05,0,.79.3,1.62s.83,1.35.74,1.49-.93-.27-1.27-1.31S691.27,391.17,691.41,391.25Z"/><path class="cls-5" d="M696,391.77c0,.14-.86-.09-1.4-.92s-.43-1.65-.28-1.64.31.66.76,1.33S696.07,391.62,696,391.77Z"/><path class="cls-5" d="M684.86,391.63c.09.14-.5.65-.93,1.46s-.56,1.57-.72,1.57-.3-.89.23-1.84S684.79,391.49,684.86,391.63Z"/><g class="cls-9"><polygon points="676.79 386.33 679.33 388.03 670.58 401.83 668.23 400.4 676.79 386.33"/></g><path class="cls-5" d="M682,389.75c.06,0-.19.64-.88,1.41a7.71,7.71,0,0,1-1.38,1.2,7.56,7.56,0,0,1-.93.54,2.43,2.43,0,0,1-.6.23.71.71,0,0,1-.77-.4.86.86,0,0,1,.06-.8,2,2,0,0,1,.4-.48,5.36,5.36,0,0,1,.85-.69,5.84,5.84,0,0,1,1.66-.78,2.76,2.76,0,0,1,1.67-.11c0,.09-.62.14-1.54.49a6.38,6.38,0,0,0-1.49.82,5.79,5.79,0,0,0-.76.66c-.26.25-.42.5-.34.66s.05.08.18.07a2.42,2.42,0,0,0,.44-.16c.31-.15.61-.32.89-.49a8.57,8.57,0,0,0,1.37-1C681.51,390.21,681.88,389.7,682,389.75Z"/><path class="cls-5" d="M682,390.06a2.74,2.74,0,0,1-1.6-.48,5.21,5.21,0,0,1-1.43-1.16,5.43,5.43,0,0,1-.63-.89,1.37,1.37,0,0,1-.16-1.35.79.79,0,0,1,.77-.34,2,2,0,0,1,.6.18,3.53,3.53,0,0,1,1,.59,3.84,3.84,0,0,1,1.08,1.51c.39,1,.2,1.68.14,1.67a11,11,0,0,0-.5-1.51,3.9,3.9,0,0,0-1-1.27,3.46,3.46,0,0,0-.84-.48c-.32-.14-.64-.18-.67,0a.93.93,0,0,0,.15.78,5.43,5.43,0,0,0,.55.83,6.2,6.2,0,0,0,1.24,1.15C681.46,389.79,682.06,390,682,390.06Z"/><path class="cls-8" d="M640.92,396.32l4.12,7.51v8.85h36s1.48-3.15-.83-4.13S660,399.49,660,399.49l-7.45-11Z"/><polygon class="cls-5" points="645.04 412.68 645.04 410.29 681.46 411.48 681 412.68 645.04 412.68"/><circle class="cls-5" cx="650.85" cy="405.34" r="1.53"/><path class="cls-5" d="M663.12,400.9c.09.12-.56.75-1.24,1.6s-1.16,1.61-1.29,1.55.16-1,.89-1.88S663,400.79,663.12,400.9Z"/><path class="cls-5" d="M659.86,399.27c.06.13-.47.52-1,1.09s-.94,1.11-1.07,1,.07-.77.69-1.41S659.8,399.14,659.86,399.27Z"/><path class="cls-5" d="M657.71,396.56c0,.15-.61.26-1.26.59s-1.09.76-1.21.68.19-.74,1-1.14S657.72,396.43,657.71,396.56Z"/><path class="cls-5" d="M666.87,402.7c.09.11-.29.58-.71,1.18s-.78,1.09-.91,1,0-.7.48-1.35S666.78,402.59,666.87,402.7Z"/><path class="cls-5" d="M658.08,396.51s0,0,0,0,0,.09,0,.12a.2.2,0,0,1-.14.08l-.15,0a4,4,0,0,1-1-.06,4.9,4.9,0,0,1-1.38-.47,2.81,2.81,0,0,1-.75-.53.89.89,0,0,1-.09-1.14,1.2,1.2,0,0,1,1-.35,2.71,2.71,0,0,1,.88.23,2.86,2.86,0,0,1,1.16.93c.51.71.47,1.28.42,1.28s-.19-.48-.7-1a2.89,2.89,0,0,0-1.07-.73c-.41-.17-1.09-.26-1.33,0a.41.41,0,0,0,.08.49,2.45,2.45,0,0,0,.59.44,6,6,0,0,0,1.24.53,8.22,8.22,0,0,0,.9.21l.14,0s0,0,.06,0h.05S658.08,396.51,658.08,396.51Z"/><path class="cls-5" d="M657.89,396.73s-.14-.11-.21-.4a3.19,3.19,0,0,1,0-1.19,13,13,0,0,1,.36-1.69c.09-.32.19-.64.31-1a1.58,1.58,0,0,1,.34-.54.67.67,0,0,1,.79-.17,1.13,1.13,0,0,1,.47.54,1.79,1.79,0,0,1,.16.59A3,3,0,0,1,660,394a5.19,5.19,0,0,1-.82,1.58c-.61.8-1.17,1.11-1.2,1.06s.4-.46.9-1.27a6,6,0,0,0,.66-1.5,2.48,2.48,0,0,0,.07-.9,1,1,0,0,0-.35-.72c-.08-.09-.31.13-.42.43s-.23.63-.33.93c-.2.6-.34,1.16-.46,1.62A4.53,4.53,0,0,0,657.89,396.73Z"/><path class="cls-6" d="M619.14,346.78s9.74.76,13.22,3,46.83,35.92,46.83,35.92l-11.14,15.85-29.42-15.37Z"/><path class="cls-6" d="M515.37,385.19s3.7,16.26,4.66,18.76c1.34,3.52,15.16,11.51,32,7.19,17.45-4.46,59-38.2,59-38.2l4.15,3.06,26,24.11s14.91-6.15,14.91-12.31c0,0-31.56-48.17-34.44-49.08s-5.83-1.8-9.32-1.07-56,29.52-56,29.52h0Z"/><path class="cls-10" d="M641.16,400.11l.36-.11,1-.39a33.21,33.21,0,0,0,3.78-1.72,29.51,29.51,0,0,0,5.38-3.56,20.8,20.8,0,0,0,2.79-2.83,12.7,12.7,0,0,0,2.23-3.8l0-.08,0-.07-10.2-15.07c-6-8.81-11.56-16.7-15.69-22.33-2.07-2.81-3.77-5.07-5-6.62l-1.37-1.78-.37-.45a1.13,1.13,0,0,0-.14-.15,1.38,1.38,0,0,0,.11.17l.33.48,1.32,1.82,4.85,6.7c4.07,5.66,9.6,13.57,15.59,22.38,3.73,5.47,7.23,10.62,10.24,15.05l0-.15a12.65,12.65,0,0,1-2.15,3.7,20.3,20.3,0,0,1-2.73,2.81,29.6,29.6,0,0,1-5.29,3.6,38.44,38.44,0,0,1-3.72,1.8l-1,.44Z"/><path class="cls-10" d="M611.26,365.51a6.28,6.28,0,0,1,.83,3.79A6.37,6.37,0,0,1,611,373c-.15-.06.49-1.67.54-3.75S611.11,365.56,611.26,365.51Z"/><path class="cls-10" d="M614.91,366.91a8.54,8.54,0,0,1-1.33,3.23,8.64,8.64,0,0,1-2.12,2.77,18.56,18.56,0,0,1,1.67-3A19.26,19.26,0,0,1,614.91,366.91Z"/><path class="cls-6" d="M547.56,290.71c-1.08,3.12.81,6.45,2.85,9.05s4.42,5.33,4.46,8.64a18.9,18.9,0,0,1-1.12,5.2,7.14,7.14,0,0,0,.16,5.21c1,1.8,3.17,2.7,4.08,4.54a5.35,5.35,0,0,1,0,4.33,16.07,16.07,0,0,1-2.41,3.73c-.46.59-1.14,1.25-1.84,1a1.8,1.8,0,0,1-.87-1q-5.76-11.59-10.85-23.48a17.2,17.2,0,0,1-1.61-5.3c-.31-3.86,1.94-7.59,1.59-11.45"/><path class="cls-7" d="M589,338.51a97.51,97.51,0,0,1,15.91-4.23c.34.35-.11,1.53-.51,1.83a3.93,3.93,0,0,1-1.55.71,5.36,5.36,0,0,0-1.57.43,4.25,4.25,0,0,0-1.5,1.84c-1.43,2.32-4.8,3.83-8.1,3.63"/><path class="cls-11" d="M591.64,342.72s.12,0,.34,0a7.11,7.11,0,0,0,1,0,10,10,0,0,0,3.53-.83,8.4,8.4,0,0,0,2.13-1.33,6.42,6.42,0,0,0,1-1c.29-.39.53-.84.79-1.25a2.47,2.47,0,0,1,1-1,6.55,6.55,0,0,1,1.51-.37,4.18,4.18,0,0,0,1.58-.75,2,2,0,0,0,.51-.79,2.05,2.05,0,0,0,.17-.94.78.78,0,0,0-.16-.38l-.07-.07h-.11a77.57,77.57,0,0,0-11.34,2.81c-1.42.45-2.56.85-3.34,1.13a7.46,7.46,0,0,0-1.2.49,8.09,8.09,0,0,0,1.25-.34l3.37-1a92.62,92.62,0,0,1,11.32-2.68l-.17-.05a.31.31,0,0,1,.06.15,1.94,1.94,0,0,1-.54,1.37,3.76,3.76,0,0,1-1.41.68,6.53,6.53,0,0,0-1.59.41,2.84,2.84,0,0,0-1.17,1.13,7.52,7.52,0,0,1-3.71,3.55,10.44,10.44,0,0,1-3.42.92C592.11,342.71,591.64,342.68,591.64,342.72Z"/><path class="cls-10" d="M578.16,357.62h0a2.69,2.69,0,0,1,.85-3.73l31.48-19.34,5.73-39.39a2.24,2.24,0,0,1,2.26-1.92h0a2.24,2.24,0,0,1,2.17,2.53l-5.51,41.4Z"/><path class="cls-8" d="M519.1,295c-.88.86-13.16,5.62-14.28,15.67-.5,4.49,11.18,80,11.18,80l1.37.39a20.25,20.25,0,0,0,21.82-7.2l2.3-3.09a30,30,0,0,1,6.6-6.46l12.4-9.44-9-8.27.88-9.19s4-14.1,1.76-21.15-12.81-21.87-12.81-21.87L536,298.48Z"/><path class="cls-6" d="M517.53,382.94s.18.18.55.43a4.94,4.94,0,0,0,.69.43,7.91,7.91,0,0,0,1,.5,14.44,14.44,0,0,0,2.68.9,16.19,16.19,0,0,0,3.45.35,16.53,16.53,0,0,0,3.44-.46,13.81,13.81,0,0,0,2.65-1,9,9,0,0,0,.95-.52,5.66,5.66,0,0,0,.68-.46c.36-.27.55-.42.53-.45s-.84.53-2.28,1.18a15.1,15.1,0,0,1-2.62.88,17.21,17.21,0,0,1-3.36.43,16.81,16.81,0,0,1-3.36-.32,15,15,0,0,1-2.65-.8C518.39,383.44,517.57,382.88,517.53,382.94Z"/><path class="cls-6" d="M518.24,376.51a4.71,4.71,0,0,0,1.26,1,13.35,13.35,0,0,0,3.57,1.6,13.82,13.82,0,0,0,3.88.55,4.75,4.75,0,0,0,1.61-.19,18.95,18.95,0,0,1-10.32-3Z"/><path class="cls-8" d="M514.85,299.21s12.34-3,15.43,8.88A202.41,202.41,0,0,0,538.49,332l-28.27,6S501,306.61,514.85,299.21Z"/><path class="cls-6" d="M542,345.33a3.33,3.33,0,0,0,1.3-.28,9.18,9.18,0,0,0,2.8-1.57,9.44,9.44,0,0,0,2.11-2.42,3.21,3.21,0,0,0,.53-1.22,12.86,12.86,0,0,1-6.74,5.49Z"/><path class="cls-6" d="M509.38,333a5.25,5.25,0,0,0-.18-1.06c-.16-.68-.35-1.66-.56-2.88a53.57,53.57,0,0,1,.14-19.23c.23-1.22.44-2.2.6-2.87a6.7,6.7,0,0,0,.21-1.06,5.28,5.28,0,0,0-.36,1c-.21.66-.46,1.64-.72,2.85a48,48,0,0,0-.15,19.34c.25,1.22.49,2.2.69,2.86A6.56,6.56,0,0,0,509.38,333Z"/><path class="cls-6" d="M510.22,338a4,4,0,0,0,.57-.09l1.61-.3,6-1.2,20.15-4.17.22,0-.08-.22c-.58-1.49-1.15-3.06-1.7-4.67-1.51-4.42-2.79-8.69-3.77-12.62-.24-1-.44-1.95-.71-2.88s-.56-1.82-.87-2.66-.65-1.66-1-2.43a12.2,12.2,0,0,0-1.08-2.17,11.17,11.17,0,0,0-3-2.92,13.12,13.12,0,0,0-2.77-1.48,8.24,8.24,0,0,0-1.92-.48,3,3,0,0,0-.69,0s.23,0,.68.08a8.09,8.09,0,0,1,1.87.55,12.83,12.83,0,0,1,2.7,1.51,11.2,11.2,0,0,1,2.85,2.89,11.49,11.49,0,0,1,1,2.14c.32.77.64,1.58.95,2.42s.6,1.73.85,2.65.45,1.88.69,2.87c1,3.94,2.23,8.22,3.74,12.65.56,1.62,1.13,3.2,1.71,4.69l.15-.26-20.13,4.3-6,1.31-1.6.37A2.54,2.54,0,0,0,510.22,338Z"/><path class="cls-5" d="M509.12,330.85c1.73.55,3.6,1.09,5.33.52a21,21,0,0,0,3.48-2.1c2.06-1.19,4.54-1.34,6.9-1.64s4.87-.83,6.53-2.55c-1.63.53-3.39-.07-5.1-.13a16.47,16.47,0,0,0-3.2.33l-7.79,1.32a7.63,7.63,0,0,1-2.13.16c-.74-.08-1.45-.37-2.19-.42a1.8,1.8,0,0,0-1.85,1"/><path class="cls-5" d="M532.69,313.8c-.21-.52-.24-1.06-.44-1.58l-.38-.13a21.92,21.92,0,0,0-7.76,1.48,17,17,0,0,1-4,1.34c-1.69.19-3.46-.32-5.06.25,1.43,1.34,3.6,1.54,5.55,1.29a50.17,50.17,0,0,1,5.82-.88c1.88,0,3.8.52,5.62,0a1.23,1.23,0,0,0,.74-.42A1.49,1.49,0,0,0,532.69,313.8Z"/><path class="cls-5" d="M546.24,311.74a39.53,39.53,0,0,1-2.07,3.92,3.82,3.82,0,0,1-1.55,1.33,6.43,6.43,0,0,1-1.81.25,6.7,6.7,0,0,0-3.57,1.42c.94.12,1.89.2,2.84.26,1.75.1,3.73,0,4.94-1.28a15.3,15.3,0,0,0,2.22-4.33Z"/><path class="cls-5" d="M548.61,327.23c0-.12-.17-.16-.29-.19l-2.08-.52a13.46,13.46,0,0,0-3.14-.51c-1.38,0-2.9.41-4.05-.35a10.5,10.5,0,0,1-1.23-1.18,4,4,0,0,0-2.28-1l1.42,2.93a1.65,1.65,0,0,0,1.55.86c.62,0,1.23-.19,1.85-.25a11.45,11.45,0,0,1,4,.65,5.87,5.87,0,0,0,4,0C548.5,327.52,548.66,327.39,548.61,327.23Z"/><path class="cls-5" d="M547.4,337.79a2.88,2.88,0,0,1-1.92.25c-.5-.18-.89-.63-1.42-.7-1.13-.14-1.86,1.51-3,1.43-.93-.07-1.35-1.23-2.15-1.7a1.63,1.63,0,0,0-2.45,1.53l1,2.08c.81.85,2.19.46,3.36.41.64,0,1.28.07,1.91.05a8.83,8.83,0,0,0,2.67-.64,26.89,26.89,0,0,0,3.72-1.76c1-.56,2-1.31,2.13-2.41Z"/><path class="cls-5" d="M512,362c1.92-.14,3.69.91,5.55,1.41,4.86,1.31,10-1.19,15-.61a42.19,42.19,0,0,1-7,3.22,18.33,18.33,0,0,1-9,1.22,25.48,25.48,0,0,0-4.29-.73"/><path class="cls-5" d="M544,368.52a10.58,10.58,0,0,1-3.79,3.38,33.35,33.35,0,0,1-5,2.72c-4.37,1.79-9.24,1.81-14,1.8a13.59,13.59,0,0,0,11.66,2,7.9,7.9,0,0,1,1.79-.42c1.09-.05,2.13.51,3.22.6,1.91.15,3.61-1.1,5.11-2.28a34.49,34.49,0,0,0,7.21-6.9l-5.46-.55"/><g class="cls-9"><path d="M532.5,372.42c-2-1.13-4.51-2.33-5.81-4.26-1-1.46-1.06-3.42-1.82-5a47.21,47.21,0,0,1-2.64-6.43c-2.07-6.77-4.64-13-6.71-19.73l-2,.25c1.52,8.18,4.76,15.92,7.12,23.89a51.11,51.11,0,0,0,3.35,9.46c1.57,3,4,5.62,7.21,6.64s7.15,0,8.84-2.89A12.79,12.79,0,0,1,532.5,372.42Z"/></g><path class="cls-7" d="M534.42,333.11l7.44,18,32.47-6.24,14.36-11.16,4,.56,6.55-.18,5.83,3.14,1,.17L579,354.19,547.49,372.1a15.25,15.25,0,0,1-14.21,1.45h0a15.24,15.24,0,0,1-8.57-8.86l-10.14-27.52Z"/><path class="cls-11" d="M604.71,337a8.63,8.63,0,0,0-1.76-.45c-1.1-.22-2.62-.51-4.31-.8l-1.57-.27H597c-1.26.4-2.36.76-3.13,1a5.62,5.62,0,0,0-1.21.49,4.49,4.49,0,0,0,1.28-.26c.8-.21,1.9-.52,3.17-.9H597l1.58.29c1.68.29,3.21.53,4.32.69A7.51,7.51,0,0,0,604.71,337Z"/><path class="cls-11" d="M603,339.16a36.18,36.18,0,0,0-5.34-.27l-1.27,0h0l0,0a25.35,25.35,0,0,0-3.62,1.86,23.72,23.72,0,0,0,3.78-1.51l-.08,0,1.27,0A36.79,36.79,0,0,0,603,339.16Z"/><path class="cls-11" d="M534.42,333.11a2,2,0,0,0,.11.35l.38,1,1.47,3.7c1.3,3.19,3.14,7.7,5.31,13l.06.13.14,0,15.6-3L574.36,345h0l0,0,10.35-8.14,2.9-2.31.75-.62a1.55,1.55,0,0,0,.25-.23,1.44,1.44,0,0,0-.28.19l-.79.57-3,2.24c-2.55,2-6.15,4.72-10.44,8l.07,0-16.88,3.22-15.6,3,.2.1-5.44-13c-.67-1.55-1.19-2.79-1.57-3.66l-.43-1A2.46,2.46,0,0,0,534.42,333.11Z"/><path class="cls-11" d="M537.31,364a16.41,16.41,0,0,0,.4-2,32.41,32.41,0,0,1,1.31-4.73,32.76,32.76,0,0,1,2-4.47,13.36,13.36,0,0,0,1-1.8,8.11,8.11,0,0,0-1.21,1.66,24.68,24.68,0,0,0-2.15,4.47,24.28,24.28,0,0,0-1.21,4.82A7.41,7.41,0,0,0,537.31,364Z"/><path class="cls-5" d="M519,349c-2.1,1.87-5,2.37-7.65,3.36-.1,0-.22.1-.25.21a.35.35,0,0,0,.1.25,2.83,2.83,0,0,0,2.49.52,34,34,0,0,0,6-1.05c.21-.06.45-.16.52-.37a.69.69,0,0,0-.08-.5L519,348.71"/><path class="cls-6" d="M523.39,251.75a20.39,20.39,0,0,0,1.21-4.18,6.64,6.64,0,0,0-.7-4.23,6,6,0,0,0-6.24-2.53,9.81,9.81,0,0,0-5.8,3.93c-.86,1.15-1.58,2.6-1.14,4a4.84,4.84,0,0,0,2.59,2.52,24.22,24.22,0,0,0,9.26,2.71"/><path class="cls-10" d="M516.43,241.23a2.83,2.83,0,0,0-.92,1.4,5.18,5.18,0,0,0,0,1.86,7.94,7.94,0,0,0,.6,2.21,5.32,5.32,0,0,0,2.86,2.86,10.9,10.9,0,0,0,1.7.4,2.52,2.52,0,0,1-1.83-.05,5.28,5.28,0,0,1-3.2-3,7.48,7.48,0,0,1-.61-2.37,5,5,0,0,1,.15-2,2.24,2.24,0,0,1,.81-1.12C516.23,241.22,516.42,241.2,516.43,241.23Z"/><path class="cls-10" d="M523.41,242.58a7.91,7.91,0,0,1-1.28.4,8,8,0,0,0-4.67,4c-.37.73-.51,1.23-.59,1.21a2.45,2.45,0,0,1,.25-1.36,6.91,6.91,0,0,1,4.91-4.22A2.48,2.48,0,0,1,523.41,242.58Z"/><path class="cls-8" d="M519.31,253.71c-.54,0-1.08.11-1.62.11a1.59,1.59,0,0,1-1.41-.65,1.39,1.39,0,0,1,.25-1.53,4,4,0,0,1,1.35-.93q2.46-1.25,4.93-2.48a2.93,2.93,0,0,1,1-.38,1.08,1.08,0,0,1,1,.33c.45.54,0,1.37-.48,1.85a14.29,14.29,0,0,1-3,2.11,18.62,18.62,0,0,0-2.09,1.57"/><path class="cls-6" d="M548.78,254.35a9.1,9.1,0,0,1,3.89,8.88c-.31,1.28-.89,2.57-.64,3.86a9.6,9.6,0,0,0,1.62,3A9,9,0,0,1,542.46,283"/><path class="cls-6" d="M550.68,271.1c7.83-17.22-10.79-25.87-21-23-9.55,2.7-13.63,7.45-15.2,13.84a31.6,31.6,0,0,0,1,19.4c1.24,3,3.46,6.05,6.68,6.43"/><path class="cls-7" d="M541.58,306.82c.14-8.23.16-13.13.16-13.08s7.07-1.18,8.54-10.41c.73-4.59.5-12.11.11-18.26-.35-5.54-4-12.33-9.53-11.75l-17.23,4.36a3.22,3.22,0,0,0-2.9,3.29h0l1.12,35.63"/><path class="cls-6" d="M548.32,271.12a1.17,1.17,0,0,1-1.12,1.2,1.12,1.12,0,0,1-1.22-1.05,1.17,1.17,0,0,1,1.11-1.2A1.13,1.13,0,0,1,548.32,271.12Z"/><path class="cls-6" d="M536.26,271.12a1.19,1.19,0,0,1-1.13,1.2,1.13,1.13,0,0,1-1.22-1.05,1.17,1.17,0,0,1,1.12-1.2A1.13,1.13,0,0,1,536.26,271.12Z"/><path class="cls-6" d="M548.58,268.55c-.14.16-1.06-.47-2.33-.43s-2.18.72-2.33.57.07-.35.47-.66a3.2,3.2,0,0,1,1.86-.64,3,3,0,0,1,1.86.53C548.51,268.21,548.65,268.48,548.58,268.55Z"/><path class="cls-6" d="M536.5,268.86c-.15.15-1-.52-2.32-.52s-2.21.63-2.35.48.09-.35.5-.65a3.3,3.3,0,0,1,1.88-.57,3.16,3.16,0,0,1,1.84.61C536.44,268.51,536.57,268.79,536.5,268.86Z"/><path class="cls-6" d="M540.86,278.67a8.12,8.12,0,0,1,2.07-.38c.32,0,.63-.1.69-.32a1.69,1.69,0,0,0-.22-1c-.31-.79-.63-1.61-1-2.48a41.75,41.75,0,0,1-2.16-6.48,43.23,43.23,0,0,1,2.67,6.29c.33.87.63,1.7.93,2.49a1.89,1.89,0,0,1,.16,1.28.81.81,0,0,1-.53.48,2.36,2.36,0,0,1-.55.07A8.72,8.72,0,0,1,540.86,278.67Z"/><path class="cls-11" d="M541.74,293.74a23.47,23.47,0,0,1-12.36-3.3s3.12,6.42,12.36,5.56Z"/><path class="cls-11" d="M540.32,281.73a2.32,2.32,0,0,0-2.06-.85,2.08,2.08,0,0,0-1.44.78,1.32,1.32,0,0,0-.1,1.52,1.55,1.55,0,0,0,1.67.42,4.73,4.73,0,0,0,1.62-1,1.48,1.48,0,0,0,.37-.38.44.44,0,0,0,0-.47"/><path class="cls-6" d="M537.11,279.55c.21,0,.21,1.37,1.4,2.35s2.65.83,2.66,1-.33.27-.95.29a3.44,3.44,0,0,1-2.22-.78,2.92,2.92,0,0,1-1.08-2C536.86,279.88,537,279.54,537.11,279.55Z"/><path class="cls-6" d="M536.81,267c-.12.35-1.4.18-2.89.36s-2.7.59-2.9.28c-.09-.15.12-.48.61-.81a4.75,4.75,0,0,1,2.15-.75,4.84,4.84,0,0,1,2.26.26C536.59,266.55,536.87,266.83,536.81,267Z"/><path class="cls-6" d="M548.29,265.3c-.22.29-1.1,0-2.16,0s-2,.2-2.15-.11c-.09-.14,0-.43.44-.71a3,3,0,0,1,1.75-.47,2.9,2.9,0,0,1,1.72.58C548.27,264.86,548.39,265.15,548.29,265.3Z"/><path class="cls-7" d="M522.31,273.06c-.14-.06-4.94-2.19-5,3.34s5.5,4.44,5.52,4.28S522.31,273.06,522.31,273.06Z"/><path class="cls-11" d="M521.16,278.57s-.1.07-.26.14a1,1,0,0,1-.72,0,2.4,2.4,0,0,1-1.08-2.15,3.21,3.21,0,0,1,.28-1.38,1.12,1.12,0,0,1,.73-.73.5.5,0,0,1,.57.27,1.3,1.3,0,0,1,.06.28s.12-.1.08-.32a.57.57,0,0,0-.21-.35.73.73,0,0,0-.53-.15,1.36,1.36,0,0,0-1,.85,3.29,3.29,0,0,0-.35,1.53,2.5,2.5,0,0,0,1.38,2.4,1,1,0,0,0,.89-.13C521.15,278.7,521.18,278.58,521.16,278.57Z"/><path class="cls-6" d="M504.62,297.76a15.76,15.76,0,0,1,2.26-3.83l.45-.62c-2.46-1.8-3.46-4.74-3-8.48.27-2.22,1.14-3.72,4.68-8.09A24.25,24.25,0,0,0,514.08,264l2.45,7.06-1,8.11,2.35,4.83,1.45.6,2.27-3.71c1.53,4.17,3.06,5.48,6.15,7.6s6.79,3.16,8.78,7.94c4.73,11.38-1.28,21.78-2.12,22.54,0,0-2.73-12.74-5.65-15.43-3.47-3.2-5.88-5-10.12-4.61-3,.53-4.88.5-7,2.68-1,1-2,2.28-3.39,2.55a3.51,3.51,0,0,1-3.62-2A5.7,5.7,0,0,1,504.62,297.76Z"/><path class="cls-6" d="M519,270.55c1.32-.1,1.9,1.61,2,2.92s.57,3,1.89,3.09c1,.05,1.76-1.08,1.84-2.11s-.26-2.06-.24-3.09a6.65,6.65,0,0,1,2.49-4.61c1.34-1.2,2.93-2.08,4.35-3.18,3.29-2.53,6.42-5.16,7.31-9.22,4,2.49,7.34,3.9,11.39,6.38a8.73,8.73,0,0,0-3.29-6.31,17.83,17.83,0,0,0-6.52-3.24,25.18,25.18,0,0,0-12.11-.91,15.3,15.3,0,0,0-10,6.49,11,11,0,0,0-.22,11.61"/><path class="cls-10" d="M523,250.72a51.06,51.06,0,0,0,7.52,2.79,49.46,49.46,0,0,0,8,1,8.16,8.16,0,0,1-2.37.2,24,24,0,0,1-5.71-.71,24.66,24.66,0,0,1-5.38-2A8.31,8.31,0,0,1,523,250.72Z"/><path class="cls-10" d="M521.19,252.34a12.48,12.48,0,0,0,1,3.48,9.3,9.3,0,0,0,2.4,3,8.63,8.63,0,0,0,4.26,1.93,8.5,8.5,0,0,0,4.62-.77,9.42,9.42,0,0,0,3.11-2.31,12.3,12.3,0,0,0,1.85-3.11,2.8,2.8,0,0,1-.22,1,8.2,8.2,0,0,1-1.35,2.38,9.37,9.37,0,0,1-3.18,2.51,8.37,8.37,0,0,1-9.4-1.24,9.11,9.11,0,0,1-2.42-3.25,7.63,7.63,0,0,1-.69-2.63A2.88,2.88,0,0,1,521.19,252.34Z"/><path class="cls-10" d="M540.48,249.65c.06,0,.28.22.44.73a3.8,3.8,0,0,1,0,2.06,3.75,3.75,0,0,1-1,1.78c-.39.36-.7.47-.74.42a8.34,8.34,0,0,0,1.27-2.34A8.21,8.21,0,0,0,540.48,249.65Z"/><path class="cls-10" d="M546.57,251.92c.06,0,.26.35.34,1a4.35,4.35,0,0,1-2.33,4.34c-.6.3-1,.33-1,.27a7.45,7.45,0,0,0,2.42-2.32A7.35,7.35,0,0,0,546.57,251.92Z"/><path class="cls-10" d="M534,315.51a20.31,20.31,0,0,0,1.16-3,13,13,0,0,0-10-16.29c-2.37-.54-5-.63-7.6-1.09a17.33,17.33,0,0,1-4-1.12,9.78,9.78,0,0,1-3.47-2.47,6.89,6.89,0,0,1-1.77-3.9,8.39,8.39,0,0,1,.77-4.08c1.09-2.52,2.88-4.45,4.09-6.54a16,16,0,0,0,2-6.5c.27-2.15.35-4.18.57-6a15.11,15.11,0,0,1,3.06-8.19,8,8,0,0,1,1.81-1.57,4.43,4.43,0,0,1,.55-.29.86.86,0,0,1,.2-.09,10.14,10.14,0,0,0-2.4,2.08,15.27,15.27,0,0,0-2.85,8.1c-.2,1.83-.26,3.87-.51,6.05a16.38,16.38,0,0,1-2.05,6.69c-1.24,2.15-3,4.07-4,6.49a8,8,0,0,0-.72,3.83,6.36,6.36,0,0,0,1.65,3.6c1.83,2.1,4.56,3,7.13,3.44s5.2.56,7.62,1.12a13.59,13.59,0,0,1,6.26,3.13,13.41,13.41,0,0,1,3.53,5,13.24,13.24,0,0,1,.35,8.7A9.94,9.94,0,0,1,534,315.51Z"/></g><g id="Speech_Bubble" data-name="Speech Bubble"><path class="cls-5" d="M482.23,169.67H227.06A25.34,25.34,0,0,0,201.73,195V340.76a25.33,25.33,0,0,0,25.33,25.34h106l34.25,43.74,32.51-43.74h82.41a25.33,25.33,0,0,0,25.34-25.34V195A25.34,25.34,0,0,0,482.23,169.67Z"/><path class="cls-6" d="M482.23,169.67s.5,0,1.47.06a22.75,22.75,0,0,1,4.27.58,22.3,22.3,0,0,1,3.07.91,26,26,0,0,1,3.53,1.6A24.76,24.76,0,0,1,502,179a26,26,0,0,1,5.19,11,35.77,35.77,0,0,1,.5,7v7.65c0,10.59,0,22.73,0,36.3,0,27.13,0,59.93,0,97.28,0,1.17,0,2.34,0,3.52,0,.59,0,1.19-.12,1.78l-.27,1.77a25.41,25.41,0,0,1-6.47,12.8,24.65,24.65,0,0,1-5.78,4.61,26.47,26.47,0,0,1-14.53,3.5H465.13l-65.31,0,.19-.1c-10.29,13.85-21.25,28.61-32.5,43.74l-.19.27-.2-.26-34.27-43.73.21.1H229.32c-1.08,0-2.14,0-3.23-.05l-1.62-.08-1.6-.24a25.27,25.27,0,0,1-11.69-5.18,26.1,26.1,0,0,1-7.71-10.1,26.9,26.9,0,0,1-1.69-6.14,22.49,22.49,0,0,1-.28-3.17c-.06-1.06,0-2.1,0-3.15V301c0-32.69,0-64.22,0-94.26v-11.2a25.62,25.62,0,0,1,18-24.95c.87-.22,1.73-.47,2.61-.65s1.76-.3,2.65-.38,1.78-.1,2.66-.11h33.44l74.32,0,107.61.08,29.25.05,7.61,0,2.59,0-2.59,0-7.61,0-29.25,0-107.61.09-74.32,0H227.41c-.88,0-1.75.08-2.62.12s-1.74.24-2.6.36-1.71.43-2.56.64A25.19,25.19,0,0,0,202,195.54c0,3.71,0,7.44,0,11.2,0,30,0,61.57,0,94.26v37.25a39.24,39.24,0,0,0,.31,6.24,24.6,24.6,0,0,0,9.21,15.91A24.69,24.69,0,0,0,223,365.47l1.57.24,1.59.08c1,.08,2.14,0,3.21,0H333.18l.08.1,34.25,43.74h-.4c11.25-15.13,22.22-29.89,32.52-43.73l.07-.1h.12l65.31,0h15.42a26,26,0,0,0,14.31-3.42A25.35,25.35,0,0,0,504.67,352a24.53,24.53,0,0,0,2.26-6.7l.27-1.74c.08-.58.07-1.17.11-1.75.09-1.16.05-2.34.06-3.51,0-37.35,0-70.15.06-97.28,0-13.57,0-25.71,0-36.3q0-4,0-7.65a35.38,35.38,0,0,0-.48-7,25.76,25.76,0,0,0-5.12-11,24.89,24.89,0,0,0-7.36-6.22,24.19,24.19,0,0,0-3.51-1.6,21,21,0,0,0-3.05-.93,23.26,23.26,0,0,0-4.26-.62Z"/><path class="cls-8" d="M309.3,236.23a22.49,22.49,0,0,0-26.62,11.68c-4.88-9.85-17.31-15.29-27.84-12.08-10.68,3.26-18,15-16.34,26,1.82,11.81,10.61,21,19.16,29.31,9.26,9,16.7,16.08,26.28,25.57h0c.13.2,22.46-24.42,22.46-24.42,7.89-9.58,16.32-17.58,19.23-30.07C328.16,251.36,320,239.48,309.3,236.23Z"/><path class="cls-8" d="M378.38,300.17v7.55H334.7v-5.9l24.75-23.88c6.42-6.26,7.64-10.08,7.64-13.9,0-6.25-4.43-10.07-12.94-10.07-6.51,0-11.81,2.08-15.54,6.6l-5.91-5.12c4.69-5.82,12.77-9.21,22.23-9.21,12.68,0,20.84,6.51,20.84,16.94,0,5.9-1.73,11.2-10,19.1l-18.58,17.89Z"/><path class="cls-8" d="M385.24,277.33c0-19.8,10.59-31.09,24.83-31.09s24.75,11.29,24.75,31.09-10.59,31.09-24.75,31.09S385.24,297.13,385.24,277.33Zm40.9,0c0-15.54-6.6-23.36-16.07-23.36s-16.15,7.82-16.15,23.36,6.6,23.36,16.15,23.36S426.14,292.87,426.14,277.33Z"/><path class="cls-8" d="M451.92,293.35l7.58,12.45h-2.34l-6.81-11.24-6.53,5-1.25,6.2h-2l6-29.91h2L444.34,297,460,284.76H463Z"/></g><g id="Plant"><polygon class="cls-8" points="279.64 142.98 283.74 169.93 307.57 169.93 313.1 143.37 279.64 142.98"/><path class="cls-2" d="M309.77,160.25c0,.08-6.11.14-13.64.14s-13.63-.06-13.63-.14,6.1-.14,13.63-.14S309.77,160.18,309.77,160.25Z"/><path class="cls-2" d="M309.86,158.93c0,.08-6.15.14-13.73.14s-13.72-.06-13.72-.14,6.14-.14,13.72-.14S309.86,158.85,309.86,158.93Z"/><path class="cls-2" d="M309.81,157.43c0,.08-6.15.14-13.72.14s-13.73-.06-13.73-.14,6.14-.14,13.73-.14S309.81,157.35,309.81,157.43Z"/><path class="cls-2" d="M286.48,168.39a21.08,21.08,0,0,1-.73-3.39,22.62,22.62,0,0,1-.46-3.44A20.16,20.16,0,0,1,286,165,21.2,21.2,0,0,1,286.48,168.39Z"/><path class="cls-2" d="M288.1,168.11a25.76,25.76,0,0,1-.29-3.31,25.05,25.05,0,0,1-.16-3.32,16.18,16.18,0,0,1,.43,3.3A15.47,15.47,0,0,1,288.1,168.11Z"/><path class="cls-2" d="M291.05,168.11a17.86,17.86,0,0,1-.62-3.4,17.22,17.22,0,0,1-.18-3.44,28.39,28.39,0,0,1,.46,3.41A28.68,28.68,0,0,1,291.05,168.11Z"/><path class="cls-2" d="M293.13,168.25a16.54,16.54,0,0,1-.33-3.45,16.91,16.91,0,0,1,.1-3.46,30.13,30.13,0,0,1,.18,3.45A29.47,29.47,0,0,1,293.13,168.25Z"/><path class="cls-2" d="M296.8,168.11a19.07,19.07,0,0,1-.25-3.28,19,19,0,0,1,0-3.28,20.15,20.15,0,0,1,.25,3.27A19.23,19.23,0,0,1,296.8,168.11Z"/><path class="cls-2" d="M299.48,168.25a19.86,19.86,0,0,1-.11-3.39,21.37,21.37,0,0,1,.16-3.38,20.26,20.26,0,0,1,.12,3.38A20.8,20.8,0,0,1,299.48,168.25Z"/><path class="cls-2" d="M302,167.89a24.08,24.08,0,0,1,.21-3.54,22.17,22.17,0,0,1,.48-3.51,24.12,24.12,0,0,1-.21,3.54A21.08,21.08,0,0,1,302,167.89Z"/><path class="cls-2" d="M305.23,167.54a12.43,12.43,0,0,1,.41-3,11.91,11.91,0,0,1,.88-2.91,26.19,26.19,0,0,1-.61,3A27.29,27.29,0,0,1,305.23,167.54Z"/><path class="cls-8" d="M276.91,137.65v5a2,2,0,0,0,2,2h34.5a2,2,0,0,0,2-2v-5Z"/><g class="cls-12"><polygon points="279.9 144.67 280.19 146.28 312.02 148.55 312.82 144.67 279.9 144.67"/></g><path class="cls-10" d="M282.1,137.67s-13.41-15.46-11.92-16,13.41,8,13.41,8-10.24-22.91-8.19-24.59,12.85,20.31,12.85,20.31-1.67-32,0-32.42,7.83,32,7.83,32,9.12-29.61,11.73-29.61-2.79,28.5-2.79,28.5,10.8-18.26,12.48-15.84-7.64,22.17-7.64,22.17,13.6-11.36,14.16-9.87-14.72,17.32-14.72,17.32Z"/><path class="cls-6" d="M280.23,114.39c.1,0,2.47,5.06,5.32,11.39s5.07,11.5,5,11.54-2.47-5.06-5.31-11.39S280.14,114.43,280.23,114.39Z"/><path class="cls-6" d="M291.07,117.24c.1,0,.49,4.48.88,10s.62,10.05.52,10.06-.5-4.49-.89-10S291,117.24,291.07,117.24Z"/><path class="cls-6" d="M306,102.89s0,.13-.08.36-.17.61-.29,1L304.52,108c-.95,3.15-2.22,7.52-3.51,12.37s-2.37,9.27-3.12,12.47c-.36,1.56-.66,2.84-.89,3.79-.1.42-.18.76-.25,1a1.62,1.62,0,0,1-.11.36,1.47,1.47,0,0,1,0-.37q.07-.42.18-1.05c.17-.9.43-2.21.78-3.82.68-3.22,1.72-7.65,3-12.51s2.61-9.21,3.62-12.35c.5-1.56.93-2.83,1.23-3.7q.22-.6.36-1A1.45,1.45,0,0,1,306,102.89Z"/><path class="cls-6" d="M312.48,119.4c.08.06-2.54,4-5.85,8.72s-6.07,8.57-6.15,8.51,2.53-4,5.85-8.72S312.39,119.34,312.48,119.4Z"/><path class="cls-6" d="M286.63,137.34a5,5,0,0,1-1.17-.83,32.22,32.22,0,0,1-2.55-2.36,32.86,32.86,0,0,1-2.3-2.61,5,5,0,0,1-.8-1.2c.08-.06,1.47,1.63,3.36,3.55S286.7,137.26,286.63,137.34Z"/><path class="cls-6" d="M294.78,131.2a14.44,14.44,0,0,1,.47,3.19,14.44,14.44,0,0,1,.11,3.22,14.44,14.44,0,0,1-.47-3.19A13.76,13.76,0,0,1,294.78,131.2Z"/></g><g id="Character_2" data-name="Character 2"><path class="cls-6" d="M428.71,43.4c-2.11-7.28-5.07-14.3-6.84-21.67l-12.36-.61c-2,2.82-2.06,6.64-1.19,10s2.54,6.44,3.77,9.68,2,6.84,1,10.16c-1.32,4.33-5.39,7.32-7.05,11.53s-.65,9.1.41,13.57a9.77,9.77,0,0,0,2,4.67c1.85,1.92,4.93,2,7.5,1.3,7.32-2,12.58-8.85,14.33-16.22S430.81,50.68,428.71,43.4Z"/><path class="cls-13" d="M414.86,56s-9.5.61-13.85,9.09c-.76,1.48-5.52,20.4-10.24,38.15C384.09,128.46,377.24,157,377.24,157l9.23,1.81s14-42.8,17.14-46.34c3-3.32,15.16-53.1,11.38-56.28"/><path class="cls-13" d="M375.73,162.4l-12,1.33-7.33,4.6s-.15,1.5,1.94,1.26l4.13-1.75-3.27,3.59s.79,1.43,2.59.43a10.34,10.34,0,0,0,2.91-2.52l7.22-.5s-5.46,5.25-4.45,6.61,1.65,1.08,2.44.58,1.22-2.23,3-2.81,4.76-2.25,8-3.77c2.76-1.31,5.57-10.68,5.57-10.68L377.24,157Z"/><path class="cls-14" d="M371,165.47a43.93,43.93,0,0,1-6.83,1.31l-.1,0,.16-.08a44.46,44.46,0,0,1-5,4.71,41.77,41.77,0,0,1,4.59-5.1l.06-.07h.09l.1,0A44.29,44.29,0,0,1,371,165.47Z"/><polygon class="cls-13" points="447.84 238.03 445.6 218.62 427.6 223.65 432.14 242.27 447.84 238.03"/><path class="cls-10" d="M448,238l3,22.63,7.56,17.21a2.33,2.33,0,0,1-1.34,3.14h0a2.31,2.31,0,0,1-2.13-.28c-4-2.75-18.49-13-18.62-14.64-.15-1.93-4.79-23.65-4.79-23.65Z"/><g class="cls-15"><path class="cls-5" d="M457.31,281l-21-16.44.15,1a3.53,3.53,0,0,0,1.18,2.12c1.7,1.46,6.48,5.38,17.46,13.1a2.39,2.39,0,0,0,2.2.26Z"/></g><g class="cls-15"><path class="cls-5" d="M439.8,256.5a1.41,1.41,0,0,1,.67,1.77,1.35,1.35,0,0,1-1.74.68,1.49,1.49,0,0,1-.7-1.87,1.41,1.41,0,0,1,1.89-.51"/></g><path class="cls-6" d="M450.6,271.91a5,5,0,0,1,4.21-3c0-.06-.3-.19-.84-.18a3.71,3.71,0,0,0-3.26,2.3C450.52,271.56,450.54,271.9,450.6,271.91Z"/><path class="cls-6" d="M452.68,274.68c.12.08.73-.77,1.84-1.29a21.6,21.6,0,0,1,2.16-.63,2.57,2.57,0,0,0-2.37.18C453,273.54,452.55,274.63,452.68,274.68Z"/><path class="cls-6" d="M447,268.51a24.1,24.1,0,0,1,2.72-2.17,22.22,22.22,0,0,1,3.22-1.31,5.15,5.15,0,0,0-3.48.87A5.21,5.21,0,0,0,447,268.51Z"/><path class="cls-6" d="M445.49,261.71c.09.12,1.25-.59,2.86-.91s3-.12,3-.27a4.52,4.52,0,0,0-3.09-.22A4.58,4.58,0,0,0,445.49,261.71Z"/><path class="cls-6" d="M444.43,255.09a11.5,11.5,0,0,1,2.95-1,11.11,11.11,0,0,1,3.11.28c0-.06-.26-.3-.83-.52a5,5,0,0,0-2.34-.26,5,5,0,0,0-2.21.82C444.61,254.74,444.39,255,444.43,255.09Z"/><path class="cls-6" d="M447.14,252.81a1.79,1.79,0,0,0-.1-.85,6,6,0,0,0-1-2.13,2.68,2.68,0,0,0-1.33-1.08.94.94,0,0,0-1,.37,1.54,1.54,0,0,0-.2,1.08,3.31,3.31,0,0,0,3.34,2.57,3.83,3.83,0,0,0,3.41-2.57,1.3,1.3,0,0,0-.11-1.1.93.93,0,0,0-1-.34,3.32,3.32,0,0,0-1.36,1,6.49,6.49,0,0,0-1.26,2,2,2,0,0,0-.23.83A11,11,0,0,1,448,250a3.15,3.15,0,0,1,1.21-.84.51.51,0,0,1,.57.17,1,1,0,0,1,0,.73,3.43,3.43,0,0,1-3,2.2,2.88,2.88,0,0,1-2.87-2.14,1.12,1.12,0,0,1,.1-.76.51.51,0,0,1,.56-.21,2.31,2.31,0,0,1,1.14.89A8.64,8.64,0,0,1,447.14,252.81Z"/><path class="cls-6" d="M503.29,126.77c-15.89-2.89-48.62,5.11-48.62,5.11l-7-8-36.9,0-6.4,15,17.46,26,4.06,15.34s17.27-2.74,16.54-2.65,11.08-2.45,11.8-2.55C483,171.11,498.4,159,507,150.38,515.79,141.58,509.33,127.87,503.29,126.77Z"/><path class="cls-10" d="M428.92,182.72c-.09-.52-.32-1.91-.79-4.78-.25-1.53-.57-3.39-1-5.54-.21-1.07-.44-2.21-.71-3.41-.14-.6-.28-1.22-.46-1.85-.09-.31-.18-.63-.3-.95a2.83,2.83,0,0,0-.49-.94l0,.23c6.85-2.43,15.41-5.64,24.54-9.49,5.61-2.39,10.9-4.8,15.56-7.31a50.09,50.09,0,0,0,6.39-4c1.89-1.4,3.58-2.8,5.16-4a28,28,0,0,1,8.1-4.75,13.11,13.11,0,0,1,1.41-.42,9.06,9.06,0,0,1,1.06-.23l.66-.12c.15,0,.22,0,.22-.05l-.22,0-.67.09a7,7,0,0,0-1.07.19,12.72,12.72,0,0,0-1.44.39,19.62,19.62,0,0,0-3.72,1.66,39.67,39.67,0,0,0-4.48,3c-1.59,1.21-3.29,2.6-5.18,4a50.83,50.83,0,0,1-6.37,3.91c-4.65,2.48-9.94,4.88-15.55,7.27-9.12,3.84-17.67,7.08-24.5,9.55l-.19.07.14.16a2.89,2.89,0,0,1,.43.84c.11.3.2.62.3.92.17.62.32,1.24.47,1.83.28,1.2.51,2.34.73,3.41.42,2.14.76,4,1,5.52s.5,2.69.65,3.52c.08.41.15.72.2.92A2.47,2.47,0,0,0,428.92,182.72Z"/><path class="cls-6" d="M406.2,126.84l-.33,4.89s-4.13,7.83-4.51,14.85c-.22,4.07-.31,10.08-.35,14.4a18.28,18.28,0,0,0,2.77,9.83L414.69,181l6.75,24.93L430.15,236l18-4.67L445.55,168c-.06-8.66-4-18.8-8.94-29.32l-1.71-13.93Z"/><path class="cls-10" d="M448.19,222.38a1.14,1.14,0,0,1,0-.27c0-.2,0-.47-.06-.79,0-.74-.12-1.76-.2-3-.15-2.69-.37-6.52-.63-11.23-.48-9.51-1.14-22.6-1.87-37-.23-3.61-.15-7.17-.92-10.47a29.08,29.08,0,0,0-3.66-9,28.73,28.73,0,0,0-5.74-6.67,27.84,27.84,0,0,0-6.49-4.11,29.46,29.46,0,0,0-10.8-2.65c-1.32-.06-2.35,0-3,0l-.79,0h-.28a21.36,21.36,0,0,1,4.12-.24,28.39,28.39,0,0,1,23.44,13.38,29.73,29.73,0,0,1,3.75,9.15c.79,3.38.71,7,.94,10.56.67,14.45,1.28,27.54,1.72,37.05.19,4.72.35,8.55.46,11.24,0,1.3.08,2.32.1,3.06,0,.32,0,.58,0,.79A1.1,1.1,0,0,1,448.19,222.38Z"/><path class="cls-10" d="M435.66,182.81a38.69,38.69,0,0,1,2.5-5.82,37.79,37.79,0,0,1,3-5.6,39.19,39.19,0,0,1-2.5,5.82A39.11,39.11,0,0,1,435.66,182.81Z"/><path class="cls-10" d="M423.08,174.18a9.07,9.07,0,0,1,1.27,2.72,8.92,8.92,0,0,1,.79,2.89,8.69,8.69,0,0,1-1.28-2.71A8.83,8.83,0,0,1,423.08,174.18Z"/><path class="cls-10" d="M414,166.7a1.77,1.77,0,0,1,.06.51q0,.58.09,1.44c.07,1.34.17,3.13.29,5.32.07,4.5,1.42,10.57,2.95,17.25s3.16,12.68,4.45,17c.63,2.15,1.21,3.87,1.61,5.06a16.79,16.79,0,0,1,.63,1.85,1.67,1.67,0,0,1-.24-.45c-.14-.3-.35-.74-.58-1.33-.46-1.17-1.1-2.88-1.77-5-1.38-4.28-3-10.28-4.61-17s-2.83-12.82-2.81-17.35c-.09-2.25-.11-4.07-.12-5.33,0-.58,0-1.06,0-1.45A1.88,1.88,0,0,1,414,166.7Z"/><path class="cls-10" d="M454.9,135.51c0,.08-1,.53-2.43,1.64a16.31,16.31,0,0,0-4.39,5.4,21.45,21.45,0,0,0-2,6.72c-.24,1.8-.25,2.93-.34,2.93a2.53,2.53,0,0,1-.09-.8,17.72,17.72,0,0,1,.07-2.17,19,19,0,0,1,1.92-6.91,15,15,0,0,1,4.64-5.46,10.41,10.41,0,0,1,1.89-1.09A2.21,2.21,0,0,1,454.9,135.51Z"/><path class="cls-10" d="M481.92,134.14c.1.12-1.51,1.43-3.1,3.4s-2.58,3.79-2.72,3.72a14,14,0,0,1,5.82-7.12Z"/><path class="cls-10" d="M439.16,147.86c-.08,0,0-1.28-.05-3.34a55.74,55.74,0,0,0-.95-8c-.57-3-1.09-5.76-1.5-7.94a21.27,21.27,0,0,1-.49-3.32,20.94,20.94,0,0,1,.85,3.24c.45,2,1.09,4.81,1.66,7.93a44.79,44.79,0,0,1,.8,8.07c0,1-.08,1.88-.14,2.46A2.73,2.73,0,0,1,439.16,147.86Z"/><path class="cls-10" d="M439.1,126.49s.09-.13.33-.2a1.55,1.55,0,0,1,1.87,1.49,1.71,1.71,0,0,1-1.11,1.59,1.61,1.61,0,0,1-1.84-.62,1.52,1.52,0,0,1-.1-1.58,1.49,1.49,0,0,1,.79-.69c.24-.08.38,0,.38,0s-.54.18-.84.87a1.15,1.15,0,0,0,.16,1.14,1.13,1.13,0,0,0,1.28.4,1.26,1.26,0,0,0,.8-1.11,1.14,1.14,0,0,0-.54-1A2.17,2.17,0,0,0,439.1,126.49Z"/><path class="cls-14" d="M425.87,84.48a5.88,5.88,0,0,1-.19-3.43A5.89,5.89,0,0,1,427,77.87c.14.07-.48,1.45-.77,3.27S426,84.45,425.87,84.48Z"/><path class="cls-6" d="M450.63,93a21.75,21.75,0,0,1-1.6-4.87,22.14,22.14,0,0,1-.9-5,30.78,30.78,0,0,1,1.4,4.92A31,31,0,0,1,450.63,93Z"/><path class="cls-13" d="M441.39,54.7H419.78L414.86,56v.62s1.13,29.1,8.72,32.81S454.9,59.86,454.9,59.86Z"/><path class="cls-8" d="M450.49,58.18l2.18.83c-7.29,26.7-1,64.56-1,64.56l-45.51,3.27s-3.59-.66-4.57-3.92,10.44-66.44,10.44-66.44l2.11-.45s7.49,27.34,11.41,28.48S450.49,58.18,450.49,58.18Z"/><g class="cls-9"><path d="M451.68,119.06c-2.35.6-17.5-4.49-19.92-4.61-2.2-.12-4.3.79-6.42,1.37a22.1,22.1,0,0,1-14-.85,3.67,3.67,0,0,1-1.41-.87,1.78,1.78,0,0,1-.27-1.76c4.09,0,8.17.13,12.26.09a4.56,4.56,0,0,0,2.43-.48,1,1,0,0,0,.43-.44s2.45-.08,3.32-.09c2,0,4.24.15,6.21.15.86,0,3.62.11,3.56.11"/></g><g class="cls-9"><path d="M428.09,92a9.55,9.55,0,0,0,3,5.87,7.87,7.87,0,0,0,6.2,2A6.72,6.72,0,0,0,442.43,96a13.26,13.26,0,0,1-14.23-3.67"/></g><path class="cls-6" d="M443.59,95.1s-.18.21-.57.47a9.28,9.28,0,0,1-1.8.9,10.9,10.9,0,0,1-12.18-3,9.52,9.52,0,0,1-1.15-1.65c-.23-.41-.32-.66-.29-.68s.56.89,1.71,2.08a11.33,11.33,0,0,0,11.79,2.95C442.68,95.62,443.54,95,443.59,95.1Z"/><polygon class="cls-10" points="419.12 97.81 414.36 87.55 397.99 86.52 397.41 87.47 409.83 111.38 424.78 111.51 419.12 97.81"/><path class="cls-10" d="M418.54,98.76,413.78,88.5l-16.37-1,11.84,24.87,13.27.09a3.14,3.14,0,0,0,2.14-.81l.12-.11Z"/><path class="cls-1" d="M406.13,92.3a.81.81,0,0,0,1.16,0,.82.82,0,1,0-1.16,0Z"/><path class="cls-13" d="M437.8,101.3l-6.4-1.64a9,9,0,0,0-6.78-3.79l-2.26-.14-1.66,1.64s-11.1-.21-11.59,1.13l0,.44,0,.26,9.43,1.23s-8.06-.53-8.54-.54-2.24-.28-2.26.67c0,.78.86,1.45,2.24,1.74.57.12,7.51,1.16,7.51,1.16l-7.68-.55c-.86-.06-.84,1.33-.34,1.53s10.06,3.65,10.06,3.65a6,6,0,0,1-3.07.83c-1.35-.19-3.55-2.07-4.09-1.28s-.46,1.28-.19,1.49a35.53,35.53,0,0,0,4.4,2.41c1.05.35,11.77-.18,11.77-.18l10,2.64Z"/><path class="cls-14" d="M416.93,97.27a31.05,31.05,0,0,1,3.89.1,32.81,32.81,0,0,1,3.88.34,28.91,28.91,0,0,1-3.89-.1A30.2,30.2,0,0,1,416.93,97.27Z"/><path class="cls-6" d="M417.64,96.81s-.12-.21-.3-.61-.47-1-.79-1.71l-2.66-5.92.06,0-3.75-.24-9.05-.6-2.74-.2-.74-.06a1.11,1.11,0,0,1-.26,0h.26l.75,0,2.74.15,9,.56,3.75.24H414v.05c1,2.35,1.94,4.4,2.62,5.95.3.68.54,1.26.74,1.72S417.64,96.81,417.64,96.81Z"/><path class="cls-13" d="M454.9,59.86s3.83,1.25,5.5,7.48c2,7.3,10.4,45.85,9.05,50-1.05,3.19-1.93,5.19-6.35,5S438.3,114,438.3,114l-.5-12.7,16,1.82-4.71-15.65L450.63,65Z"/><path class="cls-14" d="M462,110.81a6.12,6.12,0,0,1-1-1.44,24.19,24.19,0,0,0-2.43-3.36,9.68,9.68,0,0,0-3.3-2.38c-1-.41-1.63-.52-1.62-.6a3.33,3.33,0,0,1,1.75.26,8.38,8.38,0,0,1,3.55,2.37,16.56,16.56,0,0,1,2.37,3.53A5.45,5.45,0,0,1,462,110.81Z"/><path class="cls-6" d="M422,8.59c0-1.55-1.79-2.65-3.32-2.39a5.12,5.12,0,0,0-3.44,2.88c-.71,1.37-1.54,3.28-2.38,4.57-3.38,5.18-4,6.9-5,10.94-.74,2.84-.06,6,.7,8.8A39,39,0,0,0,412,41.46a30.88,30.88,0,0,1,2.26,4.8,8.36,8.36,0,0,1,.15,5.23,1,1,0,0,0-.06.7c.15.33.62.34,1,.25a4.91,4.91,0,0,0,3.33-4,10.59,10.59,0,0,0-.81-5.4c-.65-1.72-1.49-3.38-2-5.16-1.05-3.88-.32-8-.14-12a44,44,0,0,1,.48-6.79,8.89,8.89,0,0,1,3.39-5.71,12.78,12.78,0,0,0,2.2-1.47,1.88,1.88,0,0,0,.37-2.39"/><path class="cls-13" d="M420.68,52.44s.05-2.35.05-2.32-7-1.33-8.18-10.47c-.62-4.55-.21-12,.31-18,.48-5.46,4.26-12.08,9.69-11.37l16.9,4.7c1.66.21,2.2,1.62,2.13,3.29l.12.78-1.41,26.07-.49,4.36c-.24,5-4.9,18.55-10.21,18.69h0C424.46,68.4,420.68,66.05,420.68,52.44Z"/><path class="cls-6" d="M415.57,28.53a1.16,1.16,0,0,0,1.1,1.21,1.11,1.11,0,0,0,1.22-1,1.16,1.16,0,0,0-1.09-1.21A1.11,1.11,0,0,0,415.57,28.53Z"/><path class="cls-6" d="M427.55,29.22a1.16,1.16,0,0,0,1.09,1.2,1.11,1.11,0,0,0,1.23-1,1.16,1.16,0,0,0-1.09-1.21A1.11,1.11,0,0,0,427.55,29.22Z"/><path class="cls-6" d="M414.43,25.76c.14.16,1-.47,2.3-.44s2.16.68,2.3.53-.07-.34-.47-.64a3.2,3.2,0,0,0-3.67-.08C414.5,25.42,414.36,25.69,414.43,25.76Z"/><path class="cls-6" d="M426.78,26.65c.14.15,1-.48,2.3-.45s2.16.69,2.3.54-.07-.35-.47-.65a3.23,3.23,0,0,0-1.84-.62,3.06,3.06,0,0,0-1.83.55C426.85,26.31,426.71,26.58,426.78,26.65Z"/><path class="cls-6" d="M422,35.26a8.13,8.13,0,0,0-2-.42c-.32,0-.62-.11-.67-.33a1.67,1.67,0,0,1,.23-.95c.32-.77.66-1.57,1-2.42a42.86,42.86,0,0,0,2.29-6.34A41.31,41.31,0,0,0,420,30.94l-1,2.44a1.88,1.88,0,0,0-.2,1.26.8.8,0,0,0,.52.48,2.34,2.34,0,0,0,.54.09A8.1,8.1,0,0,0,422,35.26Z"/><path class="cls-14" d="M420.73,50.12a23.17,23.17,0,0,0,12.28-3s-3.23,6.36-12.33,5.29Z"/><path class="cls-6" d="M426.8,22.26c.15.33,1.39.1,2.88.18s2.7.42,2.87.1c.08-.15-.15-.46-.65-.76a4.7,4.7,0,0,0-2.16-.61,4.62,4.62,0,0,0-2.22.4C427,21.82,426.74,22.1,426.8,22.26Z"/><path class="cls-6" d="M414.62,21.89c.25.29,1.29,0,2.52,0s2.27.25,2.52,0-.05-.44-.5-.72a4.26,4.26,0,0,0-4.06,0C414.66,21.46,414.51,21.75,414.62,21.89Z"/><path class="cls-14" d="M423.2,37.79a1.93,1.93,0,0,1,1.43-.71,2.23,2.23,0,0,1,1.63.78l0,0,.06.06h0a1.1,1.1,0,0,1,.28.62,1.59,1.59,0,0,1-.68,1.32,2,2,0,0,1-2.3.09A1.64,1.64,0,0,1,423.2,37.79Z"/><path class="cls-6" d="M426.15,36.68c-.07,0-.13.29-.33.7a3,3,0,0,1-1.15,1.29,3,3,0,0,1-1.68.4c-.46,0-.75-.1-.78,0s.23.27.74.38a2.74,2.74,0,0,0,3.19-1.91C426.28,37,426.21,36.68,426.15,36.68Z"/><path class="cls-6" d="M420.47,10.38a2.82,2.82,0,0,1-1,2.46,13.75,13.75,0,0,1-2.29,1.55c-2.43,1.51-3.62,4.82-4.76,7.45-2-3.81,1.08-8.75,3.62-11.72a5.52,5.52,0,0,1,1.58-1.39,2.36,2.36,0,0,1,2-.12"/><path class="cls-6" d="M450,53.29c-5.34-16.18,1.22-19.09-.76-29.45-.81-4.26-5.1-10.47-8-13.69a19,19,0,0,0-13.82-5.87,9.13,9.13,0,0,0-5.48,1.33,4.27,4.27,0,0,0-1.69,5l.14,1.21c1.08,2,3.67,2.62,6,2.74s4.77.06,6.6,1.43c1.55,1.15,2.28,3.06,2.93,4.87,2.1,5.78-2.93,8.2,2.58,10.5,3.16,1.32-.36,6.85-2.22,12.84l0-.05a73.8,73.8,0,0,0-2.53,28.26c.51,4.41,1.56,9.12,4.89,12A10.28,10.28,0,0,0,444.61,87a9.47,9.47,0,0,1,0-4.9c1.43,1.2,1.5,3.08,3.3,3.56-1.28-2,.64-5.68,1.5-7.91s2.26-4.22,3.17-6.44l0-1.26A49.12,49.12,0,0,0,450,53.38Z"/><path class="cls-13" d="M438.75,32.16A2.67,2.67,0,0,1,442.69,30c.91.56,1.6,1.64,1.47,3.7-.35,5.48-5.78,4-5.78,3.85S438.59,34.43,438.75,32.16Z"/><path class="cls-6" d="M440.18,35.56s.1.07.25.16a1,1,0,0,0,.72.05,2.35,2.35,0,0,0,1.22-2.05,3.09,3.09,0,0,0-.18-1.38,1.1,1.1,0,0,0-.67-.78.48.48,0,0,0-.58.23c-.09.14-.06.26-.09.26s-.11-.1-.05-.32a.6.6,0,0,1,.24-.33.71.71,0,0,1,.53-.11,1.37,1.37,0,0,1,.95.92,3.25,3.25,0,0,1,.23,1.55A2.48,2.48,0,0,1,441.21,36a1,1,0,0,1-.86-.2C440.19,35.69,440.16,35.57,440.18,35.56Z"/><path class="cls-5" d="M438.09,39.3a.57.57,0,0,0,0,.31,1.25,1.25,0,0,0,.5.67,1.36,1.36,0,0,0,1.23.14,1.78,1.78,0,0,0,1.08-1.07,2.47,2.47,0,0,0,.09-1.51,2.61,2.61,0,0,0-.56-1.09,1.41,1.41,0,0,0-1-.54,2.8,2.8,0,0,1,.83.66,2.53,2.53,0,0,1,.48,1,2.46,2.46,0,0,1-.1,1.36,1.62,1.62,0,0,1-.93.94,1.2,1.2,0,0,1-1.55-.63C438.13,39.41,438.12,39.3,438.09,39.3Z"/><path class="cls-10" d="M421.54,11.22a8,8,0,0,1,1.16-1,6.33,6.33,0,0,1,4-.84,7.5,7.5,0,0,1,2.71.82,10.57,10.57,0,0,1,2.58,2,18.2,18.2,0,0,1,2.19,2.9c.67,1.07,1.27,2.24,1.9,3.43A38.85,38.85,0,0,0,438,22a16.51,16.51,0,0,0,2.33,2.84c.84.83,1.67,1.56,2.39,2.3a10.67,10.67,0,0,1,1.74,2.27,5.84,5.84,0,0,1,.69,4,4.75,4.75,0,0,1-.6,1.39,1.62,1.62,0,0,0,.24-.31,3.94,3.94,0,0,0,.46-1.05,5.87,5.87,0,0,0-.64-4.1A10.34,10.34,0,0,0,442.89,27c-.72-.76-1.55-1.5-2.37-2.32a16.14,16.14,0,0,1-2.3-2.82c-.69-1.06-1.31-2.21-1.94-3.4s-1.23-2.37-1.91-3.45a18.07,18.07,0,0,0-2.23-2.93,10.59,10.59,0,0,0-2.65-2,7.68,7.68,0,0,0-2.8-.8,6.21,6.21,0,0,0-4,.93,4.37,4.37,0,0,0-.86.75A2.71,2.71,0,0,0,421.54,11.22Z"/></g><g id="Character_1" data-name="Character 1"><path class="cls-6" d="M184.82,172.85A24.65,24.65,0,0,0,182,184.71a14.48,14.48,0,0,0,5.2,10.74,3.14,3.14,0,0,0,2.16.83c.78-.1,1.48-1,1.11-1.68a10.23,10.23,0,0,0,2.7,3.08,1.88,1.88,0,0,0,1.25.49,1.39,1.39,0,0,0,1.08-1.43,4,4,0,0,0-.63-1.84,4.42,4.42,0,0,1,2.2.89c.71.37,1.75.48,2.17-.2s0-1.39-.4-2c-1.76-2.76-3.53-5.66-3.82-8.92-.21-2.31.35-4.68-.13-7a7.93,7.93,0,0,0-5.54-5.88c-1.57-.43-3.48-.26-4.52,1"/><path class="cls-6" d="M167.52,191.05c-1.57-2.14-4.57-2.85-5.82-5.19-2.21-4.13-1.92-8-1.76-12.62.11-3.21-.2-7.75,1.76-10.28,1.38-1.79,2.37-2.87,3.6-4.76,1.36-2.07,2.77-4.53,1.45-6.62"/><path class="cls-6" d="M168.16,191.1a4.64,4.64,0,0,0-3.55-1.41,4.58,4.58,0,0,0-1.91.52l4.05-39.14c-1.77-.24-5.94,2.15-7.11,3.5a16.18,16.18,0,0,0-2.56,4.69c-2.79,6.79-4.33,13.61-1.24,19.79l-.17,2.89a15.23,15.23,0,0,0,4.64,11.7l.05.05c.14.14.29.3.45.45a4.46,4.46,0,0,1,1.24,3.83V198a4.54,4.54,0,0,0-.1,1.22,1.16,1.16,0,0,0,.66,1c.62.24,1.28-.32,1.56-.93a7.45,7.45,0,0,1,.8-1.82,21.22,21.22,0,0,1,1,2.22c.41.71,1.36,1.27,2,.79a1.84,1.84,0,0,0,.56-.85,12.1,12.1,0,0,0,1.07-4.37A5.92,5.92,0,0,0,168.16,191.1Z"/><path class="cls-7" d="M189.33,168l-1.25,34a10.13,10.13,0,0,1-11,9.71h0a9.8,9.8,0,0,1-8.92-10.4c.1-2.56,0-5.59,0-5.85,0,0-8.51-1.91-8.82-10.5-.15-4.15,0-11.12.4-18.87A16,16,0,0,1,175.38,151l.83,0C185.16,151.27,189.89,159.05,189.33,168Z"/><path class="cls-11" d="M168.17,195.47A19.93,19.93,0,0,0,179.29,192s-2.5,6.24-11.09,5.67Z"/><path class="cls-6" d="M162.28,172.83a1.22,1.22,0,0,0,1.21,1.21,1.17,1.17,0,0,0,1.24-1.13,1.23,1.23,0,0,0-1.21-1.21A1.17,1.17,0,0,0,162.28,172.83Z"/><path class="cls-6" d="M161.72,170.23c.16.16,1.07-.55,2.39-.58s2.3.61,2.44.45-.09-.36-.52-.66a3.29,3.29,0,0,0-2-.55,3.22,3.22,0,0,0-1.9.66C161.77,169.87,161.64,170.16,161.72,170.23Z"/><path class="cls-6" d="M174.84,172.83a1.24,1.24,0,0,0,1.22,1.21,1.16,1.16,0,0,0,1.23-1.13,1.22,1.22,0,0,0-1.21-1.21A1.18,1.18,0,0,0,174.84,172.83Z"/><path class="cls-6" d="M174.7,170.17c.16.16,1.07-.55,2.39-.58s2.3.61,2.44.45-.09-.36-.52-.66a3.43,3.43,0,0,0-2-.55,3.22,3.22,0,0,0-1.9.66C174.76,169.81,174.62,170.1,174.7,170.17Z"/><path class="cls-6" d="M170.14,180.07a9.45,9.45,0,0,0-2.15-.33c-.34,0-.66-.09-.72-.32a1.62,1.62,0,0,1,.2-1c.3-.82.61-1.69.93-2.59a46,46,0,0,0,2.09-6.77,43.86,43.86,0,0,0-2.63,6.59c-.31.9-.61,1.77-.89,2.6a1.91,1.91,0,0,0-.14,1.33.83.83,0,0,0,.56.48,2.08,2.08,0,0,0,.58.06A8.23,8.23,0,0,0,170.14,180.07Z"/><path class="cls-6" d="M174.05,180.9c-.22,0-.19,1.42-1.39,2.47s-2.73.92-2.74,1.12.35.27,1,.27a3.54,3.54,0,0,0,2.29-.85,3.1,3.1,0,0,0,1.07-2.07C174.31,181.24,174.14,180.89,174.05,180.9Z"/><path class="cls-6" d="M174.85,166c.14.36,1.45.16,3,.31s2.81.54,3,.21c.09-.15-.14-.48-.65-.82a5.24,5.24,0,0,0-4.58-.4C175.07,165.5,174.79,165.78,174.85,166Z"/><path class="cls-6" d="M162.12,166.4c.24.29,1.14,0,2.23-.08s2,.16,2.23-.16c.09-.16-.06-.45-.47-.73a3.14,3.14,0,0,0-1.83-.45,3.05,3.05,0,0,0-1.77.65C162.13,165.94,162,166.26,162.12,166.4Z"/><path class="cls-6" d="M202,180c-.26-1.64-.43-3.3-.6-5-.3-2.87-6.39-13.24-6.39-13.24-1.94-4.08-4.23-8.08-7.51-11.15s-7.65-5.13-12.08-4.78-8.76,3.5-9.76,7.92l.75-1.12c-.17,1.57,1.5,2.75,3,2.88s3.06-.43,4.6-.48a9.26,9.26,0,0,1,7.57,4.3,19.38,19.38,0,0,1,2.86,8.64c.38,3.05.42,6.13.87,9.16.48,3.26,2.32,4.38,4.76,6.52a47.84,47.84,0,0,1,6.36,6.84,4.18,4.18,0,0,0,3.37,1.44c1-.21,1.24-1.65,1.37-2.65s-.56-2.2-.61-3.71a3.18,3.18,0,0,0,1.64-2.5A10.59,10.59,0,0,0,202,180Z"/><path class="cls-7" d="M188,176.27c.15-.07,5.87-1.89,5.82,4s-5.94,4.61-6,4.44S188,176.27,188,176.27Z"/><path class="cls-11" d="M189.7,182.49s.1.07.28.16a1.06,1.06,0,0,0,.76,0,2.55,2.55,0,0,0,1.19-2.26,3.44,3.44,0,0,0-.27-1.47,1.2,1.2,0,0,0-.77-.8.52.52,0,0,0-.6.28c-.08.16,0,.28-.08.29s-.12-.1-.07-.34a.61.61,0,0,1,.23-.37.77.77,0,0,1,.57-.14,1.41,1.41,0,0,1,1.06.92,3.49,3.49,0,0,1,.34,1.64,2.65,2.65,0,0,1-1.51,2.52,1.09,1.09,0,0,1-.94-.16C189.71,182.63,189.68,182.5,189.7,182.49Z"/><path class="cls-10" d="M198.72,187.51l.12-.11a3.72,3.72,0,0,0,.3-.36,6,6,0,0,0,.89-1.56,8.55,8.55,0,0,0-.15-6.49,13,13,0,0,0-2.5-3.83,46.66,46.66,0,0,0-3.91-3.46,13.41,13.41,0,0,1-1.92-2,9.31,9.31,0,0,1-1.33-2.54,34.9,34.9,0,0,1-1.14-6,18.24,18.24,0,0,0-1.81-6,12.35,12.35,0,0,0-3.76-4.4A9.65,9.65,0,0,0,178.6,149a11.51,11.51,0,0,0-4.53.61,17.9,17.9,0,0,0-3.42,1.58,7.71,7.71,0,0,0-2.21,1.79,3.47,3.47,0,0,0-.79,1.61,2,2,0,0,0,0,.63s0-.22.09-.61a3.55,3.55,0,0,1,.82-1.53,8.28,8.28,0,0,1,2.21-1.69,18.22,18.22,0,0,1,3.39-1.49,11.41,11.41,0,0,1,4.41-.55,9.42,9.42,0,0,1,4.71,1.8,12,12,0,0,1,3.62,4.29,18,18,0,0,1,1.76,5.81,33.75,33.75,0,0,0,1.17,6.1,9.15,9.15,0,0,0,1.4,2.64,13.78,13.78,0,0,0,2,2.05,44.19,44.19,0,0,1,3.91,3.4,12.88,12.88,0,0,1,2.48,3.71,8.46,8.46,0,0,1,.28,6.31A9.25,9.25,0,0,1,198.72,187.51Z"/><path class="cls-10" d="M190.64,245.26l-10.81,51.56,21.91-.25L211,250.82l19.44-.22a2.89,2.89,0,0,0,2.86-2.93h0a2.89,2.89,0,0,0-2.93-2.86Z"/><path class="cls-8" d="M46.72,370.45,44,388.33s-19.1,3.21-19.93,6.47l34.48,6.56L64,373.68Z"/><g class="cls-9"><path d="M46.72,370.45,44,388.33s-19.1,3.21-19.93,6.47l34.48,6.56L64,373.68Z"/></g><path class="cls-6" d="M54.92,388.86a1.45,1.45,0,0,1,.67,1.8,1.38,1.38,0,0,1-1.77.67,1.51,1.51,0,0,1-.7-1.9,1.43,1.43,0,0,1,1.92-.5"/><path class="cls-6" d="M58.53,401.36l.52-2.68-33.3-5.37s-1.66.37-1.7,1.49Z"/><path class="cls-6" d="M43.45,388.05c0,.17.8.4,1.53,1.1s1,1.49,1.2,1.46.1-1.06-.8-1.89S43.44,387.89,43.45,388.05Z"/><path class="cls-6" d="M39.55,388.85c-.07.16.6.58,1,1.41s.46,1.6.63,1.63.46-.91-.11-1.92S39.58,388.69,39.55,388.85Z"/><path class="cls-6" d="M36.67,392.79c.15.07.54-.73.29-1.74s-1-1.52-1.08-1.39.3.71.5,1.54S36.51,392.74,36.67,392.79Z"/><path class="cls-6" d="M44.53,384c0,.17.86.08,1.79.33s1.63.69,1.74.56-.48-.87-1.59-1.14S44.47,383.89,44.53,384Z"/><path class="cls-8" d="M58.36,371.44l-2.75,17.87s-19.09,3.22-19.92,6.47l34.47,6.57,5.42-27.68Z"/><path class="cls-6" d="M66.56,389.85a1.42,1.42,0,0,1,.66,1.79,1.37,1.37,0,0,1-1.77.68,1.51,1.51,0,0,1-.69-1.9,1.43,1.43,0,0,1,1.92-.5"/><path class="cls-6" d="M70.16,402.35l.53-2.68L37.38,394.3s-1.66.37-1.69,1.48Z"/><path class="cls-6" d="M55.09,389c0,.17.8.41,1.52,1.11s1,1.49,1.2,1.45.1-1.06-.79-1.89S55.08,388.87,55.09,389Z"/><path class="cls-6" d="M51.19,389.84c-.07.16.6.58,1,1.4s.46,1.61.63,1.63.45-.91-.11-1.92S51.22,389.68,51.19,389.84Z"/><path class="cls-6" d="M48.31,393.78c.15.06.54-.74.28-1.74s-1-1.52-1.07-1.39.3.71.49,1.54S48.15,393.73,48.31,393.78Z"/><path class="cls-6" d="M56.16,385c.05.16.86.08,1.8.33s1.63.68,1.74.55-.48-.86-1.59-1.13S56.11,384.88,56.16,385Z"/><path class="cls-6" d="M139.3,278.6s-62.69,1-68.31.78c-11.89-.54-16.53,7.49-18.16,18.88-.5,3.48-9.47,79.95-9.47,79.95l21.71,4.49L79.8,313.18s57.94,2.08,63.41,3c6.67,1.14,15.86,4.69,20.88.79s8.06-23.87,8.06-23.87Z"/><path class="cls-6" d="M144.16,278.58s-56.17.92-61.8.67c-11.89-.54-16.53,7.49-18.16,18.88-.5,3.49-9.46,82.27-9.46,82.27l21.16,4.71,15.27-72.05s57.94,2.07,63.41,3c6.67,1.14,15.86,4.69,20.88.79S183.52,293,183.52,293Z"/><path class="cls-10" d="M86.71,279.29h-.3l-.88,0c-.77,0-1.9,0-3.36.18a36.09,36.09,0,0,0-5.23.91,23.31,23.31,0,0,0-3.15,1,13.19,13.19,0,0,0-3.24,1.76,6.69,6.69,0,0,0-1.38,1.38,14.25,14.25,0,0,0-1,1.79,22.74,22.74,0,0,0-1.54,4.13,79,79,0,0,0-1.68,9.66C64,307,63,314.5,62,322.42c-1.92,15.87-3.57,30.24-4.93,40.62-.67,5.19-1.25,9.39-1.67,12.29-.22,1.42-.39,2.54-.51,3.33-.06.36-.1.65-.14.86a1.21,1.21,0,0,1-.06.3,1.35,1.35,0,0,1,0-.3c0-.22.06-.51.1-.87l.42-3.35c.37-2.93.9-7.12,1.54-12.3,1.24-10.41,2.93-24.77,4.81-40.63,1-7.93,1.93-15.47,2.89-22.33a76.89,76.89,0,0,1,1.73-9.69,22.72,22.72,0,0,1,1.59-4.19,15.64,15.64,0,0,1,1.09-1.82,7.32,7.32,0,0,1,1.45-1.44,13.72,13.72,0,0,1,3.32-1.77,24,24,0,0,1,3.19-1,34.33,34.33,0,0,1,5.28-.84A22.72,22.72,0,0,1,86.71,279.29Z"/><path class="cls-8" d="M167.49,204.55l21.09-5.84s11.12,5.72,12.13,7,8,7.48,7.94,16.29c-.06,5.49-4.81,25.34-4.81,25.34l-17.61,30.92-5.43,15.24-26.31.06-10.33-14.94s-1.31-3.09,2.12-7.86,8.81-12.83,8.81-12.83,1.59-9.67,3.29-13.23,1.31-5,1.31-5-1-9.67,0-14.48S163.36,209.21,167.49,204.55Z"/><path class="cls-6" d="M154.93,257.89a3.35,3.35,0,0,1,.06-.52c0-.34.12-.84.24-1.48.23-1.28.59-3.13,1.16-5.39a62.76,62.76,0,0,1,2.57-7.8,10.2,10.2,0,0,0,.73-4.64c-.06-1.65-.34-3.36-.44-5.15A47.35,47.35,0,0,1,162,215a43,43,0,0,1,2.18-5.1c.29-.59.55-1,.72-1.34a2.35,2.35,0,0,1,.28-.45,2.54,2.54,0,0,1-.21.49c-.13.32-.37.77-.63,1.37a51.82,51.82,0,0,0-2,5.12,48.94,48.94,0,0,0-2.57,17.81c.09,1.75.37,3.47.43,5.16a10.49,10.49,0,0,1-.79,4.79,67.21,67.21,0,0,0-2.64,7.73c-.62,2.24-1,4.08-1.3,5.35-.13.6-.24,1.09-.33,1.46A1.72,1.72,0,0,1,154.93,257.89Z"/><path class="cls-6" d="M162.37,220.78a48,48,0,0,0-1.07,15.89,40.08,40.08,0,0,1,9.73,3l.93-16.3a1.25,1.25,0,0,0-.24-1,1.22,1.22,0,0,0-.7-.26l-8.81-1.32"/><path class="cls-10" d="M201.92,289.64l-1.09,40.95-91.83.28a9,9,0,0,1-9-8.87h0a9,9,0,0,1,8.67-9.06l7.94-.26-.43-17.44a4.57,4.57,0,0,1,4.52-4.68Z"/><rect class="cls-10" x="162.53" y="319.47" width="5.37" height="54.06" transform="translate(334.34 691.12) rotate(179.35)"/><rect class="cls-10" x="91.89" y="369.2" width="76.29" height="4.51" transform="translate(264.26 741.41) rotate(179.35)"/><path class="cls-3" d="M161,404.33a51.65,51.65,0,1,1,.59,0ZM161,303h-.58A50.25,50.25,0,0,0,125.9,389.2,50.25,50.25,0,1,0,161,303Z"/><path class="cls-3" d="M135.47,354l25.23-.32s-11.3.11-25.23.28l-25.23.32S121.54,354.16,135.47,354Z"/><path class="cls-3" d="M135.86,358.17c13.72-2.43,24.85-4.4,24.84-4.41l-24.85,4.37c-13.72,2.42-24.84,4.4-24.84,4.41Z"/><path class="cls-3" d="M136.92,362.22l23.79-8.43s-10.66,3.75-23.8,8.39-23.78,8.42-23.78,8.43Z"/><path class="cls-3" d="M138.64,366l22.08-12.21s-9.9,5.44-22.1,12.18l-22.08,12.21S126.44,372.77,138.64,366Z"/><path class="cls-3" d="M141,369.52l19.8-15.65s-8.88,7-19.82,15.62l-19.79,15.64S130,378.15,141,369.52Z"/><path class="cls-3" d="M143.8,372.58c9.4-10.3,17-18.65,17-18.65s-7.63,8.33-17,18.62-17,18.64-17,18.65S134.41,382.87,143.8,372.58Z"/><path class="cls-3" d="M147.11,375.13c7.6-11.68,13.75-21.15,13.74-21.16s-6.17,9.46-13.77,21.15-13.75,21.15-13.74,21.15S139.51,386.81,147.11,375.13Z"/><path class="cls-3" d="M150.79,377.12c5.59-12.77,10.11-23.12,10.1-23.12s-4.54,10.34-10.13,23.11-10.11,23.11-10.11,23.11S145.2,389.88,150.79,377.12Z"/><path class="cls-3" d="M154.74,378.48C158.16,365,160.92,354,160.92,354s-2.79,10.94-6.21,24.46-6.18,24.46-6.17,24.46S151.33,392,154.74,378.48Z"/><path class="cls-3" d="M158.87,379.16C160,365.27,161,354,161,354s-1,11.25-2.12,25.14-2.1,25.14-2.09,25.14S157.71,393.05,158.87,379.16Z"/><path class="cls-3" d="M163.06,379.18c-1.09-13.9-2-25.16-2-25.16s.87,11.26,2,25.16,2,25.15,2,25.15S164.15,393.06,163.06,379.18Z"/><path class="cls-3" d="M167.19,378.51c-3.35-13.53-6.07-24.5-6.08-24.5s2.7,11,6,24.51S173.22,403,173.23,403,170.53,392,167.19,378.51Z"/><path class="cls-3" d="M171.15,377.17c-5.52-12.8-10-23.16-10-23.16s4.46,10.38,10,23.18,10,23.15,10,23.15S176.67,390,171.15,377.17Z"/><path class="cls-3" d="M174.85,375.2,161.18,354s6.09,9.51,13.64,21.23,13.66,21.21,13.66,21.21S182.38,386.92,174.85,375.2Z"/><path class="cls-3" d="M178.17,372.66C168.82,362.32,161.24,354,161.23,354s7.56,8.39,16.91,18.73,16.93,18.71,16.93,18.71S187.51,383,178.17,372.66Z"/><path class="cls-3" d="M181,369.61c-10.9-8.69-19.74-15.72-19.74-15.71S170.11,361,181,369.64s19.73,15.72,19.74,15.71S191.92,378.3,181,369.61Z"/><path class="cls-3" d="M183.36,366.14c-12.17-6.8-22-12.3-22-12.29l22,12.32c12.15,6.8,22,12.3,22,12.29Z"/><path class="cls-3" d="M185.1,362.34c-13.12-4.72-23.75-8.53-23.76-8.52l23.74,8.55,23.75,8.52Z"/><path class="cls-3" d="M186.18,358.3c-13.71-2.5-24.83-4.52-24.83-4.51l24.82,4.54c13.71,2.5,24.83,4.51,24.83,4.5S199.88,360.79,186.18,358.3Z"/><path class="cls-3" d="M186.59,354.13l-25.23-.4,25.23.44,25.22.4Z"/><path class="cls-3" d="M186.32,350c-13.79,2-25,3.66-25,3.67l25-3.64,25-3.67Z"/><path class="cls-3" d="M185.38,345.88c-13.28,4.25-24,7.71-24,7.72l24-7.69c13.26-4.25,24-7.71,24-7.72Z"/><path class="cls-3" d="M183.78,342c-12.4,6.38-22.44,11.55-22.43,11.56s10.05-5.15,22.44-11.53,22.43-11.54,22.43-11.55S196.16,335.64,183.78,342Z"/><path class="cls-3" d="M181.57,338.46c-11.19,8.31-20.26,15.06-20.25,15.06s9.08-6.72,20.27-15l20.24-15.06S192.75,330.15,181.57,338.46Z"/><path class="cls-3" d="M178.81,335.32c-9.7,10-17.55,18.14-17.54,18.14s7.87-8.1,17.56-18.12,17.54-18.13,17.53-18.14S188.49,325.31,178.81,335.32Z"/><path class="cls-3" d="M175.58,332.66l-14.37,20.75s6.45-9.27,14.39-20.73S190,312,190,311.94,183.51,321.22,175.58,332.66Z"/><path class="cls-3" d="M172,330.57c-6,12.6-10.8,22.81-10.79,22.82S166,343.18,172,330.59s10.79-22.81,10.78-22.81S177.92,318,172,330.57Z"/><path class="cls-3" d="M168,329.1c-3.81,13.41-6.9,24.27-6.89,24.27s3.11-10.86,6.92-24.26,6.91-24.27,6.9-24.27S171.86,315.7,168,329.1Z"/><path class="cls-3" d="M163.94,328.29c-1.57,13.85-2.83,25.07-2.82,25.08s1.28-11.23,2.85-25.08,2.83-25.07,2.82-25.07S165.51,314.45,163.94,328.29Z"/><path class="cls-3" d="M159.76,328.16c.68,13.92,1.24,25.2,1.25,25.2s-.53-11.28-1.22-25.21S158.54,303,158.53,303,159.07,314.24,159.76,328.16Z"/><path class="cls-3" d="M155.6,328.7c3,13.63,5.34,24.67,5.35,24.66s-2.37-11-5.31-24.66S150.3,304,150.29,304,152.66,315.09,155.6,328.7Z"/><path class="cls-3" d="M151.6,329.92c5.14,13,9.32,23.45,9.33,23.45s-4.15-10.51-9.3-23.46-9.31-23.45-9.32-23.44S146.46,317,151.6,329.92Z"/><path class="cls-3" d="M147.85,331.78c7.2,11.94,13,21.61,13,21.6s-5.81-9.68-13-21.62-13-21.6-13-21.6S140.66,319.85,147.85,331.78Z"/><path class="cls-3" d="M144.46,334.22c9,10.61,16.37,19.2,16.38,19.2s-7.32-8.61-16.36-19.22S128.11,315,128.11,315,135.42,323.62,144.46,334.22Z"/><path class="cls-3" d="M141.51,337.19c10.64,9,19.27,16.29,19.27,16.28s-8.61-7.31-19.25-16.31-19.27-16.29-19.27-16.28S130.87,328.19,141.51,337.19Z"/><path class="cls-3" d="M139.07,340.59l21.67,12.94s-9.69-5.82-21.65-13-21.65-12.94-21.66-12.94S127.12,333.44,139.07,340.59Z"/><path class="cls-3" d="M137.23,344.34l23.49,9.22-23.48-9.25c-13-5.1-23.48-9.23-23.48-9.22S124.27,339.24,137.23,344.34Z"/><path class="cls-3" d="M136,348.34c13.64,2.91,24.69,5.25,24.69,5.24s-11-2.37-24.68-5.27-24.67-5.24-24.68-5.23S122.4,345.45,136,348.34Z"/><path class="cls-3" d="M135.49,352.5l25.21,1.13-25.21-1.17c-13.91-.64-25.2-1.15-25.2-1.14S121.58,351.86,135.49,352.5Z"/><path class="cls-10" d="M156.93,353.74a3.7,3.7,0,1,0,3.66-3.75A3.7,3.7,0,0,0,156.93,353.74Z"/><path class="cls-6" d="M79.76,398.23A14.42,14.42,0,1,0,94,383.65,14.43,14.43,0,0,0,79.76,398.23Zm3.23,0a11.19,11.19,0,1,1,11.32,11.07A11.19,11.19,0,0,1,83,398.19Z"/><polygon class="cls-10" points="92.18 396.68 95.64 396.64 94.77 319.77 106.92 319.63 106.88 316.17 91.27 316.35 92.18 396.68"/><path class="cls-10" d="M76.11,403.76c0-.44-.5-63.55-.31-75.5a7.24,7.24,0,0,1,2.49-5.75c4.71-4,14.39-2.75,14.49-2.74l.48-3.43c-.46-.06-11.31-1.52-17.21,3.53a10.68,10.68,0,0,0-3.71,8.34c-.19,12,.31,75.13.31,75.57Z"/><rect class="cls-10" x="48.6" y="401.11" width="27.74" height="3.38" transform="translate(129.49 804.86) rotate(179.35)"/><path class="cls-6" d="M102.56,353.93a58.47,58.47,0,1,0,57.8-59.13A58.48,58.48,0,0,0,102.56,353.93Zm4.13-.05c-.34-30.62,23.7-55.72,53.71-56.06s54.61,24.21,55,54.83-23.7,55.72-53.71,56.06S107,384.5,106.69,353.88Z"/><path class="cls-7" d="M141.81,241.86l14,12-.74,4L150,265.8s-2.07,1.52-6.79-4.66-10.19-18-10.19-18Z"/><path class="cls-6" d="M115.38,214.15a1.45,1.45,0,0,1,1.22-.71l8.53-.08a2.63,2.63,0,0,1,2,.89l21.3,24.11-1.22.95-9.29,1.07-22.72-25.87Z"/><path class="cls-5" d="M121.81,216.74a.53.53,0,0,1-.72,0,.52.52,0,0,1-.16-.71.53.53,0,0,1,.72,0A.54.54,0,0,1,121.81,216.74Z"/><path class="cls-10" d="M115.16,214.51a10.11,10.11,0,0,0,1.67.08l4.53,0h3.13a1.73,1.73,0,0,1,1.4.57l1.22,1.39,5.44,6.18c3.87,4.37,7.4,8.31,10,11.15,1.26,1.36,2.29,2.49,3.07,3.34a10.17,10.17,0,0,0,1.18,1.18,11.2,11.2,0,0,0-1-1.31l-3-3.45c-2.5-2.89-6-6.87-9.86-11.25l-5.47-6.15-1.24-1.38a2.19,2.19,0,0,0-1.73-.69l-3.13.07-4.53.13A11.75,11.75,0,0,0,115.16,214.51Z"/><path class="cls-7" d="M125.85,222.68s.72-.24,1.43,1.74,2.89,7.63,2.89,7.63l3.6-2.66,5-.08s1.21.83.5,1.48a17.3,17.3,0,0,1-3.7,1.65l-1.8,3.61,6.07-4.11s2.27.24,1.82,1.67-4.23,6.24-4.23,6.24l3.24-.73,3.54-2.94s1.2-.13.91,1-3.8,5.36-3.8,5.36l-4.56,3.1s-2.71.19-3.08-.56a9,9,0,0,1-.61-1.86s-1.48-.17-1.84-.83a4.28,4.28,0,0,1-.36-1.76s-2.18.72-2.64-.48a14.53,14.53,0,0,1-.51-4.69c.09-1-2.41-9.71-2.35-10S124.36,222.3,125.85,222.68Z"/><path class="cls-11" d="M133.49,245.08a2.76,2.76,0,0,0,1.34.2,8.42,8.42,0,0,0,3.21-.62,8.76,8.76,0,0,0,2.76-1.76c.6-.59.87-1,.83-1.08a17.83,17.83,0,0,1-3.78,2.37A18.11,18.11,0,0,1,133.49,245.08Z"/><path class="cls-11" d="M134.39,243.14c.09.11.9-.48,1.71-1.38s1.32-1.75,1.21-1.84-.78.62-1.59,1.5S134.29,243,134.39,243.14Z"/><path class="cls-11" d="M131.18,239.29c.09.1.89-.47,1.64-1.41s1.15-1.83,1-1.9-.7.69-1.42,1.58S131.08,239.18,131.18,239.29Z"/><path class="cls-11" d="M128,236.28a12.8,12.8,0,0,0,1.13-2.08c.62-1.12,1.28-1.95,1.17-2s-1,.61-1.61,1.8A3.84,3.84,0,0,0,128,236.28Z"/><path class="cls-8" d="M195.19,206.28a5.4,5.4,0,0,1,7.16.39c3.59,3.59,8.8,9.62,9,14.51.24,7.49,1.45,27.3,1.45,27.3l-27.54-1s0-26.34,2.42-32.37C189,211.73,192.45,208.47,195.19,206.28Z"/><path class="cls-7" d="M209.45,248.68s-.63,15.21-3.37,21.84c-2.82,6.85-6.33,6.23-9.34,6s-46.23-31.62-46.23-31.62l6.54-8.46,33.7,15.77.42-4.23Z"/><path class="cls-7" d="M157.31,236.77,150.4,225,143,222.07l-9.45-.34a1.92,1.92,0,0,0,.81,2.3l-3.29-.29a1.88,1.88,0,0,0,.86,2.6l-2.39.06a3.38,3.38,0,0,0,3.35,2.45,52,52,0,0,1,7,.54l4.19,3.18-6.75-1.27-5.06.21s-.84,1.16.23,1.63a32.47,32.47,0,0,0,5.4.79l6.26,2.64s.78,4.39,1.48,5.44,5.18,3,5.18,3Z"/><path class="cls-11" d="M131.1,223.74a13.07,13.07,0,0,0,2.55.28c1.57.1,3.75.21,6.15.3l2.31.08-.1,0c1.69.75,3.16,1.39,4.22,1.82a7.89,7.89,0,0,0,1.71.62,7.28,7.28,0,0,0-1.59-.9c-1-.51-2.46-1.2-4.13-2l0,0h-.05l-2.31-.09c-2.41-.09-4.58-.15-6.16-.16A12.46,12.46,0,0,0,131.1,223.74Z"/><path class="cls-11" d="M130.14,226.39a11,11,0,0,0,2.32.18c1.43,0,3.4.07,5.59.07h2.17l-.12,0a39.19,39.19,0,0,0,5.08,2.67,38.26,38.26,0,0,0-4.84-3.09l-.05,0h-2.24c-2.19,0-4.16,0-5.59.08A10.18,10.18,0,0,0,130.14,226.39Z"/><path class="cls-11" d="M150.8,245a4.17,4.17,0,0,0-.71-.36c-.47-.23-1.16-.57-2-1-.44-.24-.92-.51-1.43-.84a5.63,5.63,0,0,1-.73-.58,2.21,2.21,0,0,1-.46-.86,32.5,32.5,0,0,1-1.13-4.74v-.08l-.08,0L138,233.74h-.07c-1.12-.1-2.3-.22-3.51-.4a9.49,9.49,0,0,1-1.79-.39.6.6,0,0,1-.43-.52,1.39,1.39,0,0,1,.27-.78l-.17.09,5.06-.19h0l6.75,1.28,1,.2-.84-.64L140,229.19l-.05,0h-.06c-1.73-.24-3.55-.44-5.42-.53-.51,0-1,0-1.54,0a3.55,3.55,0,0,1-1.38-.24,3.25,3.25,0,0,1-1.75-2l-.24.32,2.39-.07.87,0-.76-.44a1.84,1.84,0,0,1-.88-1,1.66,1.66,0,0,1,.12-1.27l-.24.13,3.28.28.9.08-.74-.52a1.85,1.85,0,0,1-.72-.9,1.63,1.63,0,0,1,0-1.11l-.23.15,9.46.31-.07,0,7.38,2.85-.09-.07,5.13,8.62,1.41,2.32.37.59a.81.81,0,0,0,.15.2,1.55,1.55,0,0,0-.1-.22l-.34-.62c-.32-.58-.76-1.37-1.33-2.37-1.19-2.09-2.89-5-5-8.7l0-.05-.05,0-7.36-2.91H143l-9.45-.36h-.17l-.06.15a2.22,2.22,0,0,0,0,1.46,2.43,2.43,0,0,0,.91,1.14l.16-.44-3.28-.3H131l-.07.14a2.16,2.16,0,0,0-.16,1.67,2.32,2.32,0,0,0,1.1,1.26l.12-.46-2.38.06h-.34l.1.31a3.76,3.76,0,0,0,2,2.36,4,4,0,0,0,1.59.27c.5,0,1,0,1.51,0,1.84.09,3.66.29,5.36.52l-.11,0,4.19,3.18.2-.44-6.75-1.26h-.06l-5.06.22h-.12l-.06.09a1.83,1.83,0,0,0-.34,1.06,1.06,1.06,0,0,0,.7.91,9.78,9.78,0,0,0,1.9.4c1.23.18,2.41.29,3.54.37h-.06l6.28,2.61-.1-.12a32.3,32.3,0,0,0,1.2,4.78,2.55,2.55,0,0,0,.54.93,5,5,0,0,0,.78.59c.53.33,1,.59,1.47.82.89.45,1.6.76,2.08,1l.56.22Z"/><path class="cls-6" d="M213.24,248.48l-.46-.06-1.34-.08-5-.24-17.08-.65.24.23c-.06-2.39,0-4.94.11-7.57.22-4.33.6-8.45.84-12.21.13-1.88.18-3.67.33-5.33a32,32,0,0,1,.71-4.57,17.33,17.33,0,0,1,2.67-6.09c.93-1.29,1.62-1.85,1.58-1.89a2.68,2.68,0,0,0-.5.4,11.76,11.76,0,0,0-1.24,1.37,16.88,16.88,0,0,0-2.86,6.12,29.85,29.85,0,0,0-.77,4.62c-.18,1.67-.24,3.46-.39,5.34-.27,3.75-.66,7.87-.88,12.22-.13,2.63-.17,5.2-.09,7.61v.23h.24l17.08.48,5,.09h1.33A1.43,1.43,0,0,0,213.24,248.48Z"/></g><g id="Icons"><path class="cls-8" d="M594.76,266.51H581.13a4.85,4.85,0,0,0-4.85,4.84V285a4.85,4.85,0,0,0,4.85,4.85H585l3.44,5.18,3-5.18h3.27a4.85,4.85,0,0,0,4.85-4.85V271.35A4.85,4.85,0,0,0,594.76,266.51Z"/><path class="cls-5" d="M591.13,274.38a2.25,2.25,0,0,0-2.66,1.17,2.34,2.34,0,0,0-4.42,1.39,5.58,5.58,0,0,0,1.92,2.93c.93.9,1.67,1.61,2.63,2.56h0s2.24-2.44,2.24-2.44a7.49,7.49,0,0,0,1.93-3A2.35,2.35,0,0,0,591.13,274.38Z"/><path class="cls-8" d="M481.82,24.66H468.19a4.85,4.85,0,0,0-4.85,4.85V43.15A4.85,4.85,0,0,0,468.19,48h3.91l3.44,5.18,3-5.18h3.27a4.85,4.85,0,0,0,4.85-4.84V29.51A4.85,4.85,0,0,0,481.82,24.66Z"/><path class="cls-5" d="M478.19,32.54a2.25,2.25,0,0,0-2.66,1.16,2.35,2.35,0,0,0-4.42,1.4A5.62,5.62,0,0,0,473,38l2.63,2.55h0s2.24-2.44,2.24-2.44a7.52,7.52,0,0,0,1.93-3A2.35,2.35,0,0,0,478.19,32.54Z"/><path class="cls-8" d="M489.53,91.54H480a3.38,3.38,0,0,0-3.38,3.39v9.51a3.38,3.38,0,0,0,3.38,3.38h2.73l2.4,3.61,2.09-3.61h2.29a3.38,3.38,0,0,0,3.38-3.38V94.93A3.38,3.38,0,0,0,489.53,91.54Z"/><path class="cls-5" d="M487,97a1.57,1.57,0,0,0-1.86.81,1.63,1.63,0,0,0-3.08,1,3.87,3.87,0,0,0,1.34,2.05l1.83,1.78h0s1.56-1.7,1.56-1.7a5.34,5.34,0,0,0,1.35-2.1A1.65,1.65,0,0,0,487,97Z"/><path class="cls-8" d="M150.68,135.57h-9.51a3.38,3.38,0,0,0-3.38,3.39v9.51a3.38,3.38,0,0,0,3.38,3.38h2.73l2.4,3.61,2.1-3.61h2.28a3.38,3.38,0,0,0,3.39-3.38V139A3.39,3.39,0,0,0,150.68,135.57Z"/><path class="cls-5" d="M148.15,141.07a1.58,1.58,0,0,0-1.86.81,1.63,1.63,0,0,0-3.08,1,3.87,3.87,0,0,0,1.34,2.05l1.83,1.78h0S148,145,148,145a5.21,5.21,0,0,0,1.34-2.1A1.62,1.62,0,0,0,148.15,141.07Z"/><path class="cls-8" d="M378.7,57.84H365.07a4.85,4.85,0,0,0-4.85,4.85V76.33a4.85,4.85,0,0,0,4.85,4.85H369l3.44,5.17,3-5.17h3.27a4.85,4.85,0,0,0,4.85-4.85V62.69A4.85,4.85,0,0,0,378.7,57.84Z"/><path class="cls-5" d="M375.07,65.72a2.24,2.24,0,0,0-2.66,1.17A2.34,2.34,0,0,0,368,68.28a5.62,5.62,0,0,0,1.92,2.93c.93.9,1.67,1.61,2.63,2.56h0s2.24-2.45,2.24-2.45a7.39,7.39,0,0,0,1.93-3A2.35,2.35,0,0,0,375.07,65.72Z"/><path class="cls-8" d="M132.18,168.81H118.55a4.85,4.85,0,0,0-4.85,4.85v13.63a4.85,4.85,0,0,0,4.85,4.85h3.91l3.44,5.18,3-5.18h3.27a4.85,4.85,0,0,0,4.85-4.85V173.66A4.85,4.85,0,0,0,132.18,168.81Z"/><path class="cls-5" d="M128.55,176.68a2.25,2.25,0,0,0-2.66,1.17,2.35,2.35,0,0,0-4.42,1.39,5.6,5.6,0,0,0,1.92,2.94c.93.9,1.67,1.6,2.63,2.55h0s2.24-2.44,2.24-2.44a7.6,7.6,0,0,0,1.93-3A2.36,2.36,0,0,0,128.55,176.68Z"/></g></g></svg>