<svg id="Layer_1" data-name="Layer 1" xmlns="http://www.w3.org/2000/svg" viewBox="0 0 512 512"><defs><style>.cls-1{fill:#141f38;}</style></defs><title>credit-card-back-outline</title><path class="cls-1" d="M448,89.6H63.85A64,64,0,0,0,0,153.45V358.55A64,64,0,0,0,63.85,422.4H448.15A64,64,0,0,0,512,358.55v-205A64.19,64.19,0,0,0,448,89.6ZM25.6,153.51A38.31,38.31,0,0,1,63.91,115.2H448a38.44,38.44,0,0,1,38.4,38.4H25.6ZM486.4,179.2v25.6H25.6V179.2Zm0,179.29a38.31,38.31,0,0,1-38.31,38.31H63.91A38.31,38.31,0,0,1,25.6,358.49V230.4H486.4ZM64,294.4a12.8,12.8,0,0,1,12.8-12.8h76.8a12.8,12.8,0,0,1,0,25.6H76.8A12.8,12.8,0,0,1,64,294.4Zm0,51.2a12.8,12.8,0,0,1,12.8-12.8H217.6a12.8,12.8,0,0,1,0,25.6H76.8A12.8,12.8,0,0,1,64,345.6Z"/></svg>