<svg xmlns="http://www.w3.org/2000/svg" viewBox="0 0 453.53 460.07"><defs><style>.cls-1{fill:#f5f5f5;}.cls-2{fill:#ebebeb;}.cls-3{fill:#e0e0e0;}.cls-4{fill:#fff;}.cls-5{opacity:0.5;}.cls-6{fill:#263238;}.cls-7{fill:#455a64;}.cls-8{opacity:0.3;}.cls-9{fill:#fafafa;}.cls-10{fill:#ff725e;}.cls-11{opacity:0.2;}.cls-12{fill:#ffbf9d;}.cls-13{fill:#ff9a6c;}.cls-14{opacity:0.6;}</style></defs><g id="Layer_2" data-name="Layer 2"><g id="Background_Complete" data-name="Background Complete"><path class="cls-1" d="M161,42.22a34.27,34.27,0,1,1-39-28.7A34.23,34.23,0,0,1,161,42.22Z"/><path class="cls-2" d="M152.91,43.43A26.12,26.12,0,1,1,123.2,21.56,26.09,26.09,0,0,1,152.91,43.43Z"/><path class="cls-3" d="M152.78,42.62c-.16,0-.44-1.08-1.15-3a27.9,27.9,0,0,0-4.18-7.46,25.82,25.82,0,0,0-9.85-7.68,25.35,25.35,0,0,0-7.11-2,25.16,25.16,0,0,0-3.9-.21,25.82,25.82,0,0,0-7.91,1.44,26.79,26.79,0,0,0-3.58,1.58,24,24,0,0,0-3.19,2,23.43,23.43,0,0,0-2.75,2.37A25.81,25.81,0,0,0,105.05,35a26.18,26.18,0,0,0-2.38,5.37,27.71,27.71,0,0,0-1.26,8.46c0,2,.15,3.19,0,3.21s-.51-1.07-.77-3.17a24.18,24.18,0,0,1,.68-8.89,26,26,0,0,1,2.29-5.79,26.38,26.38,0,0,1,4.25-5.78,25,25,0,0,1,2.9-2.59,26.34,26.34,0,0,1,7.27-4,26.59,26.59,0,0,1,8.52-1.56,25.52,25.52,0,0,1,4.22.26,25.82,25.82,0,0,1,4,.87,26.38,26.38,0,0,1,13.85,9.9,24.22,24.22,0,0,1,3.78,8.08C152.87,41.44,152.89,42.6,152.78,42.62Z"/><path class="cls-3" d="M132.32,62.29l.75,4.49-4,.66-.72-4.37c-4,.42-8-.2-10.51-1.55l1.39-5.26a16.43,16.43,0,0,0,8.25,1.56l-1.11-6.69c-4.63-.35-9.84-1-10.79-6.74-.7-4.24,1.78-8.4,8-10.17l-.73-4.45,4-.66.73,4.37a18.39,18.39,0,0,1,8.53,1.09l-1.18,5.26a16.55,16.55,0,0,0-6.48-1.06l1.13,6.81c4.62.3,9.75,1,10.69,6.63C140.94,56.37,138.49,60.48,132.32,62.29Zm-6.93-17-1-5.69c-2,.83-2.69,2.13-2.47,3.46S123.53,45,125.39,45.24Zm8.49,8.52c-.23-1.41-1.52-2-3.35-2.29l.92,5.53C133.38,56.22,134.09,55,133.88,53.76Z"/><path class="cls-1" d="M366.41,228.11a21,21,0,1,1-23.92-17.61A21,21,0,0,1,366.41,228.11Z"/><path class="cls-2" d="M361.46,228.86a16,16,0,1,1-18.23-13.43A16,16,0,0,1,361.46,228.86Z"/><path class="cls-3" d="M361.39,228.36a9.13,9.13,0,0,1-.71-1.84,16.58,16.58,0,0,0-5.09-7.15,16.26,16.26,0,0,0-3.52-2.14,14,14,0,0,0-2.09-.76,15.23,15.23,0,0,0-2.27-.48,15.82,15.82,0,0,0-2.4-.12,16,16,0,0,0-2.46.25,18.63,18.63,0,0,0-2.39.63,17.44,17.44,0,0,0-2.2,1,15.45,15.45,0,0,0-1.95,1.25,14.13,14.13,0,0,0-1.69,1.45,16,16,0,0,0-2.53,3.25,16.77,16.77,0,0,0-1.46,3.3,17.21,17.21,0,0,0-.77,5.19,10.13,10.13,0,0,1,0,2,4.62,4.62,0,0,1-.47-1.95,14.61,14.61,0,0,1,.41-5.45,16.26,16.26,0,0,1,5.8-8.7,16,16,0,0,1,2.09-1.36,15.71,15.71,0,0,1,2.36-1.06,17.22,17.22,0,0,1,2.58-.7,18.57,18.57,0,0,1,2.66-.26,15.93,15.93,0,0,1,5,.69,15.75,15.75,0,0,1,2.24.86,16.06,16.06,0,0,1,6.27,5.22,15,15,0,0,1,2.32,5A4.72,4.72,0,0,1,361.39,228.36Z"/><path class="cls-3" d="M348.83,240.43l.46,2.75-2.46.41-.44-2.68a11.81,11.81,0,0,1-6.45-1l.86-3.22a10,10,0,0,0,5.06,1l-.69-4.11c-2.83-.21-6-.62-6.62-4.13-.43-2.61,1.1-5.16,4.91-6.25l-.45-2.73,2.45-.4.45,2.68a11.21,11.21,0,0,1,5.24.67l-.73,3.23a10.22,10.22,0,0,0-4-.66l.69,4.18c2.83.19,6,.6,6.56,4.07C354.12,236.8,352.62,239.32,348.83,240.43ZM344.58,230l-.58-3.49c-1.26.51-1.65,1.31-1.52,2.12S343.44,229.8,344.58,230Zm5.21,5.23c-.15-.86-.94-1.21-2.05-1.4l.56,3.39C349.48,236.71,349.92,236,349.79,235.19Z"/><path class="cls-1" d="M69.32,248.64a28.53,28.53,0,1,1-32.45-23.9A28.5,28.5,0,0,1,69.32,248.64Z"/><path class="cls-2" d="M62.61,249.65a21.74,21.74,0,1,1-24.73-18.21A21.71,21.71,0,0,1,62.61,249.65Z"/><path class="cls-3" d="M62.5,249a13.17,13.17,0,0,1-1-2.5,23.11,23.11,0,0,0-3.48-6.22,21.44,21.44,0,0,0-8.2-6.39,19.92,19.92,0,0,0-2.84-1A21,21,0,0,0,40.7,232a22.38,22.38,0,0,0-3.34.34,22.66,22.66,0,0,0-3.24.86,21.17,21.17,0,0,0-3,1.32,20.51,20.51,0,0,0-2.65,1.68,20.94,20.94,0,0,0-2.29,2,22,22,0,0,0-3.43,4.42,22.62,22.62,0,0,0-2,4.46,23.23,23.23,0,0,0-1,7,12.67,12.67,0,0,1,0,2.67,6.18,6.18,0,0,1-.64-2.64,20,20,0,0,1,.56-7.4,22.32,22.32,0,0,1,1.91-4.82,21.93,21.93,0,0,1,3.54-4.81A20.22,20.22,0,0,1,27.52,235a21.72,21.72,0,0,1,2.84-1.86,23.78,23.78,0,0,1,3.2-1.44,25.38,25.38,0,0,1,3.5-.94,24.67,24.67,0,0,1,3.6-.36,21.42,21.42,0,0,1,3.51.22,20.69,20.69,0,0,1,3.31.73,20.23,20.23,0,0,1,3,1.16A21.95,21.95,0,0,1,59,239.56a20,20,0,0,1,3.14,6.72A6.32,6.32,0,0,1,62.5,249Z"/><path class="cls-3" d="M45.47,265.35l.62,3.73-3.33.56-.6-3.64a16,16,0,0,1-8.75-1.29l1.16-4.38a13.68,13.68,0,0,0,6.86,1.3l-.92-5.57c-3.85-.29-8.19-.84-9-5.61-.59-3.54,1.48-7,6.65-8.47l-.61-3.7,3.33-.56.6,3.64a15.38,15.38,0,0,1,7.11.91l-1,4.38a14.13,14.13,0,0,0-5.4-.89l.94,5.68c3.85.25,8.12.81,8.9,5.51C52.65,260.42,50.61,263.85,45.47,265.35Zm-5.77-14.2-.79-4.73c-1.7.69-2.24,1.77-2.06,2.87S38.15,250.93,39.7,251.15Zm7.07,7.09c-.2-1.16-1.27-1.64-2.79-1.9l.77,4.6C46.35,260.3,46.94,259.31,46.77,258.24Z"/><path class="cls-3" d="M405.64,178.45,231.42,124.22a8.49,8.49,0,0,1-5.58-10.63L259.34,6A8.48,8.48,0,0,1,270,.39L444.19,54.62a8.47,8.47,0,0,1,5.58,10.62l-33.5,107.63A8.49,8.49,0,0,1,405.64,178.45Z"/><path class="cls-4" d="M254.07,82.34l-3.29,10.58-1.09-.34,3-9.61-2.49-.77.3-1Z"/><path class="cls-4" d="M262,95.33l-.3,1L254.23,94l.24-.77,5.74-2.94c1.56-.8,2-1.44,2.23-2.17.38-1.22-.24-2.24-1.86-2.74a3.72,3.72,0,0,0-3.25.28l-.56-.91A5,5,0,0,1,261,84.4c2.15.66,3.17,2.17,2.62,3.94-.32,1-.92,1.82-2.77,2.77l-4.69,2.41Z"/><path class="cls-4" d="M273.64,97l-2.11-.65-.87,2.78-1.08-.34.86-2.78-6-1.86.24-.78,7.79-5.27,1.2.38-7.53,5.14L270.77,95l.76-2.45,1.06.33-.76,2.45,2.11.66Z"/><path class="cls-4" d="M289.84,102l-2.11-.66-.86,2.78-1.09-.34.86-2.78-6-1.86.24-.78,7.79-5.26,1.2.37-7.53,5.14,4.59,1.43.76-2.44,1.06.33L288,100.4l2.11.66Z"/><path class="cls-4" d="M299.19,104.57c-.56,1.8-2.25,2.81-4.84,2A5.73,5.73,0,0,1,291,104l.79-.7a4.85,4.85,0,0,0,2.87,2.24c1.8.56,3,0,3.42-1.31s-.16-2.47-2.85-3.3l-2.25-.7,2.2-5.13,5.78,1.8-.3,1-4.83-1.5-1.41,3.25,1.36.43C299,101.07,299.77,102.7,299.19,104.57Z"/><path class="cls-4" d="M309.65,107.78c-.62,2-2.57,2.76-4.62,2.12-2.81-.87-3.73-3.3-2.69-6.63,1.12-3.6,3.66-4.86,6.53-4a5,5,0,0,1,2.33,1.36l-.71.74a3.92,3.92,0,0,0-1.9-1.14c-2.28-.71-4.2.3-5.09,3.17a6.86,6.86,0,0,0-.22.87,3.54,3.54,0,0,1,3.79-.8C309.17,104.15,310.25,105.85,309.65,107.78Zm-1.08-.31c.43-1.39-.32-2.6-1.95-3.1a2.56,2.56,0,0,0-3.44,1.46c-.36,1.16.26,2.57,2.09,3.14A2.43,2.43,0,0,0,308.57,107.47Z"/><path class="cls-4" d="M324.07,112.4c-.54,1.77-2.25,2.73-4.8,1.93a5.76,5.76,0,0,1-3.39-2.54l.8-.7a4.83,4.83,0,0,0,2.9,2.25c1.75.54,3,0,3.38-1.29s-.24-2.37-2.2-3l-.76-.24.25-.8,4.07-2.76-5.4-1.68.3-1,6.79,2.12-.24.77-4.16,2.83C323.84,109.16,324.6,110.71,324.07,112.4Z"/><path class="cls-4" d="M334.71,115.58c-.61,2-2.56,2.76-4.62,2.12-2.81-.87-3.73-3.29-2.69-6.63,1.12-3.6,3.67-4.86,6.54-4a5.09,5.09,0,0,1,2.33,1.35l-.71.74a4,4,0,0,0-1.9-1.14c-2.28-.71-4.2.3-5.1,3.17-.07.24-.15.55-.22.88a3.53,3.53,0,0,1,3.8-.81C334.24,112,335.31,113.65,334.71,115.58Zm-1.08-.3c.43-1.39-.32-2.6-1.95-3.11a2.56,2.56,0,0,0-3.43,1.46c-.37,1.17.26,2.57,2.08,3.14A2.43,2.43,0,0,0,333.63,115.28Z"/><path class="cls-4" d="M346.74,111.19l-.24.77L339,120.39l-1.18-.37,7.34-8.25-5.44-1.69-.61,2-1.07-.33.91-2.94Z"/><path class="cls-4" d="M361.86,115.9l-.24.77-7.48,8.42-1.18-.37,7.34-8.25-5.43-1.69-.62,2-1.07-.34.92-2.94Z"/><path class="cls-4" d="M369.89,126.76c-.59,1.87-2.53,2.54-5.06,1.76s-3.71-2.43-3.13-4.31a2.77,2.77,0,0,1,2.85-2,2.5,2.5,0,0,1-.94-2.84c.54-1.72,2.34-2.34,4.57-1.65s3.4,2.24,2.86,4a2.51,2.51,0,0,1-2.41,1.8A2.79,2.79,0,0,1,369.89,126.76Zm-1.12-.36c.41-1.3-.46-2.46-2.33-3.05s-3.23-.11-3.63,1.19.44,2.47,2.31,3.06S368.37,127.71,368.77,126.4Zm-2.06-3.91c1.65.51,2.86.08,3.21-1.07s-.44-2.24-2-2.73-2.83-.09-3.2,1.09S365.06,122,366.71,122.49Z"/><path class="cls-4" d="M380.91,127.53c-1.12,3.59-3.67,4.85-6.53,4a5,5,0,0,1-2.33-1.36l.71-.74a3.84,3.84,0,0,0,1.9,1.14c2.28.71,4.2-.3,5.09-3.17a6.86,6.86,0,0,0,.22-.87,3.52,3.52,0,0,1-3.79.8c-2.1-.65-3.18-2.34-2.58-4.28s2.57-2.76,4.62-2.12C381,121.76,382,124.19,380.91,127.53Zm-.84-2.57c.36-1.16-.26-2.57-2.09-3.13a2.42,2.42,0,0,0-3.3,1.49c-.43,1.39.32,2.6,1.95,3.11A2.57,2.57,0,0,0,380.07,125Z"/><path class="cls-4" d="M393.25,125.67,390,136.24l-1.09-.34,3-9.61-2.49-.77.3-1Z"/><path class="cls-4" d="M401.13,138.66l-.3,1-7.42-2.31.24-.77,5.74-2.93c1.56-.81,2-1.45,2.23-2.17.38-1.23-.25-2.25-1.86-2.75a3.72,3.72,0,0,0-3.25.28l-.57-.91a5,5,0,0,1,4.22-.34c2.14.67,3.16,2.18,2.62,3.94-.32,1-.92,1.82-2.77,2.77l-4.7,2.42Z"/><path class="cls-4" d="M411.25,139.54c-.55,1.76-2.25,2.72-4.81,1.93a5.77,5.77,0,0,1-3.38-2.54l.8-.7a4.82,4.82,0,0,0,2.9,2.24c1.75.55,3,0,3.38-1.28s-.24-2.38-2.2-3l-.76-.23.25-.8,4.07-2.76-5.4-1.68.3-1,6.79,2.12-.24.77-4.16,2.82C411,136.3,411.78,137.85,411.25,139.54Z"/><rect class="cls-4" x="365.91" y="96.26" width="4.81" height="88.68" transform="translate(124.62 450.49) rotate(-72.71)"/><rect class="cls-4" x="383.68" y="133.44" width="4.81" height="45.48" transform="translate(122.23 478.42) rotate(-72.71)"/><g class="cls-5"><rect class="cls-2" x="253.75" y="49.58" width="37.21" height="27.8" rx="4.96" transform="matrix(0.95, 0.3, -0.3, 0.95, 31.17, -78.08)"/></g><path class="cls-3" d="M252.74,63.87l.53-1.7,18.3,5.7A4,4,0,0,0,274,60.21l-18.29-5.7.53-1.7,18.29,5.7A5.79,5.79,0,0,1,271,69.57Z"/><rect class="cls-3" x="282.83" y="60.87" width="1.78" height="13.15" transform="translate(134.75 318.16) rotate(-72.66)"/><rect class="cls-4" x="266.33" y="38.18" width="95.7" height="8.21" transform="translate(26.77 -91.48) rotate(17.29)"/><rect class="cls-4" x="406.49" y="64.4" width="19.26" height="19.26" rx="3.15" transform="translate(40.82 -120.35) rotate(17.29)"/></g><g id="Floor"><path class="cls-6" d="M453.53,443.26c0,.14-101.54.26-226.75.26S0,443.4,0,443.26,101.51,443,226.78,443,453.53,443.11,453.53,443.26Z"/></g><g id="Wallet"><rect class="cls-7" x="13.25" y="305.4" width="157.25" height="137.83" rx="8.76"/><g class="cls-8"><path d="M13.25,395.78H70.53a4,4,0,0,0,4-4H13.41Z"/></g><rect class="cls-7" x="9.04" y="356.52" width="67.84" height="35.77" rx="4.99"/><path class="cls-6" d="M71.89,392.29a5.9,5.9,0,0,0,1.94-.45,5,5,0,0,0,1.89-1.47,4.92,4.92,0,0,0,1-3c0-5.05,0-12.32-.08-21.29,0-1.12,0-2.27,0-3.45a12.7,12.7,0,0,0-.05-1.75,4.94,4.94,0,0,0-.55-1.65A4.8,4.8,0,0,0,73.36,357a5.6,5.6,0,0,0-1.84-.23h-2l-16.87,0-38.66,0a4.76,4.76,0,0,0-4,2.28,4.66,4.66,0,0,0-.68,2.27c0,.82,0,1.67,0,2.5v9.86q0,4.86,0,9.52c0,1.55,0,3.12,0,4.59A4.78,4.78,0,0,0,13.47,392c.68.06,1.45,0,2.16,0H28.1l14.7,0,21.29.08,5.78.05,1.51,0c.34,0,.51,0,.51,0l-.51,0-1.51,0-5.78.05-21.29.08-14.7,0H15.63c-.73,0-1.43,0-2.21,0a5.25,5.25,0,0,1-4.59-4.64c-.06-1.57,0-3.07,0-4.64v-9.52c0-3.23,0-6.52,0-9.86,0-.84,0-1.66,0-2.52a5.16,5.16,0,0,1,.76-2.53A5.25,5.25,0,0,1,14,356.26l38.66,0,16.87,0h2a5.72,5.72,0,0,1,2,.26A5.15,5.15,0,0,1,76.43,359a5,5,0,0,1,.59,1.79,15.7,15.7,0,0,1,0,1.8c0,1.18,0,2.33,0,3.45,0,9-.06,16.24-.08,21.29a5.11,5.11,0,0,1-1.14,3.14,5,5,0,0,1-2,1.46,5.16,5.16,0,0,1-1.47.36Z"/><g class="cls-8"><circle cx="60.16" cy="378.28" r="10.04"/></g><circle class="cls-2" cx="60.16" cy="374.78" r="10.04" transform="translate(-247.39 152.31) rotate(-45)"/><path class="cls-6" d="M70.2,374.78a22.69,22.69,0,0,0-.41-2.42A10,10,0,0,0,66.12,367a9.8,9.8,0,0,0-9.3-1.37A9.78,9.78,0,0,0,52.28,369a9.78,9.78,0,0,0,0,11.57,9.29,9.29,0,0,0,2.07,2.08A9.07,9.07,0,0,0,56.82,384a9.8,9.8,0,0,0,9.3-1.37,10.07,10.07,0,0,0,3.67-5.41,22.12,22.12,0,0,0,.41-2.43,7.64,7.64,0,0,1-.22,2.48,10,10,0,0,1-3.63,5.65,10.14,10.14,0,0,1-4.3,1.95,10.29,10.29,0,0,1-5.4-.42,9.62,9.62,0,0,1-2.6-1.39,9.84,9.84,0,0,1-2.19-2.18,10.22,10.22,0,0,1,0-12.17,10.37,10.37,0,0,1,4.79-3.57,10.29,10.29,0,0,1,5.4-.42,10.15,10.15,0,0,1,7.93,7.6A7.58,7.58,0,0,1,70.2,374.78Z"/></g><g id="Device"><path class="cls-6" d="M316.47,443,181,442.34a29.51,29.51,0,0,1-29.37-29.63l1.44-339.6a29.49,29.49,0,0,1,29.64-29.38l135.46.62A29.51,29.51,0,0,1,347.55,74l-1.44,339.6A29.5,29.5,0,0,1,316.47,443Z"/><path class="cls-9" d="M318,56.07,291.72,56,215,55.6l-9.24-.05-23-.1A20.66,20.66,0,0,0,162,76L160.63,407.5a20.67,20.67,0,0,0,20.57,20.75l135.19.63a20.67,20.67,0,0,0,20.76-20.58l1.4-331.48A20.67,20.67,0,0,0,318,56.07Z"/><path class="cls-6" d="M319,86.2a1.7,1.7,0,1,1-1.69-1.7A1.69,1.69,0,0,1,319,86.2Z"/><path class="cls-6" d="M319,92.28a1.69,1.69,0,1,1-1.68-1.7A1.69,1.69,0,0,1,319,92.28Z"/><path class="cls-6" d="M318.94,98.37a1.69,1.69,0,1,1-1.68-1.7A1.68,1.68,0,0,1,318.94,98.37Z"/><rect class="cls-2" x="185.14" y="143.96" width="144.1" height="91.42" rx="4.3"/><rect class="cls-3" x="181.18" y="138.03" width="144.1" height="91.42" rx="4.3"/><rect class="cls-10" x="176.61" y="133.09" width="144.1" height="91.42" rx="4.3"/><path class="cls-4" d="M200.34,154c0,1.17-.93,1.85-2.71,1.85h-3.5v-6.76h3.31c1.69,0,2.56.7,2.56,1.76a1.62,1.62,0,0,1-.9,1.48A1.67,1.67,0,0,1,200.34,154Zm-4.65-3.73v1.59h1.55c.77,0,1.18-.27,1.18-.8s-.41-.79-1.18-.79Zm3.07,3.57c0-.57-.43-.84-1.25-.84h-1.82v1.67h1.82C198.33,154.64,198.76,154.39,198.76,153.81Z"/><path class="cls-4" d="M206,154.37h-3.14l-.6,1.45h-1.6l3-6.76h1.55l3,6.76h-1.65Zm-.49-1.19-1.07-2.59-1.07,2.59Z"/><path class="cls-4" d="M215.12,149.06v6.76h-1.29l-3.37-4.11v4.11h-1.55v-6.76h1.3l3.36,4.1v-4.1Z"/><path class="cls-4" d="M219.18,153.16l-.91,1v1.71h-1.55v-6.76h1.55v3.16l3-3.16H223l-2.8,3,3,3.75h-1.82Z"/><path class="cls-4" d="M199.07,182.1h-1.24v1.64h-.64V182.1h-3.51v-.46l3.29-4.11h.72l-3.18,4h2.7V180.1h.62v1.44h1.24Z"/><path class="cls-4" d="M203.63,182c0,1-.76,1.84-2.25,1.84a3.23,3.23,0,0,1-2.24-.8l.31-.51a2.72,2.72,0,0,0,1.93.72c1,0,1.59-.48,1.59-1.25s-.52-1.23-1.68-1.23h-.44v-.47l1.72-2.16H199.4v-.56h4V178l-1.76,2.21C203,180.26,203.63,181,203.63,182Z"/><path class="cls-4" d="M208.65,181.91c0,1.05-.74,1.88-2.26,1.88a3.19,3.19,0,0,1-2.22-.8l.31-.51a2.68,2.68,0,0,0,1.91.72c1.05,0,1.61-.51,1.61-1.27s-.5-1.29-2.08-1.29H204.6l.32-3.11h3.4v.56h-2.84l-.21,2h.8C207.94,180.07,208.65,180.81,208.65,181.91Z"/><path class="cls-4" d="M214.12,181.88a1.94,1.94,0,0,1-2.12,1.91c-1.65,0-2.55-1.15-2.55-3.11,0-2.11,1.16-3.21,2.84-3.21a2.87,2.87,0,0,1,1.48.34l-.26.51a2.22,2.22,0,0,0-1.21-.29c-1.34,0-2.2.86-2.2,2.55a4.75,4.75,0,0,0,0,.5A2,2,0,0,1,212,180,1.88,1.88,0,0,1,214.12,181.88Zm-.63,0c0-.82-.6-1.34-1.56-1.34a1.44,1.44,0,0,0-1.6,1.36c0,.68.57,1.33,1.64,1.33A1.36,1.36,0,0,0,213.49,181.9Z"/><path class="cls-4" d="M227.54,183.74l-1.48-2-1.49,2h-.71l1.84-2.4L224,179.07h.71l1.4,1.83,1.4-1.83h.69l-1.76,2.27,1.87,2.4Z"/><path class="cls-4" d="M232.28,183.74l-1.49-2-1.49,2h-.71l1.85-2.4-1.76-2.27h.71l1.4,1.83,1.41-1.83h.69l-1.76,2.27,1.86,2.4Z"/><path class="cls-4" d="M237,183.74l-1.48-2-1.49,2h-.71l1.85-2.4-1.76-2.27h.71l1.4,1.83,1.4-1.83h.69l-1.75,2.27,1.86,2.4Z"/><path class="cls-4" d="M241.75,183.74l-1.48-2-1.49,2h-.71l1.84-2.4-1.75-2.27h.71l1.4,1.83,1.4-1.83h.69l-1.76,2.27,1.87,2.4Z"/><path class="cls-4" d="M258.1,183.74l-1.48-2-1.49,2h-.71l1.85-2.4-1.76-2.27h.71l1.4,1.83,1.4-1.83h.7L257,181.34l1.86,2.4Z"/><path class="cls-4" d="M262.84,183.74l-1.48-2-1.49,2h-.71l1.84-2.4-1.75-2.27H260l1.4,1.83,1.4-1.83h.69l-1.76,2.27,1.87,2.4Z"/><path class="cls-4" d="M267.58,183.74l-1.49-2-1.49,2h-.71l1.85-2.4L264,179.07h.71l1.4,1.83,1.41-1.83h.69l-1.76,2.27,1.86,2.4Z"/><path class="cls-4" d="M272.31,183.74l-1.48-2-1.49,2h-.71l1.85-2.4-1.76-2.27h.71l1.4,1.83,1.4-1.83h.69l-1.75,2.27,1.86,2.4Z"/><path class="cls-4" d="M287,177.53v6.21h-.64v-5.65H284.9v-.56Z"/><path class="cls-4" d="M292.59,182c0,1-.76,1.84-2.26,1.84a3.22,3.22,0,0,1-2.23-.8l.31-.51a2.71,2.71,0,0,0,1.92.72c1,0,1.6-.48,1.6-1.25s-.52-1.23-1.68-1.23h-.44v-.47l1.72-2.16h-3.17v-.56h4V178l-1.76,2.21C291.92,180.26,292.59,181,292.59,182Z"/><path class="cls-4" d="M298.76,182.1h-1.24v1.64h-.64V182.1h-3.5v-.46l3.29-4.11h.71l-3.18,4h2.7V180.1h.62v1.44h1.24Z"/><path class="cls-4" d="M303.55,183.17v.57h-4.36v-.46l2.59-2.52c.7-.7.83-1.11.83-1.54,0-.72-.5-1.16-1.45-1.16a2.12,2.12,0,0,0-1.7.69l-.45-.39a2.78,2.78,0,0,1,2.2-.89c1.26,0,2.06.64,2.06,1.68a2.56,2.56,0,0,1-1,1.94l-2.12,2.08Z"/><path class="cls-4" d="M190.49,196.62a1.63,1.63,0,0,1,2.83-1l-.44.4a1,1,0,0,0-.75-.34.95.95,0,0,0,0,1.89,1,1,0,0,0,.75-.35l.44.41a1.63,1.63,0,0,1-2.83-1Z"/><path class="cls-4" d="M195.68,197.47H194.3l-.26.63h-.7l1.32-3h.67l1.33,3h-.72Zm-.22-.52-.47-1.14-.47,1.14Z"/><path class="cls-4" d="M198.86,198.1l-.57-.82h-.63v.82H197v-3h1.28c.8,0,1.29.41,1.29,1.08a1,1,0,0,1-.61.93l.67.95Zm-.64-2.4h-.56v1h.56c.42,0,.63-.19.63-.51S198.64,195.7,198.22,195.7Z"/><path class="cls-4" d="M199.86,197.81l.23-.51a1.76,1.76,0,0,0,1,.31c.4,0,.57-.14.57-.32,0-.56-1.72-.18-1.72-1.28,0-.5.4-.92,1.24-.92a2,2,0,0,1,1,.26l-.21.52a1.73,1.73,0,0,0-.82-.23c-.41,0-.56.15-.56.34,0,.55,1.72.17,1.72,1.26,0,.49-.41.92-1.26.92A2,2,0,0,1,199.86,197.81Z"/><path class="cls-4" d="M206.71,195.14v3H206v-1.21h-1.35v1.21H204v-3h.69v1.17H206v-1.17Z"/><path class="cls-4" d="M207.23,196.62a1.62,1.62,0,1,1,1.62,1.54A1.53,1.53,0,0,1,207.23,196.62Zm2.55,0a.93.93,0,1,0-.93.95A.9.9,0,0,0,209.78,196.62Z"/><path class="cls-4" d="M211,195.14h.68v2.41h1.49v.55H211Z"/><path class="cls-4" d="M213.56,195.14h1.34a1.49,1.49,0,1,1,0,3h-1.34Zm1.31,2.4a.92.92,0,1,0,0-1.83h-.63v1.83Z"/><path class="cls-4" d="M219.35,197.55v.55h-2.29v-3h2.24v.55h-1.56v.65h1.38v.53h-1.38v.68Z"/><path class="cls-4" d="M221.79,198.1l-.57-.82h-.63v.82h-.69v-3h1.29c.79,0,1.28.41,1.28,1.08a1,1,0,0,1-.61.93l.67.95Zm-.64-2.4h-.56v1h.56c.42,0,.63-.19.63-.51S221.57,195.7,221.15,195.7Z"/><rect class="cls-4" x="189.81" y="205.47" width="43.95" height="3.8" rx="1.59"/><rect class="cls-4" x="281.99" y="205.47" width="24.42" height="3.8" rx="1.59"/><g class="cls-11"><path class="cls-4" d="M315.93,133.09H181.38a4.77,4.77,0,0,0-4.77,4.78V162c8.5,5.92,20.17,7,30.53,4.8,12.21-2.55,23.27-8.79,34.65-13.91s23.87-9.23,36.17-7.12c11.6,2,21.49,9.22,32,14.56a62.49,62.49,0,0,0,10.77,4.34V137.87A4.78,4.78,0,0,0,315.93,133.09Z"/></g><rect class="cls-10" x="179.62" y="260.13" width="37.41" height="37.41" rx="8.78"/><path class="cls-4" d="M202,284.56h-8.17a.48.48,0,0,1-.47-.37l-3-12h-2.84a.48.48,0,0,1-.48-.48.47.47,0,0,1,.48-.48h3.21a.48.48,0,0,1,.47.36l3,12H202a.49.49,0,1,1,0,1Z"/><circle class="cls-10" cx="195.39" cy="286.87" r="1.53"/><path class="cls-4" d="M195.39,288.88a2,2,0,1,1,2-2A2,2,0,0,1,195.39,288.88Zm0-3.06a1.05,1.05,0,1,0,1.05,1.05A1,1,0,0,0,195.39,285.82Z"/><circle class="cls-10" cx="203.89" cy="286.87" r="1.53"/><path class="cls-4" d="M203.89,288.88a2,2,0,1,1,2-2A2,2,0,0,1,203.89,288.88Zm0-3.06a1.05,1.05,0,1,0,1.05,1.05A1,1,0,0,0,203.89,285.82Z"/><path class="cls-4" d="M205.21,282.34H193.56a.49.49,0,0,1,0-1H204.8l1.28-7.2H191.4a.49.49,0,0,1-.48-.49.48.48,0,0,1,.48-.48h15.26a.48.48,0,0,1,.37.17.52.52,0,0,1,.11.4l-1.46,8.17A.48.48,0,0,1,205.21,282.34Z"/><rect class="cls-3" x="229.43" y="266.7" width="75.89" height="9.03" rx="3.77"/><rect class="cls-3" x="229.43" y="284.45" width="38.36" height="9.03" rx="3.77"/><path class="cls-3" d="M336.85,246c0,.15-39.49.26-88.19.26s-88.2-.11-88.2-.26,39.48-.26,88.2-.26S336.85,245.9,336.85,246Z"/><rect class="cls-10" x="192.07" y="312.54" width="115.04" height="38.79" rx="16.21"/><path class="cls-4" d="M247.33,330.1c0,1.94-1.47,3.15-3.81,3.15H242v2.24h-2.42v-8.56h3.91C245.86,326.93,247.33,328.14,247.33,330.1Zm-2.45,0c0-.8-.5-1.26-1.5-1.26H242v2.5h1.35C244.38,331.34,244.88,330.88,244.88,330.1Z"/><path class="cls-4" d="M253.81,333.83h-3.62l-.67,1.66h-2.47l3.78-8.56h2.38l3.8,8.56h-2.52ZM253.1,332,252,329.3,250.9,332Z"/><path class="cls-4" d="M261.74,332.42v3.07h-2.42v-3.11l-3.27-5.45h2.56l2,3.4,2-3.4H265Z"/><circle class="cls-10" cx="181.91" cy="95" r="7.47" transform="translate(47.54 250.11) rotate(-76.67)"/><rect class="cls-3" x="220.69" y="91.16" width="55.94" height="6.55" rx="2.74"/><rect class="cls-6" x="198.16" y="362.51" width="114.19" height="7.63"/><path class="cls-9" d="M203.56,366.32c1,.34,14.38.34,14.38,26.75s-.67,59.18,13.37,60.18,87.93,0,87.93,0V387a20.08,20.08,0,0,0-20-20.08Z"/><path class="cls-3" d="M231.65,453.25s11.56,0,14-17.05c2.95-20.32,0-38.11,15.71-38.78s57.84,0,57.84,0v55.83Z"/><path class="cls-9" d="M259.43,397.62s12.67-1.54,12.67,19.52.34,35,14.38,36.56,100.3,0,100.3,0-13.71-6.47-14.71-25.52-5-30.69-18.72-31.06S259.43,397.62,259.43,397.62Z"/><path class="cls-3" d="M304.85,381.63c0,.14-16.21.26-36.18.26s-36.19-.12-36.19-.26,16.2-.26,36.19-.26S304.85,381.48,304.85,381.63Z"/><path class="cls-3" d="M306.34,392.39c0,.15-15.66.26-35,.26s-35-.11-35-.26,15.66-.26,35-.26S306.34,392.25,306.34,392.39Z"/><path class="cls-3" d="M355.68,413.32c0,.15-16.2.26-36.18.26s-36.18-.11-36.18-.26,16.19-.26,36.18-.26S355.68,413.18,355.68,413.32Z"/><path class="cls-3" d="M356.58,425.88c0,.15-14.87.26-33.19.26s-33.2-.11-33.2-.26,14.86-.26,33.2-.26S356.58,425.74,356.58,425.88Z"/><rect class="cls-4" x="285.92" y="145.77" width="13.34" height="13.34" rx="3.15"/></g><g id="Speech_Bubble" data-name="Speech Bubble"><path class="cls-4" d="M49.62,131.12l-6.62-.8A25.41,25.41,0,1,1,49.54,124h0Z"/><path class="cls-6" d="M49.62,131.12a4.57,4.57,0,0,1,0-.48c0-.33,0-.79,0-1.38,0-1.22-.05-3-.1-5.28l.15.07h0a.09.09,0,0,1-.13,0,.09.09,0,0,1,0-.11,25.37,25.37,0,0,0,4.45-11.31,26.15,26.15,0,0,0-.21-8,25.13,25.13,0,0,0-3.28-8.48,25.81,25.81,0,0,0-6.85-7.33,24.53,24.53,0,0,0-9.94-4.29,25.53,25.53,0,0,0-11.5.5,24.49,24.49,0,0,0-10.47,6,25.74,25.74,0,0,0-4,4.77c-.51.89-1,1.77-1.47,2.68l-.6,1.4-.3.7-.22.72a25.67,25.67,0,0,0-1,11.58A24.58,24.58,0,0,0,8,123a25.89,25.89,0,0,0,7.13,7.17,25.43,25.43,0,0,0,8.4,3.61l2.1.37c.68.1,1.37.12,2,.18a23.69,23.69,0,0,0,3.88-.07A25.43,25.43,0,0,0,43,130.25a.07.07,0,0,1,.06,0l4.88.64,1.28.18.45.07-.42,0L47.93,131,43,130.41h.06a25.23,25.23,0,0,1-11.49,4.19,24.12,24.12,0,0,1-3.92.1c-.68-.06-1.38-.08-2.08-.18l-2.12-.36a25.63,25.63,0,0,1-8.55-3.62,26.23,26.23,0,0,1-7.25-7.26,25,25,0,0,1-4-10.37,26,26,0,0,1,1-11.79l.23-.73.3-.71c.2-.47.4-1,.61-1.42.44-.93,1-1.83,1.5-2.73a26.3,26.3,0,0,1,4-4.86A25,25,0,0,1,22,84.59a26.11,26.11,0,0,1,11.7-.49,24.91,24.91,0,0,1,10.1,4.39A26,26,0,0,1,50.76,96,25.49,25.49,0,0,1,54,104.56a25.87,25.87,0,0,1,.17,8.11A25.16,25.16,0,0,1,49.62,124l-.13-.12h0a.09.09,0,0,1,.13,0,.14.14,0,0,1,0,.06c0,2.31,0,4.1,0,5.33,0,.59,0,1,0,1.36S49.62,131.12,49.62,131.12Z"/><polygon class="cls-10" points="17.73 110.77 20.91 107.36 27.45 112.79 39.49 100.38 42.66 103.57 27.19 119.15 17.73 110.77"/></g><g id="Character"><path class="cls-12" d="M73.68,98.76A19.18,19.18,0,0,1,94,82.55l1,.07c10.64,1.4,15.4,11.23,13.7,21.83L105,142.07l-.18,7.78-25.35,2.3L80,135.73s-10.16-2.35-9.53-12.63C70.81,118.13,72.26,108,73.68,98.76Z"/><path class="cls-13" d="M80,135.71a25,25,0,0,0,13.75-3s-3.58,7.41-13.76,5.74Z"/><path class="cls-6" d="M77.66,109a1.46,1.46,0,0,0,1.3,1.58,1.4,1.4,0,0,0,1.61-1.21,1.48,1.48,0,0,0-1.3-1.59A1.41,1.41,0,0,0,77.66,109Z"/><path class="cls-6" d="M75.52,104c.17.2,1.34-.54,2.92-.42s2.67,1,2.86.81-.07-.43-.55-.84a4.06,4.06,0,0,0-2.27-.89,3.87,3.87,0,0,0-2.34.58C75.62,103.52,75.43,103.86,75.52,104Z"/><path class="cls-6" d="M92.45,110.42A1.47,1.47,0,0,0,93.76,112a1.42,1.42,0,0,0,1.61-1.21,1.48,1.48,0,0,0-1.31-1.58A1.4,1.4,0,0,0,92.45,110.42Z"/><path class="cls-6" d="M91,105.37c.17.21,1.35-.53,2.92-.41s2.68,1,2.87.81-.07-.44-.55-.84A4,4,0,0,0,94,104a3.91,3.91,0,0,0-2.34.57C91.12,105,90.93,105.28,91,105.37Z"/><path class="cls-6" d="M84.43,116.67A9.74,9.74,0,0,0,81.9,116c-.4-.08-.77-.18-.82-.46a2,2,0,0,1,.35-1.18c.45-.95.93-1.94,1.42-3,2-4.25,3.43-7.76,3.26-7.84s-1.91,3.31-3.88,7.56l-1.37,3a2.28,2.28,0,0,0-.32,1.57,1,1,0,0,0,.62.64,2.68,2.68,0,0,0,.67.14A11.38,11.38,0,0,0,84.43,116.67Z"/><path class="cls-6" d="M89,118.1c-.26,0-.39,1.67-1.94,2.78s-3.37.79-3.4,1,.39.36,1.15.44a4.27,4.27,0,0,0,2.83-.76,3.73,3.73,0,0,0,1.52-2.35C89.28,118.53,89.12,118.09,89,118.1Z"/><path class="cls-6" d="M91.06,99.16c.12.44,1.71.35,3.55.71s3.3,1,3.57.6c.12-.17-.11-.6-.68-1.06a6.1,6.1,0,0,0-2.6-1.12,6,6,0,0,0-2.83.12C91.37,98.64,91,99,91.06,99.16Z"/><path class="cls-6" d="M76.43,99.42c.25.38,1.37.09,2.68.17s2.39.41,2.68.06c.12-.18,0-.55-.49-.92A3.67,3.67,0,0,0,79.17,98a3.62,3.62,0,0,0-2.18.57C76.5,98.88,76.32,99.24,76.43,99.42Z"/><path class="cls-12" d="M106.35,114.33a2.79,2.79,0,0,1,3.21-2.47c1.9.32,4,1.56,3.54,5.51-.74,7-7.62,4.83-7.61,4.62S106,117.26,106.35,114.33Z"/><path class="cls-13" d="M107.29,119.52s.11.1.31.21a1.28,1.28,0,0,0,.91.12,3,3,0,0,0,1.68-2.57,3.88,3.88,0,0,0-.16-1.78,1.38,1.38,0,0,0-.82-1,.61.61,0,0,0-.75.26c-.12.18-.09.33-.12.33s-.14-.13-.06-.41a.79.79,0,0,1,.33-.41.89.89,0,0,1,.69-.11,1.7,1.7,0,0,1,1.16,1.22,4.23,4.23,0,0,1,.22,2c-.19,1.4-1.06,2.65-2.1,2.84a1.34,1.34,0,0,1-1.1-.31C107.28,119.69,107.26,119.53,107.29,119.52Z"/><path class="cls-6" d="M112,107.18c-.58,2-.37,5.35-2.17,4.89-3.56-.89-2.71,6.41-4.42,5.7s-3.18-2.79-3.28-7.28c-.14-5.71,2.16-9.83-.09-16.36a8.64,8.64,0,0,0-7.21-4.48,8.79,8.79,0,0,0-7.57,4c-.32-2-1.29-5-3.07-6a5.12,5.12,0,0,0-5.66.47,4.19,4.19,0,0,0-.75,5.45,2,2,0,0,1-2.24-.81,3.43,3.43,0,0,0,.89,2.56,3.14,3.14,0,0,1-1.81-1.26l.54,2.48c-3,.08-5.95-2.83-6.78-5.42-1.27-3.93-.29-7.88,1.9-11.38a12.34,12.34,0,0,1,10.24-5.91c4.12,0,7.58,2,9.17,5.79,2.67-1.89,8.09-2.55,11.08-1.19a9.63,9.63,0,0,1,5.48,7.63,5.73,5.73,0,0,1,5.68,1.1l.38.33a8.56,8.56,0,0,1,2.49,7.91c-.22,1.14-.61,2.32-.85,3.24C113.23,101.43,112,107.18,112,107.18Z"/><path class="cls-7" d="M75,92.64l-.24-.19a5.21,5.21,0,0,1-.59-.65,6.08,6.08,0,0,1-1.17-3,5.66,5.66,0,0,1,1.4-4.49,6.16,6.16,0,0,1,5.36-2,6.94,6.94,0,0,1,2.84,1.12,9.15,9.15,0,0,1,2.09,1.91,11.19,11.19,0,0,1,2.15,4.26,10.69,10.69,0,0,1,.35,3.19c0,.38,0,.67-.08.87s-.05.3-.07.3a12.74,12.74,0,0,0-.41-4.31,11.14,11.14,0,0,0-2.16-4.13,7.84,7.84,0,0,0-4.76-2.9,5.89,5.89,0,0,0-5.1,1.91,5.46,5.46,0,0,0-1.39,4.28,6.07,6.07,0,0,0,1,2.94C74.74,92.34,75.07,92.61,75,92.64Z"/><path class="cls-7" d="M73.67,95.78a2.79,2.79,0,0,1-.21-.35c-.13-.23-.32-.57-.55-1a21,21,0,0,1-1.65-3.91,11.29,11.29,0,0,1-.47-2.92,8.33,8.33,0,0,1,.61-3.33,6.49,6.49,0,0,1,2.41-2.86,7.93,7.93,0,0,1,3.81-1.27,9.53,9.53,0,0,1,4,.64,12.27,12.27,0,0,1,3.25,1.85,9.75,9.75,0,0,1,3.56,5.14A7.17,7.17,0,0,1,88.19,92a5.71,5.71,0,0,1-.53,1c-.15.21-.24.32-.24.32a11.79,11.79,0,0,0,.65-1.4,7,7,0,0,0,.11-4.12,9.62,9.62,0,0,0-3.51-5,10.71,10.71,0,0,0-7-2.4A7.55,7.55,0,0,0,74,81.65a6.15,6.15,0,0,0-2.31,2.72,8,8,0,0,0-.62,3.22,11.45,11.45,0,0,0,.42,2.86A24.56,24.56,0,0,0,73,94.37l.5,1A2.07,2.07,0,0,1,73.67,95.78Z"/><path class="cls-7" d="M109.49,102.64s.65-.52,1.5-1.54a10.3,10.3,0,0,0,2-9.67c-.38-1.27-.82-2-.77-2a1.88,1.88,0,0,1,.33.48,8.48,8.48,0,0,1,.65,1.46,9.77,9.77,0,0,1-3.23,11A1.81,1.81,0,0,1,109.49,102.64Z"/><path class="cls-7" d="M103.1,102.44s.35-.16.9-.54a5,5,0,0,0,1.77-2.13l.3-.67-.07.73c-.09,1-.19,2.13-.3,3.36l-.23-.13a9.41,9.41,0,0,0,2.3-2.25,9.08,9.08,0,0,0,1.54-7,12.24,12.24,0,0,0-1-2.91.61.61,0,0,1,.13.18,3.78,3.78,0,0,1,.32.53,8.94,8.94,0,0,1,.76,2.15,9.42,9.42,0,0,1,.09,3.39,9.29,9.29,0,0,1-4,6.14l-.27.18,0-.32c.13-1.23.25-2.36.35-3.35l.23.06a5,5,0,0,1-1.91,2.15,5.53,5.53,0,0,1-.71.35A.85.85,0,0,1,103.1,102.44Z"/><path class="cls-7" d="M101.15,87.66a6.6,6.6,0,0,0-1.63-2A6,6,0,0,0,97,84.46a6.24,6.24,0,0,0-3.38.31,7.12,7.12,0,0,0-2.83,1.91,8.41,8.41,0,0,0-1.52,2.37,17.33,17.33,0,0,0-.77,2.51,2.25,2.25,0,0,1,0-.71A9.05,9.05,0,0,1,89.06,89a8.4,8.4,0,0,1,1.52-2.47,7.31,7.31,0,0,1,2.93-2,6.44,6.44,0,0,1,3.55-.29,5.94,5.94,0,0,1,2.6,1.29A5,5,0,0,1,100.89,87a2.43,2.43,0,0,1,.21.49C101.14,87.59,101.16,87.66,101.15,87.66Z"/><path class="cls-7" d="M99.51,82.3a9.76,9.76,0,0,0-1.94-.74,7,7,0,0,0-4.82.68,8.81,8.81,0,0,0-3.41,3.54c-.61,1.14-.8,1.93-.86,1.91a1.64,1.64,0,0,1,.11-.56,8.84,8.84,0,0,1,.55-1.45A8.51,8.51,0,0,1,92.6,82a7,7,0,0,1,5-.62,5.82,5.82,0,0,1,1.44.61A1.79,1.79,0,0,1,99.51,82.3Z"/><path class="cls-6" d="M76.94,413.45l.7,19.23s-19.31,7.17-19.52,10.74l37.34,0,.12-30Z"/><path class="cls-3" d="M89.19,431.05a1.52,1.52,0,0,1,1,1.74,1.46,1.46,0,0,1-1.71,1.06A1.6,1.6,0,0,1,87.42,432a1.52,1.52,0,0,1,1.91-.9"/><path class="cls-6" d="M95.46,443.39l-.11-3-35.76,1.17s-1.66.72-1.47,1.89Z"/><path class="cls-4" d="M77,432.49c0,.18.92.26,1.81.85s1.38,1.35,1.55,1.28-.11-1.13-1.21-1.82S77,432.32,77,432.49Z"/><path class="cls-4" d="M73.12,434.11c0,.18.75.49,1.37,1.26s.8,1.58,1,1.58.3-1-.49-2S73.13,433.94,73.12,434.11Z"/><path class="cls-4" d="M70.9,438.8c.17,0,.42-.87-.05-1.87s-1.32-1.4-1.4-1.24.45.68.83,1.51S70.72,438.78,70.9,438.8Z"/><path class="cls-4" d="M77.36,428.09c.08.16.92-.09,2,0s1.83.39,1.93.24-.68-.81-1.9-.87S77.27,427.94,77.36,428.09Z"/><path class="cls-6" d="M119.78,415.21l1.49,23.23-4.13,18.72a2.39,2.39,0,0,0,2,2.87h0a2.35,2.35,0,0,0,2.07-.7c3.41-3.55,15.89-16.67,15.69-18.37-.24-2,.06-24.61.06-24.61Z"/><path class="cls-6" d="M119.12,460l17.69-20.64,0,1a3.59,3.59,0,0,1-.75,2.36c-1.41,1.8-5.4,6.67-14.84,16.59a2.4,2.4,0,0,1-2.14.7Z"/><g class="cls-14"><path class="cls-4" d="M131.73,432.08a1.44,1.44,0,0,0-.32,1.9,1.38,1.38,0,0,0,1.88.33,1.52,1.52,0,0,0,.33-2,1.45,1.45,0,0,0-2-.13"/></g><path class="cls-4" d="M124,449.65a5.12,5.12,0,0,0-4.81-2.13c0-.06.26-.25.8-.35a3.8,3.8,0,0,1,3.73,1.65C124,449.28,124.08,449.63,124,449.65Z"/><path class="cls-4" d="M122.49,452.83c-.11.11-.88-.62-2.1-.91a17.07,17.07,0,0,0-2.28-.2,2.61,2.61,0,0,1,2.41-.3C121.9,451.76,122.61,452.76,122.49,452.83Z"/><path class="cls-4" d="M126.94,445.53a22,22,0,0,0-3.15-1.63,24.28,24.28,0,0,0-3.48-.67,5.34,5.34,0,0,1,3.65.18A5.27,5.27,0,0,1,126.94,445.53Z"/><path class="cls-4" d="M127.08,438.43c-.06.14-1.36-.34-3-.34s-3,.47-3,.33a4.54,4.54,0,0,1,3-.84A4.65,4.65,0,0,1,127.08,438.43Z"/><path class="cls-4" d="M126.82,431.6a11.33,11.33,0,0,0-3.16-.44,11.6,11.6,0,0,0-3,.91c0-.05.2-.35.72-.69a5.24,5.24,0,0,1,2.29-.73A5.17,5.17,0,0,1,126,431C126.56,431.28,126.85,431.54,126.82,431.6Z"/><path class="cls-4" d="M123.65,429.86a2.13,2.13,0,0,1-.07-.88,6.12,6.12,0,0,1,.61-2.33,2.67,2.67,0,0,1,1.11-1.34,1,1,0,0,1,1.09.17,1.61,1.61,0,0,1,.41,1,3.38,3.38,0,0,1-2.83,3.24,3.92,3.92,0,0,1-3.92-1.88,1.34,1.34,0,0,1-.11-1.13,1,1,0,0,1,1-.54,3.38,3.38,0,0,1,1.57.74,6.82,6.82,0,0,1,1.66,1.74,2.12,2.12,0,0,1,.39.79,11,11,0,0,0-2.26-2.24,3.1,3.1,0,0,0-1.38-.6.5.5,0,0,0-.53.29.91.91,0,0,0,.12.73,3.5,3.5,0,0,0,3.42,1.6,3,3,0,0,0,2.44-2.72,1.13,1.13,0,0,0-.26-.73.52.52,0,0,0-.6-.1,2.4,2.4,0,0,0-1,1.12A8.88,8.88,0,0,0,123.65,429.86Z"/><path class="cls-6" d="M60.58,250.9a82.45,82.45,0,0,0-2.37,24.26c.28,5.18,16.9,154.7,16.9,154.7L96.26,428,92.6,288.16l.89.79s12.6,58.82,13.43,68.12c.75,8.36,10.81,75.5,10.81,75.5l20.52-1-4.65-84.87-6.23-77.06-2.49-22.44Z"/><path class="cls-7" d="M96.67,276.11a5,5,0,0,1-1,.53,11.34,11.34,0,0,1-2.94.95,6.11,6.11,0,0,1-2.17,0,4.45,4.45,0,0,1-2.24-1.14A5.29,5.29,0,0,1,87,274a28.53,28.53,0,0,1-.57-2.84c-.66-3.9-1.09-7.45-1.32-10-.12-1.29-.2-2.34-.23-3.06a5.21,5.21,0,0,1,0-1.13,5,5,0,0,1,.2,1.11c.1.82.23,1.84.39,3,.32,2.56.8,6.09,1.46,10,.34,1.92.55,3.87,1.72,5a4.88,4.88,0,0,0,4,1.15,12.58,12.58,0,0,0,2.91-.78A5.62,5.62,0,0,1,96.67,276.11Z"/><path class="cls-7" d="M90,257.73s.15-.12.48-.13a2.08,2.08,0,0,1,1.31.45,2.36,2.36,0,0,1,1,1.84,2.33,2.33,0,0,1-4,1.4,2.34,2.34,0,0,1-.4-2,2.13,2.13,0,0,1,.74-1.17c.27-.2.46-.22.47-.2a2.6,2.6,0,0,0-.86,1.44,2,2,0,0,0,.4,1.66,1.91,1.91,0,0,0,3.2-1.11,2.08,2.08,0,0,0-.71-1.56A2.67,2.67,0,0,0,90,257.73Z"/><path class="cls-7" d="M127.08,268.28a2.6,2.6,0,0,1-.8.1,13.75,13.75,0,0,1-2.21,0A21.48,21.48,0,0,1,111,262.49a16.55,16.55,0,0,1-1.49-1.63c-.31-.42-.48-.65-.45-.68s.8.83,2.18,2.05A23.73,23.73,0,0,0,124.1,268C125.93,268.23,127.08,268.19,127.08,268.28Z"/><path class="cls-7" d="M70.08,257.7a9.87,9.87,0,0,1-1.28,2.37,26.89,26.89,0,0,1-4.2,5,26.51,26.51,0,0,1-5.26,3.82,10.36,10.36,0,0,1-2.46,1.1,26.19,26.19,0,0,1,2.28-1.4,33.77,33.77,0,0,0,5.1-3.88,32.88,32.88,0,0,0,4.25-4.81A25.58,25.58,0,0,1,70.08,257.7Z"/><path class="cls-12" d="M49.1,173.24c-3.15,9.17-2.8,8.39-8.68,35.78-1.08,5.06.83,13,5.39,15.4s12.66-.24,15.37-4.64l4.37-41.35Z"/><path class="cls-10" d="M124.9,222.93l-.12-21.79.08-2.13L147,193.85s-4.34-14.31-8.33-29.68c-2.3-8.87-10-13.33-11.8-14.3h0l-.4-.19h0l-21.28-9c-4.29,4.59-10.56,8.26-16.59,6.5a18.86,18.86,0,0,1-8.75-6l-14.35,4.92h0a18.55,18.55,0,0,0-9.91,8c-3,5.31-12.59,29.66-12.76,30.2L60.56,186s-3.15,57.61-2,67.91c0,0,4.31,3,15.2,3.49,22.07,1,54.92-.52,54.92-.52-.51-3.33-1.05-8.88-1.36-11.69Z"/><path class="cls-6" d="M61.17,164.49c.09,0-.38,13.74-1.06,30.68s-1.29,30.68-1.38,30.68.39-13.74,1.06-30.69S61.08,164.48,61.17,164.49Z"/><path class="cls-6" d="M122.47,168.33c-.16,0,.29,12.2,1,27.23s1.41,27.21,1.56,27.21-.29-12.2-1-27.24S122.63,168.32,122.47,168.33Z"/><path class="cls-12" d="M147.08,204.21c-.72-5.4-1.32-10.19-1.32-10.19l-17.69,4.11.76,2.85-13.67-13.89-2.16.19-6.88,7.16s6,12.66,9.48,17.6c4.54,6.41,11.68,16.19,21.45,15.37C146.08,226.65,148.37,213.92,147.08,204.21Z"/><path class="cls-13" d="M137.5,207.45a15.6,15.6,0,0,0-3.89-3.57,15,15,0,0,0-4.62-2.55c-.08.14,1.95,1.33,4.29,3S137.38,207.57,137.5,207.45Z"/><path class="cls-12" d="M91.3,169l6.07-3.1,7.88,2.51,3.91,3.6,6,15.11,4.81,6.09-8.48,11.06-5.37-9.8s-4.56-2-6.38-4.87-2.65-4.44-2.65-4.44-2.63-1.26-3.11-2.47a6,6,0,0,1-.47-2.16l1.33-1.94a4.89,4.89,0,0,1,.4-2.48,2.41,2.41,0,0,1,1.05-.84s-.39-1.64.23-2.23a19,19,0,0,1,3.63-1.66h0l-2.65-1.51S91.62,171.66,91.3,169Z"/><path class="cls-13" d="M100.32,174.46c0,.08-.93.1-2,.34s-2,.59-2,.52a4.62,4.62,0,0,1,2-.77A4.75,4.75,0,0,1,100.32,174.46Z"/><path class="cls-13" d="M98.49,177.86c0,.07-.79.07-1.75.22s-1.72.38-1.75.31a3.77,3.77,0,0,1,1.71-.57A3.71,3.71,0,0,1,98.49,177.86Z"/><path class="cls-13" d="M95.92,183.17c-.07,0-.12-.35-.11-.77s.07-.77.15-.77.12.34.11.77S96,183.17,95.92,183.17Z"/><path class="cls-13" d="M97.09,184.81a3.77,3.77,0,0,0-.56-1.4,3.59,3.59,0,0,0-1.23-.88s.19-.05.48,0a2,2,0,0,1,1,.68,2,2,0,0,1,.43,1.08C97.18,184.64,97.12,184.81,97.09,184.81Z"/><path class="cls-13" d="M101.84,180a4.05,4.05,0,0,0-1.06-1,3.86,3.86,0,0,0-1.44-.35s.16-.12.45-.14a2.13,2.13,0,0,1,1.12.27,2,2,0,0,1,.8.81C101.85,179.77,101.87,180,101.84,180Z"/><path class="cls-13" d="M104.61,176.6c-.07,0-.31-.6-1-1a4.76,4.76,0,0,0-1.32-.46s.16-.09.44-.08a2,2,0,0,1,1,.32,2.06,2.06,0,0,1,.73.8C104.62,176.42,104.64,176.59,104.61,176.6Z"/><path class="cls-13" d="M106.46,175s0-.21-.06-.52a2.45,2.45,0,0,0-.45-1.11,2.41,2.41,0,0,0-.94-.75c-.28-.13-.48-.17-.48-.21s.22-.06.55,0a2.12,2.12,0,0,1,1.5,2C106.58,174.76,106.49,175,106.46,175Z"/><path class="cls-13" d="M103.89,171c0,.09-1.28.11-2.81.35s-2.69.77-2.72.7a6.31,6.31,0,0,1,2.68-1,12.25,12.25,0,0,1,2-.15A2.8,2.8,0,0,1,103.89,171Z"/><g class="cls-8"><path d="M86.59,205.15a11,11,0,0,0-1.5-5c-1.78-2.51-5.27-3-8.34-2.89s-6.25.75-9.14-.3L59,222.51a12.9,12.9,0,0,0,7.78-5.67c.88-1.43,1.52-3.09,2.85-4.11,1.83-1.41,4.38-1.2,6.69-1.23a26.73,26.73,0,0,0,7.16-1.05A4.78,4.78,0,0,0,86.1,209C86.88,207.9,86.75,206.45,86.59,205.15Z"/></g><path class="cls-6" d="M64.4,175.2l2.67,28.47A4,4,0,0,0,68.83,207l17.27-.37a6.87,6.87,0,0,0,1.32-4.84l-1.91-27.25c-.12-1.64-.73-2.82-1.47-2.84l-18.19-.42C64.93,171.21,64.21,173.17,64.4,175.2Z"/><path class="cls-12" d="M61.89,180.93a2.51,2.51,0,0,1,0-3.09,3.84,3.84,0,0,1,3-1.32,8.48,8.48,0,0,1,3.24.75,20.87,20.87,0,0,1,3.65,1.93,3.54,3.54,0,0,1,1.79,2.19c.14,1-.93,2-1.76,1.54a4.06,4.06,0,0,1,2.31,2.89c.15,1.22-.51,1.85-1.7,2.18a1.83,1.83,0,0,1,1,2.36,2.11,2.11,0,0,1-2.65.74,6,6,0,0,1-2.25-2,6.87,6.87,0,0,1,.3,4.33c-2.57-.94-5.11-3.81-4.34-6.53a3.7,3.7,0,0,1-1-4.41,3.6,3.6,0,0,1-2.08-3.07"/><path class="cls-12" d="M61.6,178.44l-.21,12.17-3.15,4.75L43.76,208.3s2.15,17.58,8.68,15.66,8.12-3.17,12-10.26c2.07-3.8,3.34-10,4.54-13.53.7-2.08.08-8.78.08-8.78Z"/><path class="cls-13" d="M72.41,188a10.93,10.93,0,0,1-1.1-.89,7.82,7.82,0,0,0-2.93-1.58,4.08,4.08,0,0,0-1.8,0,3.36,3.36,0,0,0-1.33.63,4.07,4.07,0,0,0-.88,1.06.88.88,0,0,1,.11-.37,2.75,2.75,0,0,1,.64-.85,3.43,3.43,0,0,1,1.4-.72,4.2,4.2,0,0,1,1.93,0,7,7,0,0,1,3,1.71A5.71,5.71,0,0,1,72.41,188Z"/><path class="cls-13" d="M72.24,183.05a5.59,5.59,0,0,1-1.35-.6c-.41-.2-.89-.45-1.44-.66a11.36,11.36,0,0,0-1.86-.53,5.28,5.28,0,0,0-1.89-.06,3.16,3.16,0,0,0-2.36,1.65s0-.15.11-.39a2.75,2.75,0,0,1,.71-.85,3.48,3.48,0,0,1,1.49-.67,5.21,5.21,0,0,1,2,0,10.89,10.89,0,0,1,1.9.56,12.43,12.43,0,0,1,1.43.74A11.41,11.41,0,0,1,72.24,183.05Z"/><path class="cls-13" d="M45.32,215.29a12.1,12.1,0,0,1-.18-4.53,13.82,13.82,0,0,1,1.71-4.6,22.62,22.62,0,0,1,3.83-4.69c1.55-1.5,3.16-2.82,4.58-4.05A43.88,43.88,0,0,0,58.92,194,20,20,0,0,0,61,191.31a4.25,4.25,0,0,0,.6-1.09,10.38,10.38,0,0,0-.75,1,27,27,0,0,1-2.2,2.54c-1,1-2.26,2.13-3.7,3.34s-3.06,2.52-4.64,4a22.08,22.08,0,0,0-3.87,4.82,13.49,13.49,0,0,0-1.66,4.77,9.74,9.74,0,0,0,.11,3.4,4.86,4.86,0,0,0,.27.89C45.26,215.2,45.31,215.3,45.32,215.29Z"/></g></g></svg>