<svg xmlns="http://www.w3.org/2000/svg" viewBox="0 0 642.24 420.45"><defs><style>.cls-1{fill:#ebebeb;}.cls-2{fill:#f5f5f5;}.cls-3{fill:#e0e0e0;}.cls-4{fill:#fafafa;}.cls-5,.cls-7{fill:#fff;}.cls-6{fill:#ff725e;}.cls-7{fill-rule:evenodd;}.cls-8{fill:#455a64;}.cls-9{fill:#263238;}.cls-10{fill:none;}.cls-11{fill:#ffbe9d;}.cls-12{fill:#eb996e;}.cls-13{opacity:0.6;}.cls-14{opacity:0.3;}.cls-15{fill:#aa6550;}.cls-16{fill:#724940;}</style></defs><g id="Layer_2" data-name="Layer 2"><g id="Background_Complete" data-name="Background Complete"><path class="cls-1" d="M67.22,338.7l-2.18.6L58.43,334l-1.21-4.36s-3.43.73-1.44,6.32,1.15,4.26,1.15,4.26-7.15,2-7.57,2.81c-.31.57,1.47,7.73,2.47,11.61A4.34,4.34,0,0,0,56,358a3,3,0,0,0,.8-.11c1.79-.5,10.5-4.49,10.5-4.49L71,352.37Z"/><polygon class="cls-1" points="73.13 335.76 75.94 351.05 72.21 352.09 68.14 337.48 73.13 335.76"/><path class="cls-2" d="M460.22,387.35v17.5H457.3v1.9h2.92v11.71h54.61V407.8h-4.05v-2.32h4.05V402h1.8v-1.59h-2.14V387.35Z"/><polygon class="cls-3" points="500.33 387.4 500.33 418.26 514.83 418.26 514.83 407.61 510.78 407.61 510.78 405.48 514.83 405.55 514.83 402.07 516.66 402.07 516.63 400.27 514.49 400.22 514.49 387.35 500.33 387.4"/><path class="cls-3" d="M501.36,406.49c0,.11-9.88.2-22.07.2s-22.07-.09-22.07-.2,9.88-.19,22.07-.19S501.36,406.39,501.36,406.49Z"/><path class="cls-3" d="M501.36,404.72c0,.1-9.88.19-22.07.19s-22.07-.09-22.07-.19,9.88-.2,22.07-.2S501.36,404.61,501.36,404.72Z"/><path class="cls-3" d="M504.19,399.93c0,.11-9.88.2-22.06.2s-22.08-.09-22.08-.2,9.88-.19,22.08-.19S504.19,399.83,504.19,399.93Z"/><path class="cls-3" d="M504.47,413c0,.11-9.88.19-22.07.19s-22.07-.08-22.07-.19,9.88-.2,22.07-.2S504.47,412.86,504.47,413Z"/><rect class="cls-2" x="548.44" y="366.56" width="12.18" height="14.48"/><rect class="cls-3" x="493.83" y="365.61" width="55.03" height="16.33"/><path class="cls-3" d="M561,367h-13.6v-1.38H561a.69.69,0,0,1,.69.69h0A.69.69,0,0,1,561,367Z"/><path class="cls-3" d="M561,381.94h-13.6v-1.37H561a.69.69,0,0,1,.69.69h0A.68.68,0,0,1,561,381.94Z"/><rect class="cls-1" x="538.03" y="365.61" width="6.5" height="16.33"/><rect class="cls-1" x="499.06" y="365.79" width="6.5" height="16.33"/><path class="cls-3" d="M560.62,369s-2.64.07-5.89.07-5.89,0-5.89-.07,2.64-.07,5.89-.07S560.62,368.91,560.62,369Z"/><path class="cls-3" d="M560.62,371.12s-2.64.07-5.89.07-5.89,0-5.89-.07,2.64-.07,5.89-.07S560.62,371.08,560.62,371.12Z"/><path class="cls-3" d="M560.62,373.79s-2.64.08-5.89.08-5.89,0-5.89-.08,2.64-.07,5.89-.07S560.62,373.75,560.62,373.79Z"/><path class="cls-3" d="M560.62,376.47s-2.64.07-5.89.07-5.89,0-5.89-.07,2.64-.07,5.89-.07S560.62,376.43,560.62,376.47Z"/><path class="cls-3" d="M560.62,379.14s-2.64.07-5.89.07-5.89,0-5.89-.07,2.64-.07,5.89-.07S560.62,379.1,560.62,379.14Z"/><rect class="cls-1" x="509.78" y="372.32" width="24.76" height="2.94"/><rect class="cls-4" x="548.13" y="382.26" width="12.36" height="8.82"/><rect class="cls-2" x="495.65" y="381.94" width="52.61" height="9.46"/><path class="cls-2" d="M547.88,382.58h13.29a.32.32,0,0,0,.32-.32h0a.32.32,0,0,0-.32-.32H547.88Z"/><path class="cls-2" d="M547.88,391.4h13.29a.32.32,0,0,0,.32-.32h0a.32.32,0,0,0-.32-.32H547.88Z"/><path class="cls-3" d="M560.49,383.94s-2.74.07-6.11.07-6.11,0-6.11-.07,2.73-.07,6.11-.07S560.49,383.9,560.49,383.94Z"/><path class="cls-3" d="M560.49,385.61s-2.74.07-6.11.07-6.11,0-6.11-.07,2.73-.08,6.11-.08S560.49,385.57,560.49,385.61Z"/><path class="cls-3" d="M560.49,387.28s-2.74.07-6.11.07-6.11,0-6.11-.07,2.73-.08,6.11-.08S560.49,387.24,560.49,387.28Z"/><path class="cls-3" d="M560.49,388.94s-2.74.08-6.11.08-6.11,0-6.11-.08,2.73-.07,6.11-.07S560.49,388.9,560.49,388.94Z"/><rect class="cls-1" x="549.75" y="392.24" width="12.62" height="23.91"/><rect class="cls-3" x="490.52" y="391.4" width="59.23" height="25.92"/><path class="cls-3" d="M563.35,417.33H548.13v-1.68h15.22a.83.83,0,0,1,.84.84h0A.84.84,0,0,1,563.35,417.33Z"/><path class="cls-3" d="M563.35,393.08H548.13V391.4h15.22a.84.84,0,0,1,.84.84h0A.83.83,0,0,1,563.35,393.08Z"/><path class="cls-3" d="M562.37,395.45s-2.83.07-6.31.07-6.31,0-6.31-.07,2.82-.07,6.31-.07S562.37,395.41,562.37,395.45Z"/><path class="cls-3" d="M562.37,398.52s-2.83.07-6.31.07-6.31,0-6.31-.07,2.82-.08,6.31-.08S562.37,398.48,562.37,398.52Z"/><path class="cls-3" d="M562.37,401.58s-2.83.07-6.31.07-6.31,0-6.31-.07,2.82-.07,6.31-.07S562.37,401.54,562.37,401.58Z"/><path class="cls-3" d="M562.37,404.65s-2.83.07-6.31.07-6.31,0-6.31-.07,2.82-.07,6.31-.07S562.37,404.61,562.37,404.65Z"/><path class="cls-3" d="M562.37,407.71s-2.83.08-6.31.08-6.31,0-6.31-.08,2.82-.07,6.31-.07S562.37,407.68,562.37,407.71Z"/><path class="cls-3" d="M562.37,410.78s-2.83.07-6.31.07-6.31,0-6.31-.07,2.82-.07,6.31-.07S562.37,410.74,562.37,410.78Z"/><path class="cls-3" d="M562.37,413.85s-2.83.07-6.31.07-6.31,0-6.31-.07,2.82-.07,6.31-.07S562.37,413.81,562.37,413.85Z"/><path class="cls-1" d="M510.78,405.78v1.45c0,1.73-.86,2.73-2.54,2.73s-2.54-1-2.54-2.73v-5.65c0-1.74.87-2.73,2.54-2.73s2.54,1,2.54,2.73v1.06h-1.61v-1.17c0-.77-.34-1.07-.88-1.07s-.89.3-.89,1.07v5.86c0,.78.34,1.06.89,1.06s.88-.28.88-1.06v-1.55Z"/><path class="cls-1" d="M511.68,401.58a2.59,2.59,0,1,1,5.18,0v5.65a2.59,2.59,0,1,1-5.18,0Zm1.71,5.75c0,.78.34,1.08.88,1.08s.89-.3.89-1.08v-5.86c0-.77-.34-1.07-.89-1.07s-.88.3-.88,1.07Z"/><path class="cls-1" d="M518,399h1.71v9.31h2.81v1.55H518Z"/><path class="cls-1" d="M523.08,401.58a2.59,2.59,0,1,1,5.18,0v5.65a2.59,2.59,0,1,1-5.18,0Zm1.71,5.75c0,.78.34,1.08.88,1.08s.88-.3.88-1.08v-5.86c0-.77-.34-1.07-.88-1.07s-.88.3-.88,1.07Z"/><path class="cls-1" d="M531,399v8.38c0,.78.34,1.06.88,1.06s.89-.28.89-1.06V399h1.61v8.27c0,1.74-.87,2.73-2.54,2.73s-2.55-1-2.55-2.73V399Z"/><path class="cls-1" d="M539.1,409.83a3.35,3.35,0,0,1-.16-1.33v-1.71c0-1-.34-1.38-1.11-1.38h-.59v4.42h-1.71V399h2.58c1.77,0,2.53.83,2.53,2.5v.85a2.18,2.18,0,0,1-1.12,2.21c.85.35,1.13,1.18,1.13,2.31v1.67a3.2,3.2,0,0,0,.19,1.32Zm-1.86-9.3v3.33h.67c.63,0,1-.28,1-1.15v-1.07c0-.77-.26-1.11-.87-1.11Z"/><path class="cls-3" d="M510.42,385.67h-1.25l.07-.32h2.85l-.07.32h-1.24l-.64,3.2h-.36Z"/><path class="cls-3" d="M514.49,386.22l-1.94,3c-.32.51-.57.66-.95.66a.85.85,0,0,1-.63-.23l.19-.26a.62.62,0,0,0,.47.19c.22,0,.4-.11.61-.43l.18-.28-.66-2.64h.37l.54,2.26,1.45-2.26Z"/><path class="cls-3" d="M517.43,387.32a1.49,1.49,0,0,1-1.5,1.58,1,1,0,0,1-1-.58l-.31,1.53h-.35l.72-3.63h.34l-.09.43a1.33,1.33,0,0,1,1-.45A1.07,1.07,0,0,1,517.43,387.32Zm-.36,0a.78.78,0,0,0-.87-.83,1.16,1.16,0,0,0-1.14,1.25.77.77,0,0,0,.87.82A1.15,1.15,0,0,0,517.07,387.34Z"/><path class="cls-3" d="M517.85,387.77a1.5,1.5,0,0,1,1.53-1.57,1.08,1.08,0,0,1,1.2,1.12,1.5,1.5,0,0,1-1.53,1.58A1.1,1.1,0,0,1,517.85,387.77Zm2.38-.43a.78.78,0,0,0-.87-.83,1.17,1.17,0,0,0-1.15,1.25.77.77,0,0,0,.87.82A1.16,1.16,0,0,0,520.23,387.34Z"/><path class="cls-3" d="M524,386.22l-.46,2.33a1.41,1.41,0,0,1-1.54,1.32,1.71,1.71,0,0,1-1.18-.39l.21-.28a1.37,1.37,0,0,0,1,.36,1,1,0,0,0,1.15-.95l.06-.29a1.38,1.38,0,0,1-1.06.45A1,1,0,0,1,521,387.7a1.46,1.46,0,0,1,1.51-1.5,1,1,0,0,1,1,.61l.11-.59Zm-.6,1.06c0-.48-.33-.77-.88-.77a1.12,1.12,0,0,0-1.15,1.17c0,.49.32.77.88.77A1.12,1.12,0,0,0,523.41,387.28Z"/><path class="cls-3" d="M526.35,386.2l-.07.35h-.1a1.05,1.05,0,0,0-1.07,1l-.27,1.34h-.36l.53-2.65h.34l-.09.49A1.2,1.2,0,0,1,526.35,386.2Z"/><path class="cls-3" d="M529.38,386.22l-.52,2.65h-.35l.09-.42a1.36,1.36,0,0,1-1,.45,1.08,1.08,0,0,1-1.16-1.13,1.5,1.5,0,0,1,1.5-1.57,1,1,0,0,1,1,.58l.11-.56Zm-.59,1.12a.78.78,0,0,0-.87-.83,1.17,1.17,0,0,0-1.15,1.25.77.77,0,0,0,.87.82A1.16,1.16,0,0,0,528.79,387.34Z"/><path class="cls-3" d="M532.82,387.32a1.49,1.49,0,0,1-1.5,1.58,1,1,0,0,1-1-.58l-.3,1.53h-.36l.73-3.63h.34l-.09.43a1.32,1.32,0,0,1,1-.45A1.08,1.08,0,0,1,532.82,387.32Zm-.36,0a.78.78,0,0,0-.87-.83,1.16,1.16,0,0,0-1.14,1.25.77.77,0,0,0,.87.82A1.15,1.15,0,0,0,532.46,387.34Z"/><path class="cls-3" d="M536,387.06a1.71,1.71,0,0,1,0,.31l-.3,1.5h-.36l.3-1.51a1.12,1.12,0,0,0,0-.24c0-.38-.23-.59-.69-.59a1,1,0,0,0-1.08.92l-.28,1.42h-.36l.75-3.74h.36l-.3,1.49a1.29,1.29,0,0,1,1-.42A.84.84,0,0,1,536,387.06Z"/><path class="cls-3" d="M539.38,386.22l-1.94,3c-.32.51-.57.66-1,.66a.85.85,0,0,1-.63-.23l.19-.26a.62.62,0,0,0,.47.19c.22,0,.4-.11.61-.43l.18-.28-.66-2.64H537l.54,2.26,1.45-2.26Z"/><path class="cls-1" d="M123.24,199.05h0a28.7,28.7,0,0,1-28.69-28.69h0a28.69,28.69,0,0,1,28.69-28.69h0a28.69,28.69,0,0,1,28.69,28.69h0A28.7,28.7,0,0,1,123.24,199.05Z"/><path class="cls-5" d="M123.24,152.07a18.29,18.29,0,1,0,18.29,18.29A18.29,18.29,0,0,0,123.24,152.07Zm0,3.18a15,15,0,0,1,9.21,3.16,18.52,18.52,0,0,1-7.6,5.61,70.43,70.43,0,0,0-5.32-8.29A15.15,15.15,0,0,1,123.24,155.25Zm-6.82,1.64a67.74,67.74,0,0,1,5.39,8.21,48.22,48.22,0,0,1-13.23,1.68A15.15,15.15,0,0,1,116.42,156.89Zm-8.29,13.47c0-.13,0-.26,0-.39a50.83,50.83,0,0,0,15.16-2c.36.73.7,1.45,1,2.19A23.56,23.56,0,0,0,111.63,180,15,15,0,0,1,108.13,170.36Zm15.11,15.11a15,15,0,0,1-9.27-3.21,20.48,20.48,0,0,1,11.58-9.18,59.82,59.82,0,0,1,3.11,11.37A15,15,0,0,1,123.24,185.47Zm8.38-2.55a61.82,61.82,0,0,0-2.92-10.51,30.19,30.19,0,0,1,9.45.3A15.12,15.12,0,0,1,131.62,182.92Zm-4.14-13.52c-.37-.86-.76-1.72-1.17-2.56a21.75,21.75,0,0,0,8.46-6.22,15,15,0,0,1,3.53,8.89A32.33,32.33,0,0,0,127.48,169.4Z"/><path class="cls-1" d="M27.66,135.4l-3.34,1.84-12.88-6.18-3.66-6.68s-5.35,2.52.06,10.93,3.52,6.55,3.52,6.55S.4,147.92,0,149.37c-.28,1.06,5.39,12.13,8.52,18.11a7.29,7.29,0,0,0,8.07,4,5,5,0,0,0,1.27-.49c2.74-1.5,15.52-11.39,15.52-11.39l5.77-3.17Z"/><polygon class="cls-1" points="36.24 128.32 46.72 152.33 40.99 155.47 28.7 133.05 36.24 128.32"/><circle class="cls-2" cx="394.38" cy="34.76" r="34.76" transform="translate(-1.36 23.14) rotate(-3.35)"/><path class="cls-3" d="M382.39,26c1.32-.11,2.51,1.35,2.67,3.25s-.79,3.53-2.1,3.64-2.52-1.35-2.67-3.25S381.07,26.11,382.39,26Z"/><path class="cls-3" d="M385.44,17.2c0,.3-2.93,0-6.19,1.26s-5.31,3.27-5.52,3.06,1.63-2.71,5.18-4S385.54,17,385.44,17.2Z"/><path class="cls-3" d="M404.49,25.55C403.17,25.49,402,27,402,28.9s.93,3.5,2.25,3.55,2.46-1.45,2.54-3.35S405.81,25.6,404.49,25.55Z"/><path class="cls-3" d="M401.07,16.88c-.1-.24,3-1.13,6.54.05s5.56,3.65,5.34,3.78-2.32-1.79-5.64-2.83S401.11,17.18,401.07,16.88Z"/><path class="cls-3" d="M411.53,34.41a5.79,5.79,0,0,1-.24,1.86,15.74,15.74,0,0,1-2,4.72,18.53,18.53,0,0,1-5.3,5.48,16.85,16.85,0,0,1-17.94.94,18.6,18.6,0,0,1-5.85-4.91A15.75,15.75,0,0,1,377.69,38a5.66,5.66,0,0,1-.44-1.83c.21-.09.75,2.62,3.48,5.86a18.68,18.68,0,0,0,5.72,4.54,16.35,16.35,0,0,0,17-.88,18.73,18.73,0,0,0,5.22-5.11C411.06,37.1,411.31,34.34,411.53,34.41Z"/><circle class="cls-2" cx="621.85" cy="102.85" r="20.39" transform="translate(120.26 484.53) rotate(-46.66)"/><path class="cls-3" d="M614.82,97.72c.77-.07,1.47.79,1.56,1.9s-.46,2.07-1.23,2.14-1.47-.79-1.57-1.91S614,97.78,614.82,97.72Z"/><path class="cls-3" d="M616.61,92.56a23.38,23.38,0,0,0-3.63.73,23.25,23.25,0,0,0-3.24,1.8,5.18,5.18,0,0,1,3-2.35C614.85,92,616.66,92.41,616.61,92.56Z"/><path class="cls-3" d="M627.78,97.45c-.78,0-1.44.85-1.49,2s.55,2,1.32,2.08,1.44-.85,1.49-2S628.55,97.48,627.78,97.45Z"/><path class="cls-3" d="M625.77,92.37a6.42,6.42,0,0,1,7,2.24A24.24,24.24,0,0,0,629.43,93,23.21,23.21,0,0,0,625.77,92.37Z"/><path class="cls-3" d="M631.91,102.65a3.45,3.45,0,0,1-.14,1.09,9.34,9.34,0,0,1-1.19,2.77,10.89,10.89,0,0,1-3.11,3.21,9.85,9.85,0,0,1-10.52.55,10.78,10.78,0,0,1-3.43-2.88,9,9,0,0,1-1.46-2.63,3,3,0,0,1-.25-1.07,15.25,15.25,0,0,0,2,3.44,10.81,10.81,0,0,0,3.35,2.66,9.59,9.59,0,0,0,10-.52,11,11,0,0,0,3.07-3A15.85,15.85,0,0,0,631.91,102.65Z"/><path class="cls-1" d="M103,233.14l-2.17-.36-3.66-7.36.71-4.33s-3.32-.75-3.85,5-.72,4.22-.72,4.22-7.12-1.13-7.81-.61c-.5.38-1.85,7.41-2.55,11.24a4.19,4.19,0,0,0,2.26,4.65,3.08,3.08,0,0,0,.75.23c1.78.29,11.08.33,11.08.33l3.74.61Z"/><polygon class="cls-1" points="109.37 232.96 105.62 247.57 101.91 246.97 104.28 232.44 109.37 232.96"/><path class="cls-1" d="M583.44,13.34,581.27,13l-3.66-7.36.71-4.33s-3.32-.75-3.85,5-.72,4.22-.72,4.22-7.12-1.13-7.81-.61c-.5.38-1.85,7.41-2.55,11.23a4.2,4.2,0,0,0,2.26,4.66,3.08,3.08,0,0,0,.75.23c1.77.29,11.08.33,11.08.33l3.74.61Z"/><polygon class="cls-1" points="589.84 13.16 586.09 27.77 582.38 27.16 584.74 12.63 589.84 13.16"/></g><g id="Social_Media_Icons" data-name="Social Media Icons"><path class="cls-6" d="M127,369h0a24.46,24.46,0,0,1-24.47-24.47h0A24.46,24.46,0,0,1,127,320.09h0a24.46,24.46,0,0,1,24.47,24.47h0A24.46,24.46,0,0,1,127,369Z"/><path class="cls-7" d="M140.39,343.88a13.18,13.18,0,0,0-26.34-.24c0,.19,0,.38,0,.57a13,13,0,0,0,1.89,6.76l-2.37,7,7.3-2.32a13.2,13.2,0,0,0,19.54-11.46Zm-13.18,11.33a11,11,0,0,1-6.09-1.82l-4.26,1.36,1.38-4.09a10.92,10.92,0,0,1-2.11-6.45,9.42,9.42,0,0,1,.06-1.06,11.09,11.09,0,0,1,22.07.21c0,.28,0,.56,0,.85A11.06,11.06,0,0,1,127.21,355.21Z"/><path class="cls-7" d="M133.25,346.85c-.32-.16-1.91-.93-2.2-1s-.52-.16-.73.16-.84,1-1,1.25-.37.25-.7.08a8.74,8.74,0,0,1-2.6-1.59,9.46,9.46,0,0,1-1.79-2.21c-.19-.32,0-.5.14-.66s.32-.37.49-.56l.11-.15a4.32,4.32,0,0,0,.21-.38.6.6,0,0,0,0-.57c-.08-.16-.73-1.74-1-2.38s-.53-.53-.73-.53-.4,0-.61,0a1.21,1.21,0,0,0-.87.4,3.62,3.62,0,0,0-1.13,2.68,4,4,0,0,0,.17,1.09,7.12,7.12,0,0,0,1.16,2.22c.16.21,2.23,3.56,5.51,4.85s3.29.85,3.88.79a3.23,3.23,0,0,0,2.18-1.52,2.68,2.68,0,0,0,.19-1.53A1.76,1.76,0,0,0,133.25,346.85Z"/><path class="cls-6" d="M60.18,212.13h0a18.86,18.86,0,0,1-18.86-18.86h0a18.85,18.85,0,0,1,18.86-18.86h0A18.86,18.86,0,0,1,79,193.27h0A18.87,18.87,0,0,1,60.18,212.13Z"/><path class="cls-5" d="M54.14,195a.44.44,0,0,0,.64-.32c.06-.23.2-.8.27-1a.62.62,0,0,0-.19-.71,3.72,3.72,0,0,1-.85-2.53,6.1,6.1,0,0,1,6.34-6.16c3.45,0,5.35,2.11,5.35,4.93,0,3.71-1.64,6.84-4.08,6.84a2,2,0,0,1-2-2.47c.39-1.63,1.14-3.39,1.14-4.57A1.73,1.73,0,0,0,59,187.06c-1.37,0-2.48,1.42-2.48,3.33a4.93,4.93,0,0,0,.41,2s-1.41,6-1.65,7a14,14,0,0,0,0,4.88.17.17,0,0,0,.3.08,13.76,13.76,0,0,0,2.33-4.21c.15-.57.9-3.54.9-3.54a3.69,3.69,0,0,0,3.14,1.6c4.14,0,6.95-3.77,6.95-8.81,0-3.82-3.24-7.37-8.15-7.37-6.11,0-9.19,4.38-9.19,8C51.51,192.32,52.34,194.29,54.14,195Z"/><path class="cls-8" d="M37.52,302.22h0A25.83,25.83,0,0,1,11.7,276.39h0a25.82,25.82,0,0,1,25.82-25.82h0a25.82,25.82,0,0,1,25.82,25.82h0A25.83,25.83,0,0,1,37.52,302.22Z"/><path class="cls-5" d="M37.52,264.79c3.78,0,4.23,0,5.72.08a7.6,7.6,0,0,1,2.63.49,4.4,4.4,0,0,1,1.63,1.05A4.55,4.55,0,0,1,48.56,268a7.93,7.93,0,0,1,.48,2.63c.07,1.49.09,1.94.09,5.72s0,4.23-.09,5.72a7.93,7.93,0,0,1-.48,2.63,4.69,4.69,0,0,1-2.69,2.69,7.86,7.86,0,0,1-2.63.49c-1.49.07-1.94.08-5.72.08s-4.23,0-5.72-.08a7.86,7.86,0,0,1-2.63-.49,4.42,4.42,0,0,1-1.63-1.06,4.34,4.34,0,0,1-1.06-1.63,8.13,8.13,0,0,1-.49-2.63c-.07-1.49-.08-1.94-.08-5.72s0-4.23.08-5.72a8.13,8.13,0,0,1,.49-2.63,4.64,4.64,0,0,1,2.69-2.68,7.6,7.6,0,0,1,2.63-.49c1.49-.07,1.94-.08,5.72-.08m0-2.56c-3.85,0-4.33,0-5.84.09a10.42,10.42,0,0,0-3.44.66,6.79,6.79,0,0,0-2.5,1.63,6.94,6.94,0,0,0-1.64,2.51,10.42,10.42,0,0,0-.66,3.44c-.06,1.51-.08,2-.08,5.83s0,4.33.08,5.84a10.42,10.42,0,0,0,.66,3.44,7.27,7.27,0,0,0,4.14,4.14,10.42,10.42,0,0,0,3.44.66c1.51.07,2,.08,5.84.08s4.33,0,5.84-.08a10.41,10.41,0,0,0,3.43-.66,7,7,0,0,0,2.51-1.63,6.91,6.91,0,0,0,1.63-2.51,10.42,10.42,0,0,0,.66-3.44c.07-1.51.09-2,.09-5.84s0-4.32-.09-5.83a10.42,10.42,0,0,0-.66-3.44A7.2,7.2,0,0,0,46.79,263a10.41,10.41,0,0,0-3.43-.66c-1.51-.07-2-.09-5.84-.09"/><path class="cls-5" d="M37.52,269.12a7.27,7.27,0,1,0,7.27,7.27,7.27,7.27,0,0,0-7.27-7.27m0,12a4.72,4.72,0,1,1,4.72-4.72,4.72,4.72,0,0,1-4.72,4.72"/><path class="cls-5" d="M46.77,268.84a1.7,1.7,0,1,1-1.69-1.7,1.69,1.69,0,0,1,1.69,1.7"/><path class="cls-8" d="M100.45,136.72h0a15.56,15.56,0,0,1-15.56-15.55h0a15.56,15.56,0,0,1,15.56-15.56h0A15.56,15.56,0,0,1,116,121.17h0A15.55,15.55,0,0,1,100.45,136.72Z"/><path class="cls-5" d="M98.08,130.57h3.78v-9.48h2.65l.28-3.18h-2.93v-1.8c0-.75.15-1,.88-1h2.05v-3.29h-2.62c-2.82,0-4.09,1.24-4.09,3.61v2.53h-2v3.22h2Z"/></g><g id="Marketing_Icons" data-name="Marketing Icons"><circle class="cls-5" cx="486.8" cy="42.56" r="22.43" transform="translate(-1.56 59.47) rotate(-6.98)"/><path class="cls-9" d="M509.23,42.56s0-.5-.1-1.43a11.18,11.18,0,0,0-.18-1.72,16.73,16.73,0,0,0-.47-2.32,21.2,21.2,0,0,0-2.48-6,22.29,22.29,0,0,0-26.8-9.53,20.7,20.7,0,0,0-5.64,3A24.38,24.38,0,0,0,471,26.79a25,25,0,0,0-2.19,2.59,22.21,22.21,0,0,0,0,26.35A25,25,0,0,0,471,58.32a24.38,24.38,0,0,0,2.53,2.15,21,21,0,0,0,5.64,3,22.44,22.44,0,0,0,11.72,1,22.18,22.18,0,0,0,9.4-4.17A22.42,22.42,0,0,0,506,54,21.2,21.2,0,0,0,508.48,48,16.45,16.45,0,0,0,509,45.7a11.18,11.18,0,0,0,.18-1.72c.06-.93.1-1.42.1-1.42s0,.49,0,1.43a10.11,10.11,0,0,1-.17,1.73,14.77,14.77,0,0,1-.44,2.32,21.42,21.42,0,0,1-2.45,6A22.58,22.58,0,0,1,491,64.7a22.67,22.67,0,0,1-11.84-1,21.19,21.19,0,0,1-5.71-3.06,25,25,0,0,1-2.56-2.18,26.57,26.57,0,0,1-2.22-2.61,22.45,22.45,0,0,1,0-26.67,26.57,26.57,0,0,1,2.22-2.61,23.71,23.71,0,0,1,2.56-2.17,21.23,21.23,0,0,1,5.71-3.07,22.51,22.51,0,0,1,27,9.69,21.42,21.42,0,0,1,2.45,6A15.1,15.1,0,0,1,509,39.4a9.93,9.93,0,0,1,.17,1.73C509.22,42.06,509.23,42.56,509.23,42.56Z"/><path class="cls-10" d="M486.8,27.9a14.66,14.66,0,1,0,14.65,14.66A14.67,14.67,0,0,0,486.8,27.9Z"/><path class="cls-6" d="M486.8,27.9a11.58,11.58,0,0,1,3.61.34,14.77,14.77,0,0,1,11,11.56,14.91,14.91,0,0,1-.61,7.85,15,15,0,0,1-5.2,7,14.83,14.83,0,0,1-17.7,0,15,15,0,0,1-5.2-7,14.91,14.91,0,0,1-.61-7.85,14.77,14.77,0,0,1,11.05-11.56,11.58,11.58,0,0,1,3.61-.34,31.92,31.92,0,0,0-3.54.59,14.61,14.61,0,0,0-7.91,5.35,14.31,14.31,0,0,0-2,13.6,13.71,13.71,0,0,0,2,3.62,13.49,13.49,0,0,0,3,3,14.26,14.26,0,0,0,16.92,0,13.7,13.7,0,0,0,3.05-3,13.16,13.16,0,0,0,2-3.62,14.35,14.35,0,0,0-2-13.6,14.68,14.68,0,0,0-7.91-5.35A31.83,31.83,0,0,0,486.8,27.9Z"/><path class="cls-10" d="M486.8,37.91a4.65,4.65,0,1,0,4.65,4.65A4.65,4.65,0,0,0,486.8,37.91Z"/><path class="cls-6" d="M486.8,37.91a2.14,2.14,0,0,1,1.17,0,4.59,4.59,0,0,1,2.71,1.67,4.84,4.84,0,0,1,.78,4.64,4.93,4.93,0,0,1-9.31,0,4.84,4.84,0,0,1,.77-4.64,4.61,4.61,0,0,1,2.72-1.67,2.1,2.1,0,0,1,1.16,0c0,.06-.41.06-1.1.27a4.61,4.61,0,0,0-2.41,1.71,4.45,4.45,0,0,0-.57,4.14,4.36,4.36,0,1,0,7.59-4.14,4.63,4.63,0,0,0-2.4-1.71C487.22,38,486.8,38,486.8,37.91Z"/><path class="cls-2" d="M462.9,58.72c7.75-5.4,16.15-10.76,23.9-16.16"/><path class="cls-9" d="M486.8,42.56c0,.06-5.28,3.73-11.87,8.19s-12,8-12,8,5.28-3.73,11.88-8.19S486.76,42.5,486.8,42.56Z"/><path class="cls-9" d="M465.53,57.16a14.5,14.5,0,0,1-2.77,0A15.52,15.52,0,0,1,460,57a27.39,27.39,0,0,1,5.53.2Z"/><path class="cls-9" d="M464.59,60.8a6.9,6.9,0,0,1,.28-1.9,7,7,0,0,1,.53-1.84,7.19,7.19,0,0,1-.27,1.9A6.91,6.91,0,0,1,464.59,60.8Z"/><path class="cls-9" d="M466,60.37a7.36,7.36,0,0,1,.22-2,7.37,7.37,0,0,1,.48-1.93,7.36,7.36,0,0,1-.22,2A7.52,7.52,0,0,1,466,60.37Z"/><path class="cls-9" d="M462.77,55.56a7.21,7.21,0,0,1,1.92.32,7.78,7.78,0,0,1,1.87.57,7,7,0,0,1-1.93-.31A7.19,7.19,0,0,1,462.77,55.56Z"/><path class="cls-6" d="M580.23,160.78a1.08,1.08,0,0,1,.1.28,4.42,4.42,0,0,1,.11.85,6.58,6.58,0,0,1-.77,3.16,16.62,16.62,0,0,1-3.14,3.92c-1.33,1.4-2.83,3-4.45,4.65l-.14.15-.16-.13L567,169.82c-1.65-1.34-3.59-2.77-4.59-5a5.23,5.23,0,0,1-.11-4.39,5.06,5.06,0,0,1,3.21-2.7,4.6,4.6,0,0,1,3.87.71,4.89,4.89,0,0,1,2,3l-.42,0a5,5,0,0,1,3.24-4.08,4.48,4.48,0,0,1,4,.53,4.63,4.63,0,0,1,1.72,2,3,3,0,0,1,.23.65.61.61,0,0,1,0,.24s-.1-.31-.38-.83a4.83,4.83,0,0,0-1.74-1.82,4.29,4.29,0,0,0-3.75-.41,4.61,4.61,0,0,0-2.94,3.8l-.13,1.43-.29-1.41a4.48,4.48,0,0,0-1.88-2.73,4.1,4.1,0,0,0-3.48-.62,4.59,4.59,0,0,0-2.88,2.45,4.74,4.74,0,0,0,.11,4c.93,2.08,2.79,3.49,4.44,4.84l4.75,3.86-.3,0,4.51-4.6a16.72,16.72,0,0,0,3.16-3.78,6.87,6.87,0,0,0,.87-3C580.31,161.17,580.19,160.78,580.23,160.78Z"/><path class="cls-6" d="M555.17,148s0,.22.05.61.07,1,.11,1.76c.09,1.55.22,3.81.39,6.69.31,5.8.76,14.15,1.32,24.44l-.2-.18,21.51-1.11.23,0v.23c.16,3.23.34,6.68.52,10.22l-.41-.14,9.7-10.75.07-.07h.11l23.58-1.19,7.23-.36-.24.27c-.59-11.84-1.15-23.12-1.66-33.51l.25.23-45,2.13-12.9.59-3.45.14-.89,0a1.34,1.34,0,0,1-.32,0l.29,0,.86-.06,3.4-.2,12.85-.71,45.14-2.37H618v.23c.53,10.38,1.1,21.66,1.7,33.5v.26h-.25l-7.24.36-23.58,1.18.17-.08-9.72,10.72-.38.43,0-.57c-.17-3.55-.34-7-.5-10.23l.24.22-21.52,1h-.19v-.18c-.47-10.34-.86-18.73-1.12-24.56-.13-2.87-.22-5.12-.29-6.66,0-.74,0-1.31-.07-1.72S555.17,148,555.17,148Z"/><path class="cls-9" d="M590.5,163.67l-2.64.13.13,2.57-.63,0-.12-2.57-2.64.13,0-.59,2.64-.13-.13-2.59.62,0,.13,2.58,2.64-.13Z"/><path class="cls-9" d="M594.23,158.31l.49,9.71-.71,0-.46-9.08-2.37.12,0-.64Z"/><path class="cls-9" d="M596.93,163c-.15-3,1.32-5,3.56-5.12s3.9,1.7,4,4.74-1.32,5-3.56,5.12S597.08,166.08,596.93,163Zm6.9-.34c-.13-2.71-1.47-4.22-3.31-4.13s-3,1.73-2.88,4.44,1.48,4.21,3.31,4.12S604,165.4,603.83,162.7Z"/><path class="cls-9" d="M606.07,162.58c-.15-3,1.32-5,3.56-5.12s3.9,1.7,4,4.74-1.32,5-3.56,5.12S606.22,165.62,606.07,162.58Zm6.9-.34c-.13-2.71-1.48-4.21-3.31-4.12s-3,1.72-2.88,4.43,1.48,4.21,3.31,4.12S613.11,165,613,162.24Z"/><rect class="cls-6" x="564.67" y="74.79" width="6.77" height="26.96"/><rect class="cls-6" x="553.53" y="72.75" width="6.77" height="29.01"/><rect class="cls-6" x="542.73" y="76.34" width="6.77" height="25.41"/><rect class="cls-6" x="531.77" y="80.31" width="6.77" height="21.45"/><path class="cls-9" d="M576.58,101.85c0,.15-11.13.26-24.86.26s-24.86-.11-24.86-.26,11.13-.26,24.86-.26S576.58,101.71,576.58,101.85Z"/><path class="cls-9" d="M573.75,76.46c0,.05-.78-.08-2.17,0A12.91,12.91,0,0,0,566,78.13a11.72,11.72,0,0,0-3.1,2.55c-1,1.09-1.83,2.4-2.86,3.72a10.73,10.73,0,0,1-4,3.39,14.48,14.48,0,0,1-5.54,1.09c-1.92.07-3.79,0-5.58.06a25.72,25.72,0,0,0-5.09.69,12.72,12.72,0,0,0-7.23,4.44,9.54,9.54,0,0,0-2,5.39,13.59,13.59,0,0,0,.2,2.14,5.63,5.63,0,0,1-.41-2.14,9.5,9.5,0,0,1,1.93-5.61,11.05,11.05,0,0,1,3-2.82,15.42,15.42,0,0,1,4.37-1.87,25.37,25.37,0,0,1,5.19-.73c1.82-.09,3.69,0,5.58-.07a14,14,0,0,0,5.35-1,10.39,10.39,0,0,0,3.85-3.23c1-1.28,1.91-2.6,2.92-3.71a12,12,0,0,1,3.24-2.58,12.47,12.47,0,0,1,5.73-1.56,12.64,12.64,0,0,1,1.63.09A2.17,2.17,0,0,1,573.75,76.46Z"/><path class="cls-9" d="M527.75,70.06c.15,0,.26,7.24.26,16.16s-.11,16.15-.26,16.15-.26-7.23-.26-16.15S527.61,70.06,527.75,70.06Z"/><path class="cls-9" d="M467.91,135.57a7.48,7.48,0,0,1-2.36.84,7.2,7.2,0,0,1-2.46.5,9.32,9.32,0,0,1,4.82-1.34Z"/><path class="cls-9" d="M477.85,134.73a7.43,7.43,0,0,1-2.5.24,7.53,7.53,0,0,1-2.5-.12,5.29,5.29,0,0,1,2.49-.4A5.43,5.43,0,0,1,477.85,134.73Z"/><path class="cls-9" d="M487.72,136.22a7.25,7.25,0,0,1-2.49-.33,7,7,0,0,1-2.41-.7,5.5,5.5,0,0,1,2.52.19A5.61,5.61,0,0,1,487.72,136.22Z"/><path class="cls-9" d="M497,139.91a7.24,7.24,0,0,1-2.34-.88,7.52,7.52,0,0,1-2.19-1.23,9.41,9.41,0,0,1,4.53,2.11Z"/><path class="cls-9" d="M505.13,145.67c-.1.11-1-.56-2.06-1.42s-1.91-1.59-1.83-1.71a5.62,5.62,0,0,1,2.16,1.3C504.48,144.71,505.23,145.57,505.13,145.67Z"/><path class="cls-6" d="M556.4,252.94a4.77,4.77,0,1,1-2.7-6.18A4.77,4.77,0,0,1,556.4,252.94Z"/><path class="cls-6" d="M572.31,248.92a4.77,4.77,0,1,1-2.7-6.17A4.76,4.76,0,0,1,572.31,248.92Z"/><path class="cls-6" d="M565,267.74a4.79,4.79,0,1,1-2.56-6.56A5,5,0,0,1,565,267.74Z"/><path class="cls-6" d="M559.43,264.92c-.3.21-2.59-2.63-5.12-6.33s-4.34-6.86-4-7.07,2.59,2.63,5.12,6.33S559.73,264.72,559.43,264.92Z"/><path class="cls-6" d="M567.07,246.51c.1.35-3,1.57-7,2.72s-7.21,1.81-7.31,1.46,3-1.57,6.94-2.72S567,246.16,567.07,246.51Z"/><path class="cls-6" d="M497.85,296.78a4.77,4.77,0,0,1-.13-1.16,10.91,10.91,0,0,0-.16-1.4,12,12,0,0,0-.37-1.87,17.44,17.44,0,0,0-1.94-4.82,18.09,18.09,0,0,0-4.48-5.16,17.83,17.83,0,0,0-16.83-2.89,16.73,16.73,0,0,0-4.55,2.32,20.21,20.21,0,0,0-2.05,1.67,19.14,19.14,0,0,0-1.79,2,17.71,17.71,0,0,0-.51,21,16.09,16.09,0,0,0,3.66,3.87,16.55,16.55,0,0,0,4.43,2.54,18,18,0,0,0,21.67-7,17.41,17.41,0,0,0,2.18-4.71,12.85,12.85,0,0,0,.46-1.86,10.15,10.15,0,0,0,.22-1.38,4.65,4.65,0,0,1,.19-1.15,5.21,5.21,0,0,1,0,1.17,7.9,7.9,0,0,1-.13,1.41,12.46,12.46,0,0,1-.37,1.91,17.2,17.2,0,0,1-2.08,4.91,18.21,18.21,0,0,1-4.78,5.22,18.4,18.4,0,0,1-7.9,3.35,18.73,18.73,0,0,1-9.81-1,17.6,17.6,0,0,1-4.68-2.65,21.44,21.44,0,0,1-2.09-1.85,20.43,20.43,0,0,1-1.79-2.22,18.59,18.59,0,0,1,.54-22.15,21.53,21.53,0,0,1,1.9-2.13,19.92,19.92,0,0,1,2.17-1.74,17.54,17.54,0,0,1,4.81-2.42,18.69,18.69,0,0,1,9.84-.52,18.55,18.55,0,0,1,12.25,9.18,17.27,17.27,0,0,1,1.84,5,14.71,14.71,0,0,1,.28,1.93,9.19,9.19,0,0,1,.06,1.42A5.29,5.29,0,0,1,497.85,296.78Z"/><path class="cls-6" d="M494.2,285.37c0,.06-.29.34-.93.82l-1.17.84c-.24.16-.48.34-.75.51l-.9.47a20.6,20.6,0,0,1-10.73,2.7l-1.63-.07-1.56-.24-.75-.13-.73-.2c-.48-.13-.95-.24-1.41-.39a23.42,23.42,0,0,1-4.55-2.09c-2.45-1.48-3.64-2.83-3.54-2.92s1.42,1,3.89,2.3a27.28,27.28,0,0,0,4.48,1.83c.44.13.89.22,1.35.34l.7.18.73.11,1.49.22,1.55.06a22.27,22.27,0,0,0,10.39-2.34L491,287l.77-.43,1.25-.69C493.75,285.49,494.16,285.31,494.2,285.37Z"/><path class="cls-6" d="M465,307.57c0-.06.29-.35.92-.82l1.18-.84c.23-.16.48-.34.75-.51l.9-.47a20.6,20.6,0,0,1,10.73-2.7l1.62.07,1.56.24.76.13.73.19c.48.14.95.25,1.4.39a24.13,24.13,0,0,1,4.56,2.1c2.44,1.48,3.63,2.83,3.54,2.91s-1.43-1-3.89-2.29a27.42,27.42,0,0,0-4.49-1.83c-.43-.13-.89-.23-1.35-.35l-.7-.17-.73-.11-1.48-.22-1.55-.06a22.16,22.16,0,0,0-10.4,2.33l-.91.4c-.27.14-.52.3-.77.43l-1.24.69C465.44,307.45,465,307.62,465,307.57Z"/><path class="cls-6" d="M497.84,297.2c0,.28-8.19.3-18.27.06s-18.24-.67-18.24-.95,8.19-.3,18.27-.05S497.84,296.92,497.84,297.2Z"/><path class="cls-6" d="M478.74,314.57c-.27,0-.3-8.18-.05-18.26s.66-18.24.94-18.23.3,8.18.06,18.26S479,314.57,478.74,314.57Z"/><path class="cls-6" d="M478.74,314.54c-.06.11-2.08-1.26-4.4-4.34a25,25,0,0,1-3.26-5.93,22,22,0,0,1-1.41-8.18,20.86,20.86,0,0,1,1.84-8.09,25.16,25.16,0,0,1,3.57-5.75c2.45-3,4.48-4.28,4.55-4.18s-1.74,1.61-4,4.62a27.53,27.53,0,0,0-3.28,5.67,21,21,0,0,0-1.69,7.75A22.24,22.24,0,0,0,472,304a26.66,26.66,0,0,0,3,5.84C477,312.9,478.85,314.43,478.74,314.54Z"/><path class="cls-6" d="M480,278.08c.07-.1,2.08,1.26,4.4,4.35a24.35,24.35,0,0,1,3.26,5.92,22,22,0,0,1,1.42,8.18,21.14,21.14,0,0,1-1.85,8.1,25.65,25.65,0,0,1-3.56,5.74c-2.46,3-4.49,4.29-4.56,4.18s1.74-1.61,4-4.62a27.27,27.27,0,0,0,3.27-5.67,20.92,20.92,0,0,0,1.69-7.75,22.05,22.05,0,0,0-1.28-7.84,25.73,25.73,0,0,0-3-5.83C481.75,279.73,479.94,278.19,480,278.08Z"/><path class="cls-9" d="M479.18,81.19c-.15,0-.22-.58-.16-1.27s.22-1.23.36-1.22.22.58.16,1.26S479.32,81.2,479.18,81.19Z"/><path class="cls-9" d="M478.32,91.49a6.44,6.44,0,0,1-.05-2.6,6.48,6.48,0,0,1,.48-2.56,6.76,6.76,0,0,1,0,2.6A6.87,6.87,0,0,1,478.32,91.49Z"/><path class="cls-9" d="M477.44,101.79a6.76,6.76,0,0,1,0-2.6,6.62,6.62,0,0,1,.48-2.55,6.7,6.7,0,0,1,0,2.59A6.48,6.48,0,0,1,477.44,101.79Z"/><path class="cls-9" d="M476.56,112.09a6.51,6.51,0,0,1,0-2.6,6.68,6.68,0,0,1,.48-2.55,6.53,6.53,0,0,1,0,2.6A6.68,6.68,0,0,1,476.56,112.09Z"/><path class="cls-9" d="M475.64,122.39a6.65,6.65,0,0,1,0-2.6,6.79,6.79,0,0,1,.49-2.55,6.45,6.45,0,0,1,0,2.6A6.79,6.79,0,0,1,475.64,122.39Z"/><path class="cls-9" d="M474.85,130c-.14,0-.19-.61-.11-1.28s.26-1.21.41-1.2.19.59.11,1.28S475,130,474.85,130Z"/><path class="cls-9" d="M505.68,134.25a6.17,6.17,0,0,1-1.31,2.14c-.84,1.1-1.61,1.92-1.72,1.84s.47-1,1.31-2.15S505.56,134.16,505.68,134.25Z"/><path class="cls-9" d="M511.74,126.3a6.37,6.37,0,0,1-1.31,2.14c-.84,1.1-1.61,1.92-1.72,1.83a6.17,6.17,0,0,1,1.31-2.14C510.85,127,511.63,126.21,511.74,126.3Z"/><path class="cls-9" d="M517.8,118.34c.12.09-.47,1-1.31,2.15s-1.6,1.92-1.72,1.83a6.26,6.26,0,0,1,1.31-2.15C516.92,119.07,517.69,118.25,517.8,118.34Z"/><path class="cls-9" d="M523.86,110.39c.12.09-.47,1-1.3,2.14s-1.61,1.92-1.73,1.84a6.26,6.26,0,0,1,1.31-2.15C523,111.12,523.75,110.3,523.86,110.39Z"/><path class="cls-9" d="M524.33,167c-.14.06-.65-.94-1.25-2.17a7.14,7.14,0,0,1-.93-2.32c.12-.08.79.84,1.4,2.09A5.44,5.44,0,0,1,524.33,167Z"/><path class="cls-9" d="M526.9,176.61a7.52,7.52,0,0,1-.68-2.41,7.23,7.23,0,0,1-.31-2.49,5.46,5.46,0,0,1,.83,2.38A5.56,5.56,0,0,1,526.9,176.61Z"/><path class="cls-9" d="M527.23,186.59a12.15,12.15,0,0,1,.1-5,6,6,0,0,1,.21,2.5A6.33,6.33,0,0,1,527.23,186.59Z"/><path class="cls-9" d="M525.58,196.44a6.45,6.45,0,0,1,.27-2.5,6.12,6.12,0,0,1,.79-2.39,6.16,6.16,0,0,1-.28,2.5A6.08,6.08,0,0,1,525.58,196.44Z"/><path class="cls-9" d="M522.21,205.84a6.43,6.43,0,0,1,.7-2.41,6.34,6.34,0,0,1,1.19-2.22,6.16,6.16,0,0,1-.7,2.42A6.25,6.25,0,0,1,522.21,205.84Z"/><path class="cls-9" d="M517.28,214.53a6.46,6.46,0,0,1,1.11-2.25c.73-1.17,1.42-2.06,1.55-2a6.22,6.22,0,0,1-1.11,2.26C518.09,213.73,517.4,214.62,517.28,214.53Z"/><path class="cls-9" d="M510.84,222.16c-.1-.1.58-1,1.52-2s1.79-1.73,1.9-1.64-.57,1-1.52,2S510.94,222.27,510.84,222.16Z"/><path class="cls-9" d="M502.94,228.28c-.07-.13.78-.86,1.91-1.64a6.24,6.24,0,0,1,2.2-1.22c.09.11-.76.85-1.9,1.64A6.2,6.2,0,0,1,502.94,228.28Z"/><path class="cls-9" d="M494,232.71a12.09,12.09,0,0,1,4.59-2,6.33,6.33,0,0,1-2.19,1.24A6.42,6.42,0,0,1,494,232.71Z"/><path class="cls-9" d="M484.35,235.34a6.43,6.43,0,0,1,2.39-.8,6.31,6.31,0,0,1,2.49-.28,12.28,12.28,0,0,1-4.88,1.08Z"/><path class="cls-9" d="M474.39,236.06a11.92,11.92,0,0,1,5-.11,12.38,12.38,0,0,1-5,.11Z"/><path class="cls-9" d="M464.5,234.73a6.27,6.27,0,0,1,2.5.2,6.16,6.16,0,0,1,2.41.73,6.39,6.39,0,0,1-2.5-.21A6.14,6.14,0,0,1,464.5,234.73Z"/><path class="cls-9" d="M531.08,175.21a6.24,6.24,0,0,1-2.49.26,6.35,6.35,0,0,1-2.51-.26,6.35,6.35,0,0,1,2.51-.26A6.24,6.24,0,0,1,531.08,175.21Z"/><path class="cls-9" d="M541.08,175.21a6.24,6.24,0,0,1-2.49.26,6.35,6.35,0,0,1-2.51-.26,6.35,6.35,0,0,1,2.51-.26A6.24,6.24,0,0,1,541.08,175.21Z"/><path class="cls-9" d="M549.6,175.21c0,.14-.79.26-1.76.26s-1.76-.12-1.76-.26.79-.26,1.76-.26S549.6,175.07,549.6,175.21Z"/><path class="cls-9" d="M516.88,223.1c-.09.12-1-.51-2.08-1.4S513,220,513,219.9s1,.52,2.09,1.4S517,223,516.88,223.1Z"/><path class="cls-9" d="M524.56,229.51a6.33,6.33,0,0,1-2.08-1.4c-1.06-.89-1.85-1.69-1.76-1.8s1,.51,2.09,1.4S524.65,229.4,524.56,229.51Z"/><path class="cls-9" d="M532.24,235.92a6.27,6.27,0,0,1-2.08-1.41c-1.07-.88-1.85-1.69-1.76-1.8a6.31,6.31,0,0,1,2.09,1.4C531.55,235,532.33,235.81,532.24,235.92Z"/><path class="cls-9" d="M539.05,241.59c-.1.11-.83-.35-1.65-1s-1.41-1.33-1.32-1.44.83.35,1.65,1S539.14,241.48,539.05,241.59Z"/><path class="cls-9" d="M477.23,240.57a12.15,12.15,0,0,1,0-5,12.15,12.15,0,0,1,0,5Z"/><path class="cls-9" d="M477.23,250.57a12.15,12.15,0,0,1,0-5,12.15,12.15,0,0,1,0,5Z"/><path class="cls-9" d="M477.23,260.57a12.15,12.15,0,0,1,0-5,12.15,12.15,0,0,1,0,5Z"/><path class="cls-9" d="M477.23,267.31c-.15,0-.26-.39-.26-.87s.11-.87.26-.87.26.39.26.87S477.37,267.31,477.23,267.31Z"/></g><g id="Character_2" data-name="Character 2"><path class="cls-9" d="M398.12,86.12a75.47,75.47,0,0,1-4-12.39,26.39,26.39,0,0,1,.29-12.89c.2-.63,1.91-4.87,2.57-4.85.47,0-.51,3.95-.25,4.34A22.29,22.29,0,0,1,400,73.19a58.41,58.41,0,0,1-1.87,12.93"/><path class="cls-11" d="M421.72,135c-6.73.24-22.24-18.23-22.63-24.95L396.75,69.6c-1-10.85,4.52-20.46,15.4-21.14h1A19.47,19.47,0,0,1,432.63,66.3c.8,9.4,1.55,19.81,1.51,24.86-.1,10.45-10.54,12.11-10.54,12.11s.08,2.42.22,5.49c.32,6.88,4.37,26-2.51,26.24Z"/><path class="cls-12" d="M423.6,103.27a25.29,25.29,0,0,1-13.63-4s3.3,7.85,13.73,6.87Z"/><path class="cls-9" d="M429.65,74.34a1.49,1.49,0,0,1-1.44,1.51,1.42,1.42,0,0,1-1.54-1.34A1.5,1.5,0,0,1,428.1,73,1.44,1.44,0,0,1,429.65,74.34Z"/><path class="cls-9" d="M430.43,70.92c-.19.19-1.32-.64-2.93-.63s-2.78.82-2.95.62.1-.44.61-.81a4,4,0,0,1,2.37-.74,3.92,3.92,0,0,1,2.32.74C430.35,70.48,430.52,70.83,430.43,70.92Z"/><path class="cls-9" d="M414.9,75a1.5,1.5,0,0,1-1.44,1.51,1.43,1.43,0,0,1-1.54-1.34,1.5,1.5,0,0,1,1.43-1.52A1.44,1.44,0,0,1,414.9,75Z"/><path class="cls-9" d="M414.68,71.35c-.18.19-1.32-.64-2.92-.63s-2.78.82-3,.62.1-.44.62-.81a4,4,0,0,1,2.36-.74,4,4,0,0,1,2.33.74C414.6,70.91,414.77,71.26,414.68,71.35Z"/><path class="cls-9" d="M420.49,83.67a10.53,10.53,0,0,1,2.61-.48c.41,0,.79-.13.86-.41a2,2,0,0,0-.28-1.21c-.38-1-.79-2-1.22-3.12-1.7-4.44-2.93-8.09-2.75-8.16s1.7,3.48,3.4,7.92c.41,1.09.8,2.14,1.17,3.14a2.31,2.31,0,0,1,.22,1.6,1,1,0,0,1-.67.61,3.18,3.18,0,0,1-.7.1A10.61,10.61,0,0,1,420.49,83.67Z"/><path class="cls-9" d="M414.52,65.34c-.22.42-1.78,0-3.68,0s-3.47.26-3.67-.16c-.08-.2.24-.57.9-.91a6.19,6.19,0,0,1,2.82-.56,6.07,6.07,0,0,1,2.78.72C414.32,64.76,414.61,65.15,414.52,65.34Z"/><path class="cls-9" d="M430,67.16c-.32.38-1.64,0-3.21,0s-2.9.3-3.21-.07c-.14-.19.06-.56.64-.91a5.34,5.34,0,0,1,5.18,0C430,66.61,430.18,67,430,67.16Z"/><path class="cls-11" d="M397.63,77.33c-.18-.07-7.19-2.09-6.94,5s7.38,5.42,7.38,5.21S397.63,77.33,397.63,77.33Z"/><path class="cls-12" d="M395.79,85s-.12.09-.32.2a1.24,1.24,0,0,1-.93,0A3.08,3.08,0,0,1,393,82.5a4.19,4.19,0,0,1,.29-1.8,1.43,1.43,0,0,1,.9-1A.64.64,0,0,1,395,80c.1.2.06.34.1.35s.15-.12.08-.42a.78.78,0,0,0-.3-.44.93.93,0,0,0-.69-.15,1.73,1.73,0,0,0-1.26,1.15,4.13,4.13,0,0,0-.36,2c.09,1.44.88,2.76,1.92,3a1.33,1.33,0,0,0,1.13-.23C395.79,85.13,395.82,85,395.79,85Z"/><path class="cls-9" d="M427.49,54.67c1.13-.69-2.51-4.28-5.41-5.44-4.38-1.76-11-2.67-14.9-1.37-4.7,1.56-8.56,4.11-10.76,8.55a28.13,28.13,0,0,0-2.51,14.49,8.47,8.47,0,0,0,1.2,4.31c1.06,1.54,3,2.45,3,4.63A3,3,0,0,0,399,82c1.37,1.33,2.91,0,3.59-1.39C404,77.73,404,74.39,404,71.18a21.1,21.1,0,0,0-.75-6.78c-.41-1.17-1-2.27-1.35-3.47a4.28,4.28,0,0,1,.34-3.59,5.4,5.4,0,0,1,.56-.61A7.43,7.43,0,0,1,410.16,55c4.09,1.24,11,3.06,12.79,1.62A11,11,0,0,0,426,53.23Z"/><path class="cls-9" d="M416.12,84.73c-.1,0-.14.41,0,1a4,4,0,0,0,1.38,2,6.46,6.46,0,0,0,2.14,1.11c.58.18,1,.23,1,.13s-.27-.31-.78-.61A15.72,15.72,0,0,1,418,87.2C416.65,86.17,416.35,84.67,416.12,84.73Z"/><polygon class="cls-11" points="488.07 198.29 438 201.67 436.35 184.98 496.95 187.2 488.07 198.29"/><path class="cls-8" d="M523.65,143.76c0,.07.6,1.21.6,1.21-4,8.54-18.53,39.47-18.53,39.47l-19.1,10.34-46.71.25-.11-2.52,23.56-10.59,30-.61,14.68-32.62a2.93,2.93,0,0,1,2-1.66Z"/><path class="cls-9" d="M486.62,194.78a9.85,9.85,0,0,0,1.16-2c.66-1.23,1.54-2.94,2.48-4.85s1.77-3.64,2.35-4.91a10.85,10.85,0,0,0,.84-2.1,10.57,10.57,0,0,0-1.16,1.95c-.65,1.23-1.53,3-2.48,4.86s-1.77,3.65-2.34,4.92A10.38,10.38,0,0,0,486.62,194.78Z"/><polygon class="cls-9" points="482.09 190.85 462.11 191.09 476.81 182.56 492.95 182.2 482.09 190.85"/><path class="cls-9" d="M439.8,192.51a3.14,3.14,0,0,0,.49,0l1.39,0,5.14-.09c4.34-.07,10.33-.12,16.95-.17s12.62-.15,17-.31c2.17-.08,3.93-.17,5.14-.25l1.39-.1a1.78,1.78,0,0,0,.49-.07,1.56,1.56,0,0,0-.49,0h-1.4l-5.14.09c-4.33.08-10.33.12-17,.17s-12.62.15-17,.32c-2.17.08-3.92.16-5.13.24l-1.4.11A1.65,1.65,0,0,0,439.8,192.51Z"/><path class="cls-9" d="M489.42,193.27a4.38,4.38,0,0,0,.31-.58l.81-1.68,2.91-6.23,9.41-20.63,7-15.56-.14.11,10.56-2.64,3-.77a7,7,0,0,0,1-.32,7.94,7.94,0,0,0-1,.19l-3,.66-10.6,2.48-.1,0,0,.1L502.42,164l-9.29,20.69-2.76,6.29-.73,1.72A2.82,2.82,0,0,0,489.42,193.27Z"/><path class="cls-11" d="M500.81,181.58s-.87-.79-2.43,1.4-4.05,8.5-4.05,8.5l-3,1.52s2.53-3.26,2.47-4.55-2.08-1.2-3.11.7a53.6,53.6,0,0,1-4.09,5.63s1.19,3.68,1.46,3.51,5.32-.68,5.32-.68l1.35-.7s3.41-.16,3.56-1.09,5.59-5,5.55-5.88-.24-5.34-.24-5.34,2.3-6.39,1.72-7S502.39,175.69,500.81,181.58Z"/><path class="cls-12" d="M500.44,181.5s.1,0,.25.07a.52.52,0,0,1,.32.51v0c-.18.69-.39,1.75-.61,3s-.46,2.83-.86,4.42a7.79,7.79,0,0,1-1.5,2.89l-1.58,2.25a13.52,13.52,0,0,0-1.36,2.15,12.86,12.86,0,0,0,1.64-1.94l1.67-2.19a12.4,12.4,0,0,0,.93-1.36,6.79,6.79,0,0,0,.67-1.67,39.13,39.13,0,0,0,.8-4.49c.16-1.16.31-2.19.43-3.06v0h0a.66.66,0,0,0-.53-.62C500.52,181.43,500.44,181.49,500.44,181.5Z"/><path class="cls-12" d="M501.75,192.3a16.17,16.17,0,0,0,1.17-3.79,16.26,16.26,0,0,0,.7-3.91,15.77,15.77,0,0,0-1.17,3.79A16.26,16.26,0,0,0,501.75,192.3Z"/><path class="cls-12" d="M492.08,187.79s.14.05.37.06a1.24,1.24,0,0,1,.83.29c.24.24.17.71-.06,1.21s-.47,1.12-.71,1.71l-.73,1.67c-.25.49-.53.92-.75,1.29a3.09,3.09,0,0,0-.56,1.3c.07,0,.34-.42.85-1.11a12.63,12.63,0,0,0,.85-1.27c.25-.52.52-1.09.79-1.7l.68-1.72a2.55,2.55,0,0,0,.19-.85,1,1,0,0,0-.31-.78,1.33,1.33,0,0,0-1.08-.23C492.2,187.71,492.07,187.76,492.08,187.79Z"/><path class="cls-8" d="M421.59,380.47l-4.75,19.7s18.44,11.44,17.92,15.16l-38.54-7.82,6.13-31Z"/><path class="cls-3" d="M405.27,396.08a1.61,1.61,0,0,0-1.46,1.58,1.55,1.55,0,0,0,1.55,1.45,1.69,1.69,0,0,0,1.53-1.68,1.6,1.6,0,0,0-1.78-1.33"/><g class="cls-13"><path class="cls-5" d="M396.22,407.51l.74-3.1,36.67,8.66s1.57,1.1,1.13,2.26Z"/></g><path class="cls-9" d="M417.51,400.1c-.05.19-1,.08-2.05.5s-1.71,1.11-1.86,1,.34-1.14,1.62-1.62S417.58,399.94,417.51,400.1Z"/><path class="cls-9" d="M421.21,402.59c0,.19-.87.35-1.67,1s-1.16,1.47-1.35,1.42-.09-1.14.93-1.94S421.24,402.41,421.21,402.59Z"/><path class="cls-9" d="M422.52,407.9c-.18,0-.25-1,.45-1.92s1.65-1.17,1.7-1-.61.61-1.17,1.38S422.71,407.92,422.52,407.9Z"/><path class="cls-9" d="M418.09,395.49c-.11.16-.92-.28-2-.42s-2,0-2-.16.87-.69,2.13-.5S418.21,395.36,418.09,395.49Z"/><path class="cls-8" d="M408.43,385.65l0,20.26s20.6,6.79,21,10.53l-39.29,1.46-1.33-31.58Z"/><path class="cls-3" d="M396.24,404.66a1.61,1.61,0,0,0-1,1.87,1.54,1.54,0,0,0,1.85,1.05,1.69,1.69,0,0,0,1.09-2,1.6,1.6,0,0,0-2-.87"/><g class="cls-13"><path class="cls-5" d="M390.14,417.9v-3.19l37.68-.21s1.77.7,1.62,1.94Z"/></g><path class="cls-9" d="M409.09,405.69c0,.19-1,.31-1.88,1s-1.39,1.47-1.57,1.4.06-1.18,1.19-1.95S409.12,405.51,409.09,405.69Z"/><path class="cls-9" d="M413.27,407.24c.05.19-.77.54-1.39,1.38s-.78,1.7-1,1.7-.35-1.08.44-2.11S413.26,407.06,413.27,407.24Z"/><path class="cls-9" d="M415.79,412.09c-.17,0-.47-.9,0-2s1.34-1.52,1.43-1.37-.45.74-.81,1.63S416,412.06,415.79,412.09Z"/><path class="cls-9" d="M408.57,401.07c-.08.18-1-.05-2.05.06s-1.91.49-2,.33.68-.88,2-1S408.66,400.92,408.57,401.07Z"/><path class="cls-9" d="M377.49,238.73l.72,16,7.09,62.12s-1.32,30.34-2.19,47.48c-.76,14.88,2.73,40.58,2.73,40.58l25-1.12,5.08-86.46,3.14-53.92,8.57-24.86Z"/><polygon class="cls-9" points="444.76 238.56 442.57 325.7 420.19 391.92 419.21 395.89 404.11 392.95 408.31 238.44 444.76 238.56"/><path class="cls-8" d="M419,264a1.65,1.65,0,0,1,0,.36c0,.26,0,.62,0,1.06,0,1,0,2.33.05,4.08.06,3.55,0,8.68,0,15-.18,12.67-.81,30.18-2.14,49.47s-2.91,36.73-4.09,49.35c-.6,6.29-1.09,11.38-1.43,14.94-.18,1.74-.32,3.1-.42,4.05l-.12,1.06a2.52,2.52,0,0,1-.05.36,1.49,1.49,0,0,1,0-.37c0-.26,0-.61.07-1.05.08-1,.18-2.32.32-4.07.31-3.56.75-8.66,1.29-15,1.1-12.62,2.65-30.06,4-49.35s2-36.78,2.28-49.44c.12-6.34.19-11.46.19-15,0-1.75,0-3.12,0-4.07,0-.45,0-.8,0-1.07S419,264,419,264Z"/><path class="cls-8" d="M396.43,239.47a3.06,3.06,0,0,1-.06.92,13.65,13.65,0,0,1-.6,2.45,16,16,0,0,1-12,10.57,13.94,13.94,0,0,1-2.5.28,3.59,3.59,0,0,1-.93-.05c0-.09,1.32-.07,3.36-.56a16.63,16.63,0,0,0,11.77-10.35C396.2,240.77,396.34,239.45,396.43,239.47Z"/><path class="cls-8" d="M419.63,242.23a1.29,1.29,0,1,1-1.34-1.23A1.29,1.29,0,0,1,419.63,242.23Z"/><path class="cls-8" d="M442.16,253.38a8.45,8.45,0,0,1-1.84-1.57,19.93,19.93,0,0,1-5.19-10.33,8.36,8.36,0,0,1-.17-2.42c.08,0,.17.91.49,2.35a24.24,24.24,0,0,0,1.92,5.41,23.66,23.66,0,0,0,3.19,4.76C441.53,252.7,442.21,253.32,442.16,253.38Z"/><path class="cls-6" d="M419.54,114.17,398,97.6l-4.08,6.92s-17.53,14.1-20.8,18l7.24,60.12s-3.42,31.94-3.62,34.45-2.09,24.54-2.09,24.54c-.18,4.16,3.46,9,4.16,9,0,0,3.31-4.34,7.08-4.2s29.54,5.88,29.54,5.88L446,244l-6-60.79-2.93-40.74L433.69,127l-6.38-5.82L424,111.06s-.85,12.88-1,12.42S419.54,114.17,419.54,114.17Z"/><path class="cls-9" d="M394.5,105.57a7.41,7.41,0,0,0,.88,1.09c.6.68,1.48,1.64,2.62,2.79,2.26,2.31,5.55,5.33,9.11,8.72,1.76,1.68,3.41,3.3,4.86,4.84l.17.18.17-.18c2.19-2.4,3.75-4.66,5-6.17l1.41-1.76a3.57,3.57,0,0,0,.49-.64,3,3,0,0,0-.6.54c-.37.38-.89,1-1.52,1.69-1.27,1.46-2.89,3.69-5.08,6h.34c-1.44-1.56-3.09-3.2-4.85-4.89-3.58-3.39-6.89-6.36-9.21-8.6-1.16-1.12-2.09-2-2.73-2.67A7.2,7.2,0,0,0,394.5,105.57Z"/><path class="cls-9" d="M434.55,213.69s0-.08,0-.24,0-.41-.05-.69c-.07-.64-.16-1.53-.27-2.64-.26-2.34-.62-5.65-1.07-9.72-.94-8.2-2.28-19.52-3.84-32s-3.05-23.8-4.24-32c-.58-4.08-1.1-7.38-1.48-9.66-.21-1.1-.37-2-.48-2.61l-.14-.68a1.64,1.64,0,0,0-.06-.23.62.62,0,0,0,0,.24c0,.18.05.41.09.68.09.64.22,1.52.38,2.63.32,2.33.78,5.63,1.33,9.68,1.09,8.18,2.53,19.49,4.09,32s3,23.77,4,32c.52,4.06.94,7.36,1.24,9.69.15,1.11.27,2,.36,2.63l.1.69A.79.79,0,0,0,434.55,213.69Z"/><g class="cls-14"><path d="M440.6,188.88c-2.3,1.29-5,1.81-7.23,3.17a26.18,26.18,0,0,0-4.33,3.61c-9.48,8.93-21.61,15.58-34.61,16.39-4.47.28-9.27-.24-12.73-3.08-1.9-1.56-3.32-4.05-2.72-6.44.73-2.9,3.93-4.33,6.74-5.35L412,187.66a122.13,122.13,0,0,1,16.87-5.19,60.45,60.45,0,0,1,11.77-1.23"/></g><path class="cls-9" d="M412.7,227.4c.08.11,6.35-3.65,14-8.4s13.83-8.71,13.76-8.83-6.35,3.65-14,8.4S412.63,227.28,412.7,227.4Z"/><path class="cls-9" d="M434,247.34a6.47,6.47,0,0,0-.09-1.25c-.09-.9-.2-2-.34-3.4-.26-2.88-.46-6.86-.6-11.26s-.31-8.4-.45-11.29c-.07-1.36-.14-2.51-.19-3.41a5.65,5.65,0,0,0-.14-1.25,6.42,6.42,0,0,0,0,1.25c0,.91,0,2.06,0,3.43.05,2.89.15,6.88.3,11.29s.4,8.4.75,11.27c.17,1.44.35,2.6.49,3.4A5.19,5.19,0,0,0,434,247.34Z"/><g class="cls-14"><path d="M401.1,179.32c-2.63-8.52-2.86-18.44-3-27.31-1.31,6.16-2.67,15.54-3.69,22l2.8,6Z"/></g><g class="cls-14"><path d="M422.92,123.48a3.83,3.83,0,0,1-1.05-.71c-.93-1.22-1.48-2.69-2.39-3.93A70.41,70.41,0,0,0,413,126.3c-3.25-3.1-6.51-6.21-9.48-9.59A75.74,75.74,0,0,1,397,108.1l15.11,14.75,7.4-8.68Z"/></g><path class="cls-9" d="M423.65,115.52a19.94,19.94,0,0,0,1.52,3.21,7,7,0,0,0,2.19,2.84c.09-.09-.87-1.32-1.76-3.06A9.83,9.83,0,0,0,423.65,115.52Z"/><path class="cls-9" d="M401.91,127a3.76,3.76,0,0,0-.54-.91,16.37,16.37,0,0,0-1.89-2.19,32.09,32.09,0,0,0-3.25-2.77,14.87,14.87,0,0,0-4.54-2.66,12.69,12.69,0,0,0-5.26-.29,37.56,37.56,0,0,0-4.19.82c-1.18.28-2.14.51-2.79.69a4.56,4.56,0,0,0-1,.31,3.9,3.9,0,0,0,1.05-.12l2.82-.53c1.18-.22,2.59-.56,4.17-.71a12.54,12.54,0,0,1,5.06.31,15.19,15.19,0,0,1,4.42,2.55,39.21,39.21,0,0,1,3.28,2.66C401,125.8,401.84,127.07,401.91,127Z"/><path class="cls-11" d="M433,174.14l-.12,12.18s-17.63,9.22-29.28,12.78S378,202.82,378,202.82l4.06-20Z"/><path class="cls-11" d="M467.9,175.07a2.6,2.6,0,0,0-1.43-2.43c-1.6-.89-5-2.88-5-2.88l-10-.46L433,174.14l-.12,12.18s9.56.1,11.77-.09,8.29-2.43,8.29-2.43,10.41.85,10.87.26,1.1-1.29.42-1.67-8.73-2.07-8.73-2.07l5.32-.65s7.87,1.29,8.44,1,1.26-1.3.73-2l-.52-.72a1.67,1.67,0,0,0-.92-2l-.75-.21Z"/><path class="cls-12" d="M453.72,175.55a6.37,6.37,0,0,0,2.41.3c1.5.05,3.59-.29,5.75.24a30.39,30.39,0,0,1,3,1.1,23.19,23.19,0,0,0,2.51.79,8.74,8.74,0,0,0,2.4.38,24.08,24.08,0,0,0-2.31-.7c-.7-.22-1.54-.5-2.45-.87a24.53,24.53,0,0,0-3-1.16,11.24,11.24,0,0,0-3.25-.27c-1,0-1.87.12-2.61.15C454.65,175.6,453.74,175.48,453.72,175.55Z"/><path class="cls-12" d="M454.46,172.72a5.17,5.17,0,0,0,2.16.18,11.51,11.51,0,0,1,5,.43c1.89.69,3.6,1.37,4.85,1.8a10.33,10.33,0,0,0,2.06.63,9.69,9.69,0,0,0-1.93-.94c-1.23-.51-2.91-1.23-4.83-1.93a7.85,7.85,0,0,0-2.87-.51c-.89,0-1.68.13-2.34.19C455.28,172.72,454.47,172.65,454.46,172.72Z"/><path class="cls-6" d="M373.09,122.52s-5,8.76-5.61,13-.75,48.09.11,48.89a23,23,0,0,0,2.37,1.76s-4.73,1.26-3.16,3.68a42.77,42.77,0,0,0,3.1,4.23s1.08,8.07,2,8.24a65.14,65.14,0,0,1,6.07,2.79s14.18-8.49,15.31-12.7,3.88-12.66,3.88-12.66l-2.76-5.7,5.89-35.63s3.51-11.48-3.92-15.77S375.6,117.74,373.09,122.52Z"/><path class="cls-9" d="M399.16,145.13a2.19,2.19,0,0,0-.13.53c-.07.39-.17.91-.3,1.57-.25,1.41-.6,3.41-1,5.92L394.16,174l0,.07,0,.07,2.74,5.71v-.18c-1.25,4-2.56,8.4-4,12.85l-.24.57-.36.53a7.71,7.71,0,0,1-.8,1c-.27.33-.59.62-.89.93s-.62.6-.94.88c-1.27,1.14-2.61,2.18-3.95,3.16-2.68,2-5.36,3.72-7.93,5.3h.22c-1.29-.65-2.56-1.27-3.8-1.85-.63-.29-1.23-.57-1.87-.81l-.24-.08-.22-.07a.68.68,0,0,1-.19-.27,6,6,0,0,1-.33-.87,60.18,60.18,0,0,1-1.33-6.9v0l0,0c-.78-.93-1.47-1.85-2.1-2.72-.31-.43-.61-.86-.88-1.28a3.73,3.73,0,0,1-.34-.61,1.52,1.52,0,0,1-.08-.63,2.75,2.75,0,0,1,1.54-1.72,10.39,10.39,0,0,1,1.81-.76l.18,0-.15-.1c-.83-.53-1.44-1-1.83-1.25a5,5,0,0,0-.59-.44l.13.14c.08.08.22.21.41.37a21.67,21.67,0,0,0,1.79,1.32l0-.15a10.12,10.12,0,0,0-1.88.73,5.13,5.13,0,0,0-1,.69,2.1,2.1,0,0,0-.69,1.19,1.82,1.82,0,0,0,.08.76,5.38,5.38,0,0,0,.36.67c.27.42.56.86.87,1.3.62.89,1.3,1.81,2.09,2.77l0-.09a56.29,56.29,0,0,0,1.28,7,6.29,6.29,0,0,0,.34.94c.1.15.14.33.41.47a2.15,2.15,0,0,0,.25.08l.22.08c.61.23,1.22.52,1.83.8,1.23.59,2.5,1.21,3.78,1.86l.12.06.1-.06c2.6-1.58,5.29-3.33,8-5.3,1.35-1,2.7-2,4-3.19.33-.29.65-.58,1-.89s.63-.61.92-1a8.52,8.52,0,0,0,.83-1l.38-.57.29-.66c1.42-4.5,2.71-8.83,3.95-12.86l0-.1,0-.08-2.76-5.7,0,.14c1.37-8.51,2.53-15.72,3.35-20.85l.92-5.94c.09-.66.17-1.18.22-1.57A3.75,3.75,0,0,0,399.16,145.13Z"/><path class="cls-9" d="M369.72,186s.25.14.75.27a6.68,6.68,0,0,0,2.18.23,3.43,3.43,0,0,0,1.48-.44,11.94,11.94,0,0,0,1.47-.93c1-.73,2-1.58,3.08-2.41,2.19-1.68,4.26-3.1,5.74-4.15a17.09,17.09,0,0,0,2.36-1.77,17.71,17.71,0,0,0-2.55,1.48c-1.54,1-3.65,2.35-5.86,4-1.11.83-2.11,1.71-3.05,2.44a5.81,5.81,0,0,1-2.71,1.39,8.43,8.43,0,0,1-2.1-.07A3.28,3.28,0,0,0,369.72,186Z"/><path class="cls-9" d="M369.9,194a2.24,2.24,0,0,0,.94.18,5.1,5.1,0,0,0,2.54-.58,42.58,42.58,0,0,0,7-4.86,69.36,69.36,0,0,0,6.06-6c.73-.8,1.31-1.46,1.7-1.93a3.68,3.68,0,0,0,.58-.75,24.47,24.47,0,0,0-2.54,2.43c-1.52,1.54-3.62,3.68-6.12,5.83a52.71,52.71,0,0,1-6.83,4.92,5.31,5.31,0,0,1-2.38.7A7.06,7.06,0,0,0,369.9,194Z"/><g class="cls-14"><path d="M386.58,177a17.27,17.27,0,0,1-3.35,3.9l-5.94,5.67c-1.14,1.08-2.49,2.25-4.05,2.1a5.24,5.24,0,0,1-2.21-.92c-.62-.39-1.31-1-1.17-1.7a6.06,6.06,0,0,0,5.24-.79,15.41,15.41,0,0,0,1.81-1.62,48,48,0,0,1,9.63-6.52"/></g><path class="cls-12" d="M432,186.43a4.93,4.93,0,0,0,1.22.09l3.35.06h7.91a7.86,7.86,0,0,0,1.56-.34l1.54-.44c2.13-.63,4.14-1.26,5.95-1.85h-.08c2.76.13,5.11.22,6.76.27l1.93,0a2.66,2.66,0,0,0,.69,0,2.44,2.44,0,0,0-.68-.11l-1.93-.17c-1.65-.13-4-.28-6.74-.45h-.09l-5.95,1.81-1.53.44a8.86,8.86,0,0,1-1.46.33l-2.93,0-4.95.09-3.35.11A6,6,0,0,0,432,186.43Z"/></g><g id="Character_1" data-name="Character 1"><rect class="cls-9" x="154.75" y="0.36" width="176.08" height="417.54" rx="20.91"/><rect class="cls-8" x="140.51" y="0.53" width="176.08" height="417.54" rx="22.55"/><path class="cls-5" d="M290,7.19l-23.92,0c-3.21,0-5.81,3.22-5.8,7.19v5.14c0,4-2.6,7.19-5.81,7.19l-46.63-.07c-3.2,0-5.81-3.23-5.81-7.2V14.26c0-4-2.61-7.2-5.81-7.21h-8.42L166.91,7c-10.4,0-18.83,10-18.82,22.28l.16,357.7c0,12.31,8.44,22.31,18.83,22.32l123.13.18c10.4,0,18.83-10,18.82-22.28l-.16-357.7C308.86,17.19,300.44,7.2,290,7.19Z"/><path class="cls-9" d="M290,7.19l.73,0a12.65,12.65,0,0,1,2.15.23,17.37,17.37,0,0,1,7.65,3.5,22.09,22.09,0,0,1,4.22,4.6A23.54,23.54,0,0,1,308,22.38a25.87,25.87,0,0,1,.82,4.17,39.83,39.83,0,0,1,.19,4.56q0,4.71,0,10c0,28.32.08,69.29.13,119.91s.09,110.91.14,177.85q0,12.54,0,25.4,0,6.43,0,12.93v6.52a55.66,55.66,0,0,1-.2,6.57,24,24,0,0,1-1.6,6.43,22,22,0,0,1-3.3,5.79,20.34,20.34,0,0,1-4.94,4.54,17.12,17.12,0,0,1-6.29,2.42,43.63,43.63,0,0,1-6.75.24h-6.75l-13.6,0-55.55-.08-28.41,0-14.35,0a17.26,17.26,0,0,1-7.11-1.44,19,19,0,0,1-5.94-4.21,23.65,23.65,0,0,1-6.18-13,45.91,45.91,0,0,1-.32-7.21v-7.17q0-14.31,0-28.42,0-28.22,0-55.56c0-36.43,0-71.57,0-105s0-65.28,0-95.05V29.12c.06-6.64,2.61-13.24,7.36-17.57a17.49,17.49,0,0,1,8.28-4.35,13.93,13.93,0,0,1,2.31-.31,22.19,22.19,0,0,1,2.3,0h4.55l17.58,0h4.25c.71,0,1.39,0,2.11,0a5,5,0,0,1,2,.61,6.76,6.76,0,0,1,2.77,3.1,9.22,9.22,0,0,1,.78,4v4a9.54,9.54,0,0,0,.57,3.81,6.61,6.61,0,0,0,2.21,3,4.91,4.91,0,0,0,1.65.82,7,7,0,0,0,1.84.18l28,.06,12.36,0h5.75A5.42,5.42,0,0,0,259,23.87,8.52,8.52,0,0,0,260.22,19c0-1.67,0-3.29,0-4.86a8.5,8.5,0,0,1,1.3-4.35,6,6,0,0,1,3.35-2.54,7.72,7.72,0,0,1,2-.16h5.54l6.25,0,8.47,0,2.89,0s-1,0-2.89,0l-8.47,0H266.89a7.29,7.29,0,0,0-2,.16,5.75,5.75,0,0,0-3.25,2.48,8.25,8.25,0,0,0-1.26,4.27V19a8.6,8.6,0,0,1-1.25,5,5.62,5.62,0,0,1-4.54,2.8H236.51l-28,0a6.63,6.63,0,0,1-1.92-.19,5.13,5.13,0,0,1-1.75-.87,6.89,6.89,0,0,1-2.31-3.13,9.67,9.67,0,0,1-.59-3.92c0-1.32,0-2.65,0-4a8.62,8.62,0,0,0-.75-3.88,6.34,6.34,0,0,0-2.63-2.95,4.77,4.77,0,0,0-1.91-.58c-.68,0-1.39,0-2.09,0H168.15c-.76,0-1.52,0-2.28.06a14.43,14.43,0,0,0-2.26.3,17.06,17.06,0,0,0-8.1,4.28c-4.66,4.24-7.17,10.74-7.22,17.29s0,13.4,0,20.3q0,20.73,0,43.08c0,29.77,0,61.58.07,95.05s0,68.61.06,105q0,27.32,0,55.56,0,14.12,0,28.42v7.17a45.73,45.73,0,0,0,.31,7.13,23.17,23.17,0,0,0,6.05,12.69,18.12,18.12,0,0,0,5.77,4.09,16.71,16.71,0,0,0,6.9,1.4l14.35,0,28.42,0,55.54.09,13.6,0h6.75a44.46,44.46,0,0,0,6.66-.24,16.39,16.39,0,0,0,6.11-2.35,19.66,19.66,0,0,0,4.81-4.42,21.1,21.1,0,0,0,3.24-5.66,24.22,24.22,0,0,0,1.57-6.31,56.43,56.43,0,0,0,.2-6.51q0-3.27,0-6.52V364.29q0-12.85,0-25.4c0-66.94,0-127.22,0-177.85s0-91.59,0-119.91q0-5.31,0-10a39.43,39.43,0,0,0-.18-4.54,25.62,25.62,0,0,0-.8-4.15,23.17,23.17,0,0,0-3.12-6.8A22.14,22.14,0,0,0,300.5,11a17.31,17.31,0,0,0-7.59-3.52,12.14,12.14,0,0,0-2.14-.26Z"/><polygon class="cls-15" points="189.94 372.11 187.32 411.01 204.11 413.08 212.16 373.34 189.94 372.11"/><path class="cls-6" d="M187.53,405.87l-.16,1.12s-19.92,5.06-20.6,8.62l37.56,4.84,1.1-12.57A21.61,21.61,0,0,1,187.53,405.87Z"/><path class="cls-5" d="M201.11,411.39a1.55,1.55,0,0,1,.84,1.88,1.49,1.49,0,0,1-1.87.85,1.64,1.64,0,0,1-.87-2,1.55,1.55,0,0,1,2-.67"/><path class="cls-5" d="M204.33,420.45l.27-3-36.1-3.53s-1.77.52-1.73,1.72Z"/><path class="cls-9" d="M187.23,407.08c0,.18.89.38,1.71,1.09s1.21,1.54,1.39,1.49,0-1.15-1-2S187.21,406.9,187.23,407.08Z"/><path class="cls-9" d="M183.08,408.2c-.07.17.69.59,1.21,1.44s.6,1.7.78,1.72.43-1-.24-2.06S183.1,408,183.08,408.2Z"/><path class="cls-9" d="M180.23,412.63c.16.06.54-.83.19-1.89s-1.14-1.58-1.24-1.43.36.74.63,1.62S180.05,412.59,180.23,412.63Z"/><path class="cls-9" d="M257.78,58.91c.41-2.69,2.83-4.76,5.47-5.4a14.1,14.1,0,0,1,8,.8,19.14,19.14,0,0,1,7.69,4.79,11.57,11.57,0,0,1,3.26,8.29c-.16,2.86-1.58,5.72-.79,8.47.61,2.08,2.37,3.61,4.14,4.87s3.69,2.43,4.88,4.25,1.39,4.52-.22,6c-1.43,1.3-4,1.45-4.6,3.29-.38,1.14.26,2.32.61,3.47a9.07,9.07,0,0,1-1.17,7.28,15.23,15.23,0,0,1-5.58,5.05c-3.87,2.19-8.7,3.21-12.79,1.46a12.34,12.34,0,0,1-5-4.13,19.51,19.51,0,0,1-3.33-10.31,57.43,57.43,0,0,1,.71-11"/><path class="cls-9" d="M256.36,102.38a11.25,11.25,0,0,0,14.24-11.1c-.07-3.26-1.54-6.59-.53-9.69.69-2.13,2.48-3.79,3.08-6,.89-3.22-1.06-6.48-2.92-9.26a21.85,21.85,0,0,0-4.07-4.95,7.37,7.37,0,0,0-6-1.76"/><path class="cls-9" d="M226.28,60c.18,2.46-1.45,4.66-3.09,6.51s-3.46,3.77-3.81,6.21C218.75,77,223,81,222.11,85.32c-.46,2.3-2.35,4.14-2.68,6.47s.88,4.44,2.37,6.15,3.31,3.13,4.63,5c0,0,2.74,4.5,11.2,1.62"/><path class="cls-9" d="M264.12,63.72c.07-2.23-2-4-4.08-4.77s-4.39-1.13-6.24-2.38c-1.64-1.1-2.74-2.83-4.13-4.23a13.75,13.75,0,0,0-23.13,6.31c-.8,3.18-.26,6.94,2.25,9.05,2.91,2.45,7.23,1.91,11,1.14s7.95-1.51,11.06.68c1.88,1.32,3,3.47,4.11,5.45s2.58,4,4.75,4.77,5.12-.54,5.2-2.84"/><path class="cls-15" d="M255.32,64.18a3.75,3.75,0,0,1,3.33,3.8h0l-2.23,50.47c-.09,6-8.8,9.31-15.19,9.16h0c-6.44-.15-6.65-3.31-6.73-9-.13-9.48-.12-13-.13-13s-8.14-1.37-9.8-12c-.83-5.28-.54-14-.08-21,.41-6.37,4.66-14.18,11-13.5Z"/><path class="cls-9" d="M226.37,79.62A1.35,1.35,0,0,0,227.68,81a1.3,1.3,0,0,0,1.41-1.22,1.37,1.37,0,0,0-1.31-1.38A1.31,1.31,0,0,0,226.37,79.62Z"/><path class="cls-9" d="M226,76c.17.17,1.2-.59,2.67-.58s2.54.74,2.7.56-.1-.4-.56-.74a3.77,3.77,0,0,0-2.16-.67,3.59,3.59,0,0,0-2.13.68C226.09,75.58,225.94,75.91,226,76Z"/><path class="cls-9" d="M240,79.88a1.35,1.35,0,0,0,1.31,1.37A1.3,1.3,0,0,0,242.71,80a1.37,1.37,0,0,0-1.31-1.38A1.31,1.31,0,0,0,240,79.88Z"/><path class="cls-9" d="M240.77,76.71c.17.18,1.21-.58,2.67-.57s2.54.74,2.7.56-.09-.4-.56-.74a3.69,3.69,0,0,0-2.16-.67,3.54,3.54,0,0,0-2.13.68C240.84,76.31,240.69,76.63,240.77,76.71Z"/><path class="cls-9" d="M235.43,88.3a10.17,10.17,0,0,0-2.39-.43c-.37,0-.72-.12-.79-.37a1.92,1.92,0,0,1,.26-1.11q.53-1.36,1.11-2.85c1.55-4.06,2.67-7.39,2.5-7.45s-1.55,3.17-3.09,7.23c-.38,1-.73,2-1.07,2.87a2.15,2.15,0,0,0-.2,1.46.94.94,0,0,0,.62.55,2.22,2.22,0,0,0,.63.09A9.45,9.45,0,0,0,235.43,88.3Z"/><path class="cls-16" d="M234.37,105.65a27,27,0,0,0,14.24-3.76s-3.6,7.29-14.24,6.28Z"/><path class="cls-9" d="M240.13,73.15c.14.39,1.61.21,3.33.42s3.11.68,3.34.33c.1-.17-.14-.55-.7-.94a5.76,5.76,0,0,0-2.48-.87,5.53,5.53,0,0,0-2.6.3C240.39,72.64,240.07,73,240.13,73.15Z"/><path class="cls-9" d="M226.24,72.73c.29.34,1.44,0,2.81,0s2.55.23,2.82-.12c.11-.17-.07-.5-.58-.82a4.37,4.37,0,0,0-2.29-.55,4.28,4.28,0,0,0-2.24.67C226.27,72.23,226.11,72.57,226.24,72.73Z"/><path class="cls-9" d="M262.73,99.14A9.44,9.44,0,0,1,251.51,88.7c.33-2.61,1.74-5.26.83-7.73-1.19-3.27-5.77-4.27-7-7.53-.71-1.89-.08-4.11-.88-6s-2.59-2.75-4.37-3.39S236.4,63,234.9,61.82s-2.43-3.37-1.47-5a100.32,100.32,0,0,1,23.22,5.64c1.74.64,3.56,1.42,4.58,3s1,3.74.94,5.7q-.66,14.31-1.33,28.62"/><path class="cls-8" d="M268.35,64.61a1,1,0,0,1,.18.44,1.67,1.67,0,0,1-.41,1.28,2.7,2.7,0,0,1-1.9,1,6.11,6.11,0,0,1-2.7-.81,7.35,7.35,0,0,0-3.1-.91,15.53,15.53,0,0,0-3.75.34,25.16,25.16,0,0,1-4.24.54,6.1,6.1,0,0,1-4.35-1.58A12.74,12.74,0,0,1,245.57,61a19.67,19.67,0,0,0-2-3.64,6,6,0,0,0-6.14-2.24,6.25,6.25,0,0,0-3.7,2.73,14.2,14.2,0,0,0-.77,1.58s0-.16.08-.46a5.76,5.76,0,0,1,.51-1.23,6.31,6.31,0,0,1,3.79-3,6.11,6.11,0,0,1,3.41.07A6.33,6.33,0,0,1,243.94,57a19.09,19.09,0,0,1,2.12,3.73,12.26,12.26,0,0,0,2.4,3.71,5.56,5.56,0,0,0,4,1.45,25.57,25.57,0,0,0,4.16-.5,15.65,15.65,0,0,1,3.87-.3,7.73,7.73,0,0,1,3.23,1,6,6,0,0,0,2.52.85,2.46,2.46,0,0,0,1.74-.79,1.57,1.57,0,0,0,.47-1.13C268.4,64.77,268.32,64.63,268.35,64.61Z"/><path class="cls-8" d="M269.54,65.63a20.48,20.48,0,0,0-5-4.44,21.19,21.19,0,0,0-6.36-2.11,5.1,5.1,0,0,1,2,0,13.1,13.1,0,0,1,8.33,4.78A4.77,4.77,0,0,1,269.54,65.63Z"/><path class="cls-8" d="M257.62,58.53s0,.12-.15.32a3.06,3.06,0,0,1-.68.72,4.69,4.69,0,0,1-3.52.78,8.93,8.93,0,0,1-4.6-2.74c-1.44-1.4-2.77-3.21-4.72-4.32a8.37,8.37,0,0,0-6.1-.77,8,8,0,0,0-4.26,2.76A8.79,8.79,0,0,0,232,58.37c-.23.8-.28,1.27-.32,1.26s0-.11,0-.34a6,6,0,0,1,.14-1A8.15,8.15,0,0,1,233.29,55a8.25,8.25,0,0,1,4.43-3,8.71,8.71,0,0,1,6.49.78c2.09,1.2,3.42,3,4.82,4.44A8.6,8.6,0,0,0,253.34,60a4.62,4.62,0,0,0,3.33-.57A6.12,6.12,0,0,0,257.62,58.53Z"/><path class="cls-8" d="M257.13,103.7a1.78,1.78,0,0,0,.47.13,9.4,9.4,0,0,0,1.4.14,11.07,11.07,0,0,0,5-1.13,11.6,11.6,0,0,0,5.35-5.42,13.38,13.38,0,0,0,.91-9.26,27.59,27.59,0,0,1-.94-4.65,7.35,7.35,0,0,1,1.06-4.13,15.29,15.29,0,0,0,1.64-3.76,8.87,8.87,0,0,0,.1-3.61A9.37,9.37,0,0,0,270,67.36a7,7,0,0,0-1-1,2.08,2.08,0,0,0-.41-.27s.5.46,1.24,1.39a9.72,9.72,0,0,1,1.94,4.57,8.31,8.31,0,0,1-.17,3.41,14.81,14.81,0,0,1-1.65,3.62,10.67,10.67,0,0,0-.89,2.06,7.23,7.23,0,0,0-.26,2.37,26.45,26.45,0,0,0,.93,4.77,13,13,0,0,1-.81,8.86,11.33,11.33,0,0,1-9.86,6.55C257.8,103.76,257.14,103.64,257.13,103.7Z"/><path class="cls-8" d="M276,56.64a3.58,3.58,0,0,0-1.81-.94,7.12,7.12,0,0,0-8.41,3.86,3.43,3.43,0,0,0-.47,2c.1,0,.26-.73.86-1.78A7.32,7.32,0,0,1,274,56.14C275.22,56.36,275.9,56.74,276,56.64Z"/><path class="cls-8" d="M268.1,63.35a6.8,6.8,0,0,0-.05-.69,3.59,3.59,0,0,1,.47-1.87,5.16,5.16,0,0,1,2.2-2.07,4.64,4.64,0,0,1,3.89-.09A7.12,7.12,0,0,1,278.08,62a10.61,10.61,0,0,1,1.08,5.51,36.81,36.81,0,0,1-1,6.3,26.84,26.84,0,0,0-.82,6.92,21.09,21.09,0,0,0,1.8,6.74,59.57,59.57,0,0,1,2.31,6,13.16,13.16,0,0,1,.48,5.65,16.64,16.64,0,0,1-1.47,4.75,37.41,37.41,0,0,1-3.9,6.17l-1.19,1.6a2.55,2.55,0,0,0-.39.58,3.67,3.67,0,0,0,.48-.5c.31-.34.75-.85,1.3-1.53a33.89,33.89,0,0,0,4.1-6.12,16.86,16.86,0,0,0,1.59-4.88,13.39,13.39,0,0,0-.44-5.88,55,55,0,0,0-2.3-6A20.66,20.66,0,0,1,278,80.64c-.19-4.66,1.7-9,1.77-13.16a11.21,11.21,0,0,0-1.21-5.78,7.6,7.6,0,0,0-3.77-3.49,5,5,0,0,0-4.21.2,5.23,5.23,0,0,0-2.26,2.27,3.52,3.52,0,0,0-.38,2A2.12,2.12,0,0,0,268.1,63.35Z"/><path class="cls-16" d="M236,91.87a7.36,7.36,0,0,0,.91,1.79,2.38,2.38,0,0,0,1.69,1,2.14,2.14,0,0,0,1.81-1,3.39,3.39,0,0,0,.5-2.05c0-.65-.32-1.42-1-1.49a1.55,1.55,0,0,0-.78.17l-3.38,1.37"/><path class="cls-9" d="M237.33,94.65a5,5,0,0,0,1.8-.23,2.57,2.57,0,0,0,1.37-1.23,2.73,2.73,0,0,0,0-2.21,2.51,2.51,0,0,0-.29-.51c-.14-.14-.11-.13-.26-.11a4.89,4.89,0,0,0-.54.21l-.56.23c-.72.29-1.37.54-1.93.75a6.57,6.57,0,0,1-1.84.56,6,6,0,0,1,1.67-1q.81-.39,1.89-.87l.54-.25a5.67,5.67,0,0,1,.62-.25.78.78,0,0,1,.5,0,.82.82,0,0,1,.37.3,2.58,2.58,0,0,1,.38.64,3.13,3.13,0,0,1-.1,2.7,2.92,2.92,0,0,1-1.71,1.39,2.76,2.76,0,0,1-1.47,0C237.48,94.8,237.32,94.68,237.33,94.65Z"/><path class="cls-9" d="M275,224.34a3.7,3.7,0,0,1,.07.38C275,224.3,274.93,224,275,224.34Z"/><path class="cls-15" d="M284.9,233.44l1.5,13.26,12.13,11.07a3.9,3.9,0,0,0,.47-3c-.55-1.39,2.77,1.8,2.77,1.8v7.61s2.08.83,2.77-1,1.11-8.31,1.11-8.31l-1-.69a3.54,3.54,0,0,0,1-3,10.94,10.94,0,0,0,.69-5.54,16.81,16.81,0,0,0-1.25-4.85l-9.93-11.08Z"/><path class="cls-16" d="M291,246.2a30.34,30.34,0,0,0,7.93,8.15c.1-.11-1.8-1.8-4-4S291.11,246.11,291,246.2Z"/><path class="cls-16" d="M299.51,248.62a19.18,19.18,0,0,0,2.88,3.33,20.41,20.41,0,0,0,3.25,3,18.17,18.17,0,0,0-2.88-3.33A19.29,19.29,0,0,0,299.51,248.62Z"/><path class="cls-16" d="M301.15,245.59a30.42,30.42,0,0,0,2.29,2.72,30.08,30.08,0,0,0,2.21,2.79,11.62,11.62,0,0,0-4.5-5.51Z"/><path class="cls-16" d="M302.54,242.45a13,13,0,0,0,1.8,2.2c1,1.17,1.79,2.17,1.92,2.09a6.34,6.34,0,0,0-1.53-2.43A6.2,6.2,0,0,0,302.54,242.45Z"/><path class="cls-8" d="M213.28,83.68A20.45,20.45,0,0,1,208.85,82a20,20,0,0,1-4.2-2.23,20.45,20.45,0,0,1,4.43,1.72A20.52,20.52,0,0,1,213.28,83.68Z"/><path class="cls-15" d="M199.27,104.05c-1,0-3.42,1.4-5.37,4.08a1.27,1.27,0,0,1-.1.12c-1.39,1.8-2.69-3.34-2.93-5.26a2,2,0,0,0-2.71-1.55l-6.43,3-1.88.06a1.91,1.91,0,0,0-1.23,2.27l3.08,10.16.06,2.78,12.89,1.74.2-6.94c.19-.81.45-1.75.79-2.84a8.9,8.9,0,0,1,1.42-2.71,16.77,16.77,0,0,1,2.32-2.54,1.53,1.53,0,0,1,.21-.14A1.25,1.25,0,0,0,200,106,1.11,1.11,0,0,0,199.27,104.05Z"/><path class="cls-6" d="M199,72.73s-7.52-1.44-18.33-11.25-16.13-23.11-17.41-23-7-2.35-17,21.21-5.66,28.85-3.54,28.74,16.46-4.54,25.51-3.77S189,89.8,189,89.8Z"/><path class="cls-9" d="M215.26,85l-2.42,4.92-1.08,2.2a6.33,6.33,0,0,1-8.17,3L187.42,90l8.72-21.56,16.25,8.07A6.34,6.34,0,0,1,215.26,85Z"/><path class="cls-9" d="M206.24,93l-4.82,10.16-2.58-.64-16.28,14-4.92-9s9.73-4.52,11.45-8.08-.4-4.31-.4-4.31l4.49-5.4Z"/><path class="cls-9" d="M147.14,60.08c-5.33,12.76-7.38,24.06-4.58,25.23s9.4-8.22,14.73-21,7.39-24.06,4.58-25.23S152.47,47.32,147.14,60.08Z"/><polygon class="cls-8" points="216.83 91.93 212.45 90.69 214.99 85.5 218.31 87.43 216.83 91.93"/><g class="cls-14"><polygon points="191.64 91.6 203.52 98.71 204.89 95.82 191.64 91.6"/></g><path class="cls-8" d="M212,86.76A23.22,23.22,0,0,1,207.14,85a25,25,0,0,1-4.68-2.26,24.36,24.36,0,0,1,4.89,1.75A24.21,24.21,0,0,1,212,86.76Z"/><path class="cls-8" d="M210.44,90c0,.08-.54,0-1.37-.26-.42-.11-.91-.26-1.45-.43s-1.11-.44-1.71-.7a18.4,18.4,0,0,1-4.2-2.19,22.31,22.31,0,0,1,4.42,1.68c.6.25,1.15.53,1.68.73s1,.38,1.38.54C210,89.69,210.46,89.93,210.44,90Z"/><path class="cls-4" d="M158.66,57s-6.61-3.84-9.91,5,3.57,10.13,3.57,10.13A58.51,58.51,0,0,0,158.66,57Z"/><path class="cls-9" d="M165.27,46.29a9,9,0,0,1-.2,1.69c-.18,1.08-.42,2.64-.79,4.57-.24.94-.52,2-.81,3.09-.14.56-.3,1.13-.45,1.73q-.12.43-.24.9c-.09.3-.21.6-.31.91-.44,1.22-.89,2.5-1.36,3.82l-.36,1c-.12.34-.29.66-.43,1l-.91,2-.91,2c-.16.33-.29.67-.46,1s-.35.62-.52.93l-2,3.56c-.16.28-.31.56-.47.83s-.35.52-.52.78l-1,1.48-1.78,2.66c-1.2,1.54-2.21,2.76-2.9,3.61a10.45,10.45,0,0,1-1.13,1.27,9.26,9.26,0,0,1,.95-1.41L151.46,80c.53-.82,1.11-1.71,1.72-2.68l1-1.48.51-.78c.16-.27.3-.55.46-.83L157,70.7c.16-.31.33-.62.5-.93s.3-.65.46-1q.45-1,.9-2c.31-.67.61-1.34.91-2,.14-.33.31-.65.43-1l.36-1L162,59c.11-.31.23-.6.32-.9s.17-.6.25-.89q.24-.88.48-1.71c.31-1.1.6-2.13.87-3.06.4-1.89.72-3.42.95-4.52A12.92,12.92,0,0,1,165.27,46.29Z"/><path class="cls-15" d="M185.91,99.5a1.46,1.46,0,0,0-.77,1.84c.5,1.4,1.3,3.6,1.89,4.93a4,4,0,0,0,.74,1.19,1.23,1.23,0,0,0,1.25.34,1.36,1.36,0,0,0,.75-1.18,4.16,4.16,0,0,0-.27-1.47c-.42-1.31-1.15-3.27-1.77-4.86a1.36,1.36,0,0,0-1.82-.79Z"/><path class="cls-15" d="M184,102.08a1.48,1.48,0,0,0-.78,1.84c.5,1.4,1.3,3.6,1.9,4.93a3.71,3.71,0,0,0,.73,1.19,1.22,1.22,0,0,0,1.25.34,1.31,1.31,0,0,0,.75-1.18,3.93,3.93,0,0,0-.26-1.47c-.43-1.31-1.15-3.26-1.78-4.86a1.36,1.36,0,0,0-1.81-.79Z"/><path class="cls-15" d="M182.07,103.72a1.26,1.26,0,0,0-.7,1.59c.45,1.22,1.17,3.12,1.71,4.27a3.27,3.27,0,0,0,.67,1,1,1,0,0,0,1.81-.73,3.24,3.24,0,0,0-.24-1.26c-.38-1.14-1-2.84-1.61-4.22a1.25,1.25,0,0,0-1.64-.68Z"/><path class="cls-15" d="M179.59,104.27a1.25,1.25,0,0,0-.7,1.6c.45,1.22,1.17,3.13,1.72,4.29a3,3,0,0,0,.67,1,1.15,1.15,0,0,0,1.13.3,1.17,1.17,0,0,0,.68-1,3.12,3.12,0,0,0-.24-1.27c-.38-1.14-1-2.84-1.61-4.23a1.26,1.26,0,0,0-1.65-.69Z"/><path class="cls-16" d="M187.64,107.51a7.53,7.53,0,0,1-1.31-2.45,7.66,7.66,0,0,1-.83-2.66,7.57,7.57,0,0,1,1.31,2.46A7.7,7.7,0,0,1,187.64,107.51Z"/><path class="cls-16" d="M185.5,109.66a10,10,0,0,1-1.4-2.83,9.91,9.91,0,0,1-.92-3,9.67,9.67,0,0,1,1.4,2.83A9.35,9.35,0,0,1,185.5,109.66Z"/><path class="cls-16" d="M183.28,109.94a10.59,10.59,0,0,1-2.15-5.15,9.48,9.48,0,0,1,1.21,2.52A9.64,9.64,0,0,1,183.28,109.94Z"/><path class="cls-9" d="M277.08,306.27l-6.8-54.5c4.43-10.33,6-20.64,4.74-27.05.08.67.11,1.5-.07-.38-1.1-11.35-10.9-19.69-10.9-19.69l-3.28-13.77-42,5.9,1.59,23.05-27.16,95.61-4.93,80.83,21.93,2.58s8.6-40.42,10.91-57.31a233.19,233.19,0,0,0,2.18-27.64l20.6-30.82c2.44,12.72,5.2,28.43,6.62,36.62a21.47,21.47,0,0,0,4.57,10L309,372.1V346.55C303.9,334.31,277.08,306.27,277.08,306.27Z"/><path class="cls-8" d="M224.2,213.88a9.73,9.73,0,0,1-.88-2.28,42.58,42.58,0,0,1-1.3-5.76,41.2,41.2,0,0,1-.46-5.88,9.94,9.94,0,0,1,.16-2.44,13.15,13.15,0,0,1,.21,2.43c.09,1.49.27,3.55.61,5.81s.78,4.28,1.14,5.74A15.17,15.17,0,0,1,224.2,213.88Z"/><path class="cls-8" d="M226.14,198.2s.16-.16.54-.24a2.62,2.62,0,0,1,3,2.19,2.87,2.87,0,0,1-1.34,2.65,2.6,2.6,0,0,1-2.94-.27,2.51,2.51,0,0,1-1-2.21,3.84,3.84,0,0,1,.47-1.54c.17-.33.3-.49.33-.48s0,.21-.15.56a4.86,4.86,0,0,0-.29,1.47,2.21,2.21,0,0,0,.92,1.82,2.16,2.16,0,0,0,2.38.2,2.4,2.4,0,0,0,1.13-2.15,2.15,2.15,0,0,0-1.12-1.68A3.22,3.22,0,0,0,226.14,198.2Z"/><path class="cls-8" d="M253.72,209.32a2.44,2.44,0,0,1-.74.3,10.77,10.77,0,0,1-2.12.48,15,15,0,0,1-3.23.12,18.21,18.21,0,0,1-3.89-.75,17.91,17.91,0,0,1-3.61-1.63,16.17,16.17,0,0,1-2.58-2,11.44,11.44,0,0,1-1.45-1.61c-.31-.42-.46-.66-.43-.68s.76.84,2.13,2a17.51,17.51,0,0,0,2.57,1.81A19.46,19.46,0,0,0,243.9,209a19.69,19.69,0,0,0,3.77.76,18.33,18.33,0,0,0,3.15,0C252.61,209.57,253.69,209.22,253.72,209.32Z"/><path class="cls-8" d="M267.21,250.44a3.26,3.26,0,0,1-.45.65l-1.39,1.76c-1.16,1.57-2.84,3.84-4.86,6.68C256.46,265.22,251,273.16,245,282s-11.34,16.79-15.28,22.61l-4.63,6.85c-.54.77-1,1.38-1.28,1.85a3.74,3.74,0,0,1-.48.62,5.38,5.38,0,0,1,.39-.68l1.2-1.9,4.5-6.94c3.83-5.84,9.16-13.88,15.15-22.7s11.51-16.73,15.64-22.36c2.06-2.82,3.79-5.06,5-6.59l1.47-1.71A5.94,5.94,0,0,1,267.21,250.44Z"/><path class="cls-9" d="M259.82,128.33c.08,0,.08-1.05.36-2.7a18.71,18.71,0,0,1,2.2-6.12,10.25,10.25,0,0,1,4.46-4.54,6.28,6.28,0,0,1,2.62-.42,1.65,1.65,0,0,0-.73-.2,4.5,4.5,0,0,0-2,.28,10,10,0,0,0-4.77,4.63,17,17,0,0,0-2.11,6.31A8,8,0,0,0,259.82,128.33Z"/><path class="cls-6" d="M256.36,112.14l-22,3.41-3.91,3.39s-13.84,26.94-14.09,32.38c-.28,6,2.94,16.32,2.94,16.32l-3.16,23.8c-.47,2.74,1.31,5.36,2.5,5.36l38-5.09c4.95-1,7-3.56,6.68-6.43l-.57-5.3L279,125.66c1,3.21-.54-8.65-7.78-11.32C268.11,113.22,261,111.17,256.36,112.14Z"/><path class="cls-6" d="M232.48,117.34s-6.76,5.21-13.17,11.14-23.48,17.8-23.48,17.8l-1.18-24.82-12.89-1.74s-6.3,30.94-2.3,39.48,8.78,8.9,22.06,4.63,17.08-6.17,17.08-6.17Z"/><path class="cls-9" d="M229.09,121s-.12.13-.31.39l-.79,1.15c-.67,1-1.63,2.49-2.78,4.34a69.24,69.24,0,0,0-7.37,15.3,33.85,33.85,0,0,0-1.14,16.87,23.13,23.13,0,0,0,1.59,4.91,13.52,13.52,0,0,0,.64,1.25,1.74,1.74,0,0,0,.26.42s-.26-.63-.72-1.75a26.13,26.13,0,0,1-1.42-4.9,34.9,34.9,0,0,1,1.27-16.65,75.22,75.22,0,0,1,7.2-15.27c1.09-1.81,2-3.3,2.64-4.41l.71-1.21A2,2,0,0,0,229.09,121Z"/><path class="cls-6" d="M267,114.35s-6.84,9-7.22,17.19,12.28,57.52,12.28,57.52l11.1,45L297,229s-3.21-32-3.82-36c-1.28-8.29-6.74-24.44-7.49-33.79s-4.21-27.34-5.92-31.55S278,114.11,267,114.35Z"/><path class="cls-9" d="M260.39,136.08a1.6,1.6,0,0,0,0,.48c0,.37.1.83.16,1.37.16,1.19.43,2.91.81,5,.76,4.22,2,10,3.4,16.4s2.85,12.14,3.93,16.29c.54,2.07,1,3.75,1.32,4.9.15.53.28,1,.39,1.33a1.48,1.48,0,0,0,.17.45,1.74,1.74,0,0,0-.07-.48l-.3-1.35c-.29-1.24-.69-2.91-1.16-4.94-1-4.24-2.31-10-3.78-16.31s-2.7-12.16-3.54-16.36c-.4-2-.73-3.72-1-5-.1-.54-.19-1-.26-1.35A1.6,1.6,0,0,0,260.39,136.08Z"/><g class="cls-14"><path d="M259.4,191c-2.18-2.18-2.63-5.5-3-8.57q-1.62-14.64-3.26-29.27c-.67-6.09-1.31-12.47,1-18.14a3.08,3.08,0,0,1,1.74-2,2.26,2.26,0,0,1,2.28.95c.53.7,2,1.7,2.23,2.55,2.22,8.7,3.18,17.27,5.39,26,.59,2.3,1.35,2.22.84,4.53-.73,3.37-3.89,13-3.89,13s.45,3.51.59,5.56A5.32,5.32,0,0,1,259.4,191"/></g><path class="cls-4" d="M261.44,140.93a2.9,2.9,0,0,0,.75.54,16.69,16.69,0,0,0,2.23,1.2,8,8,0,0,0,3.72.75,9,9,0,0,0,4.31-1.7,32.14,32.14,0,0,1,3.83-2.41,5.65,5.65,0,0,1,3.49-.57,4,4,0,0,1,2.13,1.07c.4.42.53.73.57.71a1.61,1.61,0,0,0-.42-.84,3.93,3.93,0,0,0-2.21-1.29,5.77,5.77,0,0,0-3.76.5,27.67,27.67,0,0,0-3.91,2.4A8.9,8.9,0,0,1,268.1,143a7.79,7.79,0,0,1-3.54-.62C262.62,141.55,261.49,140.84,261.44,140.93Z"/><path class="cls-4" d="M218.61,139.88s0,.14.2.37a5,5,0,0,0,.74.94,8.39,8.39,0,0,0,3.83,2.17,13.7,13.7,0,0,0,6.53.09A66.35,66.35,0,0,0,237.5,141a25.17,25.17,0,0,1,14.09-.94,35.85,35.85,0,0,1,5.64,1.88s-.11-.1-.35-.23-.59-.33-1.06-.55a22.06,22.06,0,0,0-4.15-1.45,24.11,24.11,0,0,0-6.49-.7,25,25,0,0,0-7.85,1.51,70.52,70.52,0,0,1-7.52,2.47,13.64,13.64,0,0,1-6.33,0,8.53,8.53,0,0,1-3.79-2C219,140.35,218.66,139.85,218.61,139.88Z"/><path class="cls-4" d="M210.53,135.52a5.58,5.58,0,0,0-.1,2.06,12.48,12.48,0,0,0,1.41,4.78,12.71,12.71,0,0,0,3.14,3.86,5.06,5.06,0,0,0,1.76,1.07,20.11,20.11,0,0,0-1.52-1.35,14.33,14.33,0,0,1-4.43-8.4A16.23,16.23,0,0,0,210.53,135.52Z"/><g class="cls-14"><path d="M224.65,127.61c-10.38,10.43-19.3,22-23.13,36.22,5.93-1.94,11.54-3.83,15.24-5.37,0,0-1.11-5.85-.44-9.3.83-4.21.82-7.75,8.33-21.55"/></g><path class="cls-9" d="M196,146.33a33.47,33.47,0,0,0-2.08,3.22,34.7,34.7,0,0,0-1.21,3.64,7.78,7.78,0,0,1,3.29-6.86Z"/></g></g></svg>