<svg xmlns="http://www.w3.org/2000/svg" xmlns:xlink="http://www.w3.org/1999/xlink" viewBox="0 0 602.78 563.5"><defs><style>.cls-1{fill:none;}.cls-2{clip-path:url(#clip-path);}.cls-3{fill:#ffb8a4;}.cls-4,.cls-9{fill:#ffe4dd;}.cls-5{fill:#18a795;}.cls-10,.cls-6{fill:#fc981f;}.cls-7{fill:#fc5b23;}.cls-8{fill:#011d44;}.cls-9{opacity:0.5;}.cls-10{opacity:0.2;}.cls-11{fill:#fff;}</style><clipPath id="clip-path" transform="translate(16.15 40.43)"><rect class="cls-1" width="750" height="500"/></clipPath></defs><g id="Layer_2" data-name="Layer 2"><g id="OBJECTS"><g class="cls-2"><path class="cls-3" d="M72.6,456.26c-36.12,1.94-51.76-44-23.91-62.66s96.47.18,103.05,21.94S99.84,454.8,72.6,456.26Z" transform="translate(16.15 40.43)"/><path class="cls-4" d="M93.75,437.67A83,83,0,0,1,67.9,403.6a58.76,58.76,0,0,1-4.28-20.26,46.64,46.64,0,0,1,.88-10.28,29.49,29.49,0,0,1,2.91-8.8c2.64-4.61,7.15-7.91,11.74-10.39a61.44,61.44,0,0,1,14.35-5.48,43,43,0,0,1,5.27-1,39.13,39.13,0,0,1,6.93.08,83.11,83.11,0,0,1,19.58,3.64,90.48,90.48,0,0,1,33.07,19.32,142,142,0,0,1,25.38,31.15c4,6.41,8.09,13.08,10.67,20.18s2.87,15.2-.55,22.12c-5.12,10.33-16.78,17.58-28.32,17.27-10.23-.28-20.53-2.53-30.39-5.15-11.95-3.18-23.91-7.35-34.58-13.69a64.06,64.06,0,0,1-6.81-4.61c-.75-.59-1.82.46-1.06,1.06,9.79,7.66,21.75,12.47,33.51,16.2a167.52,167.52,0,0,0,34.27,7.36,39.69,39.69,0,0,0,10.5,0,34.78,34.78,0,0,0,18.49-9.88,28.29,28.29,0,0,0,8.43-19.27c.23-7.9-3.08-15.13-6.79-21.91-6.93-12.62-14.93-24.73-24.84-35.22-9.08-9.62-19.79-17.82-31.94-23.16a83.59,83.59,0,0,0-19.12-5.8,87,87,0,0,0-10.42-1.2,34.23,34.23,0,0,0-6.56.06,56.74,56.74,0,0,0-13,3.51,46.42,46.42,0,0,0-14.31,8.27,23.28,23.28,0,0,0-5,6.13,31.74,31.74,0,0,0-2.9,9,52.29,52.29,0,0,0,.31,20.85c3,14.35,11.12,27.49,21.34,37.86a86.69,86.69,0,0,0,8,7.18C93.44,439.32,94.51,438.27,93.75,437.67Z" transform="translate(16.15 40.43)"/><path class="cls-5" d="M301.5,500c21-12,79-29,147,0Z" transform="translate(16.15 40.43)"/><path class="cls-6" d="M-14,378C6.25,389.45,3,493,99,474c91.12-18,151,13.53,146,32-9,33-261,8-261,8Z" transform="translate(16.15 40.43)"/><path class="cls-4" d="M.85,338.64c27.93-45.7,51-89.74,40.63-116.81C30.47,193.05,0,180.36,0,180.36Z" transform="translate(16.15 40.43)"/><path class="cls-6" d="M36.25,336q.07-.28.18-.57l0-.08,0-.05.14-.28c.1-.18.2-.35.31-.51a.76.76,0,0,0,.08-.11c.1-.13-.09.11,0,0l.2-.24c.13-.14.27-.27.41-.4l.12-.1s.16-.09,0,0c.09-.05.17-.13.26-.18a3.5,3.5,0,0,1,.49-.29l.14-.07s.18-.11,0,0A1.54,1.54,0,0,1,39,333a.76.76,0,0,0,.52-.92.75.75,0,0,0-.92-.52,5.78,5.78,0,0,0-3.75,4.06.77.77,0,0,0,.52.93.75.75,0,0,0,.92-.53Z" transform="translate(16.15 40.43)"/><path class="cls-6" d="M56.25,340.78l4.57-4.51a.76.76,0,0,0,0-1.06.75.75,0,0,0-1.06,0l-4.57,4.51a.75.75,0,0,0,1.06,1.06Z" transform="translate(16.15 40.43)"/><path class="cls-6" d="M59.73,297.75l4.42-3.56a.75.75,0,0,0,0-1.06.77.77,0,0,0-1.06,0l-4.42,3.56a.76.76,0,0,0,0,1.06.77.77,0,0,0,1.06,0Z" transform="translate(16.15 40.43)"/><path class="cls-6" d="M59.73,318.75l4.42-3.56a.75.75,0,0,0,0-1.06.77.77,0,0,0-1.06,0l-4.42,3.56a.76.76,0,0,0,0,1.06.77.77,0,0,0,1.06,0Z" transform="translate(16.15 40.43)"/><path class="cls-5" d="M1,144C72.22,144,13.68,17,102,17c22,0,84,31,80-16.7C180.92-12.09,0,0,0,0S-37,144,1,144Z" transform="translate(16.15 40.43)"/><path class="cls-7" d="M269,445c-17.63-5.12-33,42-.53,34.49C293.45,473.72,300,454,269,445Z" transform="translate(16.15 40.43)"/><path class="cls-6" d="M236-9c-3.29,26.36,113,41,148,1C405.27-32.31,236-9,236-9Z" transform="translate(16.15 40.43)"/><path class="cls-8" d="M229.36,35.51c-1.51-1.42-3-2.86-4.53-4.25l-.75-.7a.77.77,0,0,0-1.06,0,.75.75,0,0,0,0,1.06c.87.82,1.76,1.63,2.64,2.45l2.64,2.5a.75.75,0,0,0,1.06-1.06Z" transform="translate(16.15 40.43)"/><path class="cls-8" d="M215-.74,211-4.49a.78.78,0,0,0-1.07,0,.77.77,0,0,0,0,1.06L213.9.32a.76.76,0,0,0,1.06,0,.75.75,0,0,0,0-1.06Z" transform="translate(16.15 40.43)"/><path class="cls-8" d="M217.09,15.84l-3.9-3.78a.75.75,0,0,0-1.06,1.06L216,16.9a.75.75,0,0,0,1.06-1.06Z" transform="translate(16.15 40.43)"/><path class="cls-8" d="M243,39.55l-3.93-3.74a.75.75,0,0,0-1.06,0,.76.76,0,0,0,0,1.06L242,40.61A.75.75,0,0,0,243,39.55Z" transform="translate(16.15 40.43)"/><path class="cls-8" d="M245.13,56.13l-3.89-3.78a.76.76,0,0,0-1.06,0,.75.75,0,0,0,0,1.06l3.89,3.78a.75.75,0,0,0,1.06-1.06Z" transform="translate(16.15 40.43)"/><path class="cls-8" d="M490.17,505.35l7.78-7.56c.69-.68-.37-1.74-1.06-1.06l-7.78,7.56c-.7.68.37,1.74,1.06,1.06Z" transform="translate(16.15 40.43)"/><path class="cls-8" d="M499.14,486.19l5.07-5.16a.75.75,0,0,0-1.06-1.06l-5.07,5.16a.77.77,0,0,0,0,1.06.75.75,0,0,0,1.06,0Z" transform="translate(16.15 40.43)"/><path class="cls-8" d="M514.14,498.19l5.07-5.16a.75.75,0,1,0-1.06-1.06l-5.07,5.16a.77.77,0,0,0,0,1.06.75.75,0,0,0,1.06,0Z" transform="translate(16.15 40.43)"/><path class="cls-8" d="M521,476.1l3.83-3.84a.75.75,0,0,0-1.06-1.06L520,475a.75.75,0,0,0,0,1.06.77.77,0,0,0,1.06,0Z" transform="translate(16.15 40.43)"/><path class="cls-9" d="M314.31,443.84c-10.42,1.19-12,27.11,10.85,17.09C329.5,459,330.86,441.94,314.31,443.84Z" transform="translate(16.15 40.43)"/><path class="cls-10" d="M56.69,152.75c-18.09,2.08-20.9,47.07,18.84,29.68C83.07,179.14,85.42,149.46,56.69,152.75Z" transform="translate(16.15 40.43)"/><path class="cls-4" d="M150.73,59c-5.82-6.61-15.16-8.49-23.61-8a46.52,46.52,0,0,0-23.06,7.59C97.44,63,92,69.28,89.54,76.89a31.3,31.3,0,0,0,1.58,22.53,32.18,32.18,0,0,0,18.56,17.28c.92.32,1.31-1.13.4-1.44C96,110.47,87,94.3,90.29,79.81c3.52-15.37,18.91-25.18,33.81-27,8.92-1.1,19.32.23,25.57,7.33.64.73,1.7-.34,1.06-1.06Z" transform="translate(16.15 40.43)"/><path class="cls-4" d="M19.24,168.69c-1.51-1.7-.7-4.63.22-6.42.83-1.63,2.71-4.09,4.77-3.54s3,3,3.39,4.8.6,4.54-1.13,5.51a7.49,7.49,0,0,1-3.83.63c-1.09,0-2.64-.17-3.42-1s-1.73.37-1.06,1.06a6,6,0,0,0,3.73,1.37,10.66,10.66,0,0,0,4.49-.41c2.71-1,3.21-4,2.87-6.49s-1.53-5.49-3.89-6.65c-2.68-1.31-5.3.87-6.69,3-1.64,2.55-2.75,6.63-.51,9.16C18.82,170.48,19.88,169.41,19.24,168.69Z" transform="translate(16.15 40.43)"/><path class="cls-11" d="M576.71,73.22c-2.75-3,.52-10.66,4.57-11.28,4.2-.64,7.13,8.39,4.1,11.38C583.84,74.84,578.14,74.79,576.71,73.22Z" transform="translate(16.15 40.43)"/><path class="cls-4" d="M-5-13.66c-7.14,5-10.31,14-9.3,22.45A25.7,25.7,0,0,0,1.13,29.13a33.1,33.1,0,0,0,27.09-.2c9.12-4.15,16.3-12,20.53-21C52.41.15,54.6-12.27,45.07-16.86,36.43-21,25.22-17,19-10.36A20.66,20.66,0,0,0,13.44,1.73a17,17,0,0,0,3.64,11.8c5.2,6.79,14.84,10.1,22.29,4.86,4.33-3,7.73-7.71,10.61-12.1A47.64,47.64,0,0,0,56.75-8.93c2.17-9.38.38-19.91-6.31-27.13A22.42,22.42,0,0,0,45-40.33a.75.75,0,0,0-.76,1.3c7.83,4.42,11.86,13.48,11.91,22.24C56.23-6.49,51,3.19,44.68,11c-2.92,3.6-6.34,7.41-11.1,8.34a14.83,14.83,0,0,1-10.92-2.57,17.89,17.89,0,0,1-7.11-9.3,16,16,0,0,1,1.27-12.1A23.55,23.55,0,0,1,38.63-16.93c4.82.29,9.39,2.58,11,7.36C51.09-5.43,50.4-.79,49,3.27A42.7,42.7,0,0,1,32.65,24.73,32.29,32.29,0,0,1,7.38,29.65C-.83,27.76-8.49,22.36-11.5,14.26-14.22,6.94-13.35-1.91-8.6-8.22a19.12,19.12,0,0,1,4.32-4.15c.79-.55,0-1.85-.76-1.29Z" transform="translate(16.15 40.43)"/></g></g></g></svg>