<svg id="OBJECTS" xmlns="http://www.w3.org/2000/svg" xmlns:xlink="http://www.w3.org/1999/xlink" viewBox="0 0 602.78 563.51"><defs><style>.cls-1{fill:none;}.cls-2{clip-path:url(#clip-path);}.cls-3{fill:#ffb8a4;}.cls-4,.cls-9{fill:#ffe4dd;}.cls-5{fill:#18a795;}.cls-10,.cls-6{fill:#fc981f;}.cls-7{fill:#011d44;}.cls-8{fill:#fc5b23;}.cls-9{opacity:0.5;}.cls-10{opacity:0.2;}.cls-11{fill:#fff;}</style><clipPath id="clip-path" transform="translate(16.15 40.44)"><rect class="cls-1" width="750" height="500"/></clipPath></defs><g class="cls-2"><path class="cls-3" d="M72.6,456.26c-36.12,1.94-51.76-44-23.91-62.66s96.47.18,103.05,21.94S99.84,454.8,72.6,456.26Z" transform="translate(16.15 40.44)"/><path class="cls-4" d="M93.75,437.67c-10.92-8.75-20-20-25.37-32.93-5-11.92-7.8-28.74-.92-40.57,5.2-8.94,16.79-13.53,26.36-15.86,10.31-2.51,21.78-.31,31.72,2.85,25,7.94,43.88,27.61,57.52,49.31,8,12.73,18.2,28.48,10.61,43.7-5.39,10.82-17.61,17.47-29.5,16.89-11.7-.56-23.48-3.33-34.66-6.68-12.62-3.78-25.39-8.73-35.91-16.83-.77-.59-1.52.71-.76,1.29,10.26,7.9,22.69,12.83,35,16.6,11.22,3.44,22.94,6.16,34.67,7a33.73,33.73,0,0,0,28.72-11.94c9.91-11.79,7-26,.27-38.56-13.25-24.51-31.63-48.14-57.9-59.4-20.15-8.63-46.11-10.54-63.26,5.72-10.29,9.75-9.5,27.43-5.84,40,4.69,16.06,15.25,30.11,28.21,40.49C93.43,439.33,94.5,438.27,93.75,437.67Z" transform="translate(16.15 40.44)"/><path class="cls-5" d="M301.5,500c21-12,79-29,147,0Z" transform="translate(16.15 40.44)"/><path class="cls-6" d="M-14,378C6.25,389.45,3,493,99,474c91.12-18,151,13.53,146,32-9,33-261,8-261,8Z" transform="translate(16.15 40.44)"/><path class="cls-4" d="M.85,338.64c27.93-45.7,51-89.74,40.63-116.81C30.47,193.05,0,180.36,0,180.36Z" transform="translate(16.15 40.44)"/><path class="cls-6" d="M36.25,336A4.33,4.33,0,0,1,39,333c.9-.32.51-1.77-.4-1.44a5.86,5.86,0,0,0-3.75,4.06.75.75,0,0,0,1.44.4Z" transform="translate(16.15 40.44)"/><path class="cls-6" d="M56.25,340.78l4.57-4.51a.75.75,0,0,0-1.06-1.06l-4.57,4.51c-.69.68.38,1.74,1.06,1.06Z" transform="translate(16.15 40.44)"/><path class="cls-6" d="M59.73,297.75l4.42-3.56c.75-.6-.32-1.66-1.06-1.06l-4.42,3.56c-.75.61.32,1.66,1.06,1.06Z" transform="translate(16.15 40.44)"/><path class="cls-6" d="M59.73,318.75l4.42-3.56c.75-.6-.32-1.66-1.06-1.06l-4.42,3.56c-.75.61.32,1.66,1.06,1.06Z" transform="translate(16.15 40.44)"/><path class="cls-5" d="M1,144C72.22,144,13.68,17,102,17c22,0,84,31,80-16.7C180.92-12.09,0,0,0,0S-37,144,1,144Z" transform="translate(16.15 40.44)"/><path class="cls-7" d="M15.35,374.25c-3.61,2.41,0,8.82,5.43,4.75C24.26,376.39,19.43,371.53,15.35,374.25Z" transform="translate(16.15 40.44)"/><path class="cls-8" d="M269,445c-17.63-5.12-33,42-.53,34.49C293.45,473.72,300,454,269,445Z" transform="translate(16.15 40.44)"/><path class="cls-7" d="M229.36,35.51c-1.75-1.66-3.52-3.3-5.28-4.95-.71-.66-1.77.4-1.06,1.06,1.76,1.65,3.53,3.29,5.28,4.95.69.67,1.76-.39,1.06-1.06Z" transform="translate(16.15 40.44)"/><path class="cls-7" d="M215-.74,211-4.49c-.7-.66-1.77.4-1.07,1.06L213.9.32c.7.66,1.76-.39,1.06-1.06Z" transform="translate(16.15 40.44)"/><path class="cls-7" d="M217.09,15.84l-3.9-3.78c-.69-.67-1.75.39-1.06,1.06L216,16.9c.69.67,1.75-.39,1.06-1.06Z" transform="translate(16.15 40.44)"/><path class="cls-7" d="M243,39.55l-3.93-3.74c-.7-.67-1.76.39-1.06,1.06L242,40.61c.7.67,1.76-.39,1.06-1.06Z" transform="translate(16.15 40.44)"/><path class="cls-7" d="M245.13,56.13l-3.89-3.78c-.7-.67-1.76.39-1.06,1.06l3.89,3.78c.7.67,1.76-.39,1.06-1.06Z" transform="translate(16.15 40.44)"/><path class="cls-9" d="M314.31,443.84c-10.42,1.19-12,27.11,10.85,17.09C329.5,459,330.86,441.94,314.31,443.84Z" transform="translate(16.15 40.44)"/><path class="cls-10" d="M56.69,152.75c-18.09,2.08-20.9,47.07,18.84,29.68C83.07,179.14,85.42,149.46,56.69,152.75Z" transform="translate(16.15 40.44)"/><path class="cls-4" d="M150.73,59c-15-16-44.88-6.95-56.47,8.77-12.53,17-4.17,41.81,15.42,48.89.91.33,1.3-1.12.4-1.44-19-6.87-26.57-31.06-14.15-47.16,11.24-14.57,39.58-23.18,53.74-8,.66.71,1.72-.35,1.06-1.06Z" transform="translate(16.15 40.44)"/><path class="cls-4" d="M19.24,168.69c-1.9-2.36-.24-6.38,1.51-8.35,2.08-2.34,4.52-1.89,6,.76,1.06,1.94,1.9,5.25.51,7.23s-6.34,1.85-8,.36c-.71-.65-1.77.41-1.06,1.06,2.23,2,7.94,2.2,10-.19,2.27-2.65,1.15-7.41-.64-10-5.1-7.34-13.76,4.7-9.35,10.19C18.79,170.51,19.84,169.44,19.24,168.69Z" transform="translate(16.15 40.44)"/><path class="cls-11" d="M576.71,73.22c-2.75-3,.52-10.66,4.57-11.28,4.2-.64,7.13,8.39,4.1,11.38C583.84,74.84,578.14,74.79,576.71,73.22Z" transform="translate(16.15 40.44)"/><path class="cls-4" d="M-5-13.66C-21.16-1.84-15.17,22.48,2.1,29.55c19.74,8.07,40.21-5.4,47.64-23.88,3.2-7.95,3.74-19.21-5.69-23-8.62-3.44-19.29.58-25.24,7.18-6.1,6.77-7.36,16.54-1.53,23.9,4.64,5.87,12.9,9.3,20,5.86C42.79,17,46.91,11.05,50.14,6a45.26,45.26,0,0,0,7.24-18.47c1.41-10.82-2.8-22.16-12.36-27.9-.83-.5-1.58.8-.76,1.3C62.34-28.19,56.62-4.65,46,9.27c-5.59,7.35-13.12,13.49-22.4,8.07A16.59,16.59,0,0,1,17.53-5.91c4.56-7.57,14.41-12.44,23.21-10.77C52.28-14.5,51.58-2,47.79,6.44c-6.92,15.42-23,27.23-40.41,23.21C-1.71,27.55-9.76,21.24-12.21,12c-2.35-8.87.4-18.84,7.93-24.36.77-.56,0-1.87-.76-1.29Z" transform="translate(16.15 40.44)"/></g></svg>